<svg width="100" height="50" viewBox="0 0 100 50" fill="none" xmlns="http://www.w3.org/2000/svg">
<g clip-path="url(#clip0_720_15)">
<path d="M21.1286 0.0263982C18.4117 0.0217301 15.7197 0.543843 13.2016 1.56384C13.1002 1.60539 12.9984 1.64714 12.8967 1.68984C9.06975 3.30474 5.80459 6.01323 3.51041 9.47588C1.21623 12.9385 -0.00491563 17.0013 1.48717e-05 21.155V44.2101C0.000289271 44.4536 0.0971335 44.687 0.269301 44.8592C0.441469 45.0313 0.6749 45.1282 0.918382 45.1284L0.936618 45.13C18.6373 48.3445 35.8454 49.9734 52.097 49.9734C52.3407 49.9734 52.5841 49.973 52.8273 49.9723C68.8022 49.9237 84.3573 48.2948 99.0602 45.1307L99.0816 45.1284C99.3251 45.1282 99.5586 45.0313 99.7307 44.8592C99.9029 44.687 99.9997 44.4536 100 44.2101V0.944772C99.9997 0.70129 99.9029 0.467857 99.7307 0.295689C99.5586 0.123521 99.3251 0.0266786 99.0816 0.0264044L21.1286 0.0263982Z" fill="#3F3D56"/>
<path d="M76.102 18.4132C75.9428 18.4158 75.791 18.4809 75.6793 18.5944C75.5677 18.7079 75.5051 18.8607 75.5051 19.0199C75.5051 19.1791 75.5677 19.3319 75.6793 19.4454C75.791 19.5589 75.9428 19.624 76.102 19.6266H91.3148C91.3945 19.628 91.4737 19.6137 91.5479 19.5845C91.6221 19.5552 91.6898 19.5116 91.7472 19.4562C91.8045 19.4008 91.8504 19.3346 91.8821 19.2615C91.9138 19.1883 91.9309 19.1096 91.9322 19.0299C91.9335 18.9501 91.919 18.8709 91.8897 18.7968C91.8604 18.7226 91.8167 18.655 91.7613 18.5977C91.7058 18.5404 91.6395 18.4946 91.5664 18.463C91.4932 18.4313 91.4144 18.4144 91.3347 18.4132C91.3281 18.4131 91.3214 18.4131 91.3148 18.4132H76.102Z" fill="#3F3D56"/>
<path d="M94.7648 18.244C94.7537 18.255 94.7449 18.2682 94.7389 18.2827C94.7329 18.2972 94.7298 18.3127 94.7298 18.3284C94.7298 18.3441 94.7329 18.3596 94.7389 18.3741C94.7449 18.3886 94.7537 18.4017 94.7648 18.4128L95.2773 18.9253H94.0134C93.9818 18.9253 93.9514 18.9379 93.929 18.9603C93.9066 18.9827 93.894 19.0131 93.894 19.0447C93.894 19.0764 93.9066 19.1068 93.929 19.1292C93.9514 19.1516 93.9818 19.1641 94.0134 19.1641H95.2773L94.7648 19.6767C94.7537 19.6878 94.7449 19.7009 94.7389 19.7154C94.7329 19.7299 94.7298 19.7454 94.7298 19.7611C94.7298 19.7768 94.7329 19.7923 94.7389 19.8068C94.7449 19.8213 94.7537 19.8344 94.7648 19.8455C94.7759 19.8566 94.789 19.8654 94.8035 19.8714C94.818 19.8774 94.8335 19.8805 94.8492 19.8805C94.8649 19.8805 94.8804 19.8774 94.8949 19.8714C94.9094 19.8654 94.9225 19.8566 94.9336 19.8455L95.65 19.1292C95.6724 19.1068 95.6849 19.0764 95.6849 19.0447C95.6849 19.0131 95.6724 18.9827 95.65 18.9603L94.9336 18.244C94.9225 18.2329 94.9094 18.2241 94.8949 18.2181C94.8804 18.2121 94.8649 18.209 94.8492 18.209C94.8335 18.209 94.818 18.2121 94.8035 18.2181C94.789 18.2241 94.7759 18.2329 94.7648 18.244Z" fill="white"/>
<path d="M72.6456 18.244C72.6567 18.255 72.6655 18.2682 72.6715 18.2827C72.6775 18.2972 72.6806 18.3127 72.6806 18.3284C72.6806 18.3441 72.6775 18.3596 72.6715 18.3741C72.6655 18.3886 72.6567 18.4017 72.6456 18.4128L72.1331 18.9253H73.397C73.4127 18.9253 73.4282 18.9284 73.4428 18.9343C73.4573 18.9403 73.4705 18.9491 73.4816 18.9602C73.4927 18.9713 73.5016 18.9845 73.5076 18.999C73.5136 19.0135 73.5167 19.029 73.5167 19.0447C73.5167 19.0604 73.5136 19.076 73.5076 19.0905C73.5016 19.105 73.4927 19.1182 73.4816 19.1293C73.4705 19.1404 73.4573 19.1492 73.4428 19.1551C73.4282 19.1611 73.4127 19.1642 73.397 19.1641H72.1331L72.6456 19.6767C72.668 19.6991 72.6806 19.7294 72.6806 19.7611C72.6806 19.7928 72.668 19.8231 72.6456 19.8455C72.6232 19.8679 72.5929 19.8805 72.5612 19.8805C72.5295 19.8805 72.4992 19.8679 72.4768 19.8455L71.7604 19.1292C71.738 19.1068 71.7255 19.0764 71.7255 19.0447C71.7255 19.0131 71.738 18.9827 71.7604 18.9603L72.4768 18.244C72.4879 18.2329 72.501 18.2241 72.5155 18.2181C72.53 18.2121 72.5455 18.209 72.5612 18.209C72.5769 18.209 72.5924 18.2121 72.6069 18.2181C72.6214 18.2241 72.6345 18.2329 72.6456 18.244Z" fill="white"/>
<g opacity="0.4">
<path d="M76.7164 5.82066C77.0765 5.82066 77.3684 5.52874 77.3684 5.16863C77.3684 4.80853 77.0765 4.5166 76.7164 4.5166C76.3563 4.5166 76.0643 4.80853 76.0643 5.16863C76.0643 5.52874 76.3563 5.82066 76.7164 5.82066Z" fill="white"/>
<path d="M79.4332 5.82066C79.7933 5.82066 80.0852 5.52874 80.0852 5.16863C80.0852 4.80853 79.7933 4.5166 79.4332 4.5166C79.0731 4.5166 78.7811 4.80853 78.7811 5.16863C78.7811 5.52874 79.0731 5.82066 79.4332 5.82066Z" fill="white"/>
<path d="M82.15 5.82066C82.5101 5.82066 82.802 5.52874 82.802 5.16863C82.802 4.80853 82.5101 4.5166 82.15 4.5166C81.7898 4.5166 81.4979 4.80853 81.4979 5.16863C81.4979 5.52874 81.7898 5.82066 82.15 5.82066Z" fill="white"/>
<path d="M84.8668 5.82066C85.2269 5.82066 85.5188 5.52874 85.5188 5.16863C85.5188 4.80853 85.2269 4.5166 84.8668 4.5166C84.5066 4.5166 84.2147 4.80853 84.2147 5.16863C84.2147 5.52874 84.5066 5.82066 84.8668 5.82066Z" fill="white"/>
<path d="M87.5835 5.82066C87.9437 5.82066 88.2356 5.52874 88.2356 5.16863C88.2356 4.80853 87.9437 4.5166 87.5835 4.5166C87.2234 4.5166 86.9315 4.80853 86.9315 5.16863C86.9315 5.52874 87.2234 5.82066 87.5835 5.82066Z" fill="white"/>
<path d="M90.3003 5.82066C90.6605 5.82066 90.9524 5.52874 90.9524 5.16863C90.9524 4.80853 90.6605 4.5166 90.3003 4.5166C89.9402 4.5166 89.6483 4.80853 89.6483 5.16863C89.6483 5.52874 89.9402 5.82066 90.3003 5.82066Z" fill="white"/>
<path d="M93.0171 5.82066C93.3772 5.82066 93.6692 5.52874 93.6692 5.16863C93.6692 4.80853 93.3772 4.5166 93.0171 4.5166C92.657 4.5166 92.3651 4.80853 92.3651 5.16863C92.3651 5.52874 92.657 5.82066 93.0171 5.82066Z" fill="white"/>
<path d="M76.7164 7.88512C77.0765 7.88512 77.3684 7.59319 77.3684 7.23309C77.3684 6.87298 77.0765 6.58105 76.7164 6.58105C76.3563 6.58105 76.0643 6.87298 76.0643 7.23309C76.0643 7.59319 76.3563 7.88512 76.7164 7.88512Z" fill="white"/>
<path d="M79.4332 7.88512C79.7933 7.88512 80.0852 7.59319 80.0852 7.23309C80.0852 6.87298 79.7933 6.58105 79.4332 6.58105C79.0731 6.58105 78.7811 6.87298 78.7811 7.23309C78.7811 7.59319 79.0731 7.88512 79.4332 7.88512Z" fill="white"/>
<path d="M82.15 7.88512C82.5101 7.88512 82.802 7.59319 82.802 7.23309C82.802 6.87298 82.5101 6.58105 82.15 6.58105C81.7898 6.58105 81.4979 6.87298 81.4979 7.23309C81.4979 7.59319 81.7898 7.88512 82.15 7.88512Z" fill="white"/>
<path d="M84.8668 7.88512C85.2269 7.88512 85.5188 7.59319 85.5188 7.23309C85.5188 6.87298 85.2269 6.58105 84.8668 6.58105C84.5066 6.58105 84.2147 6.87298 84.2147 7.23309C84.2147 7.59319 84.5066 7.88512 84.8668 7.88512Z" fill="white"/>
<path d="M87.5835 7.88512C87.9437 7.88512 88.2356 7.59319 88.2356 7.23309C88.2356 6.87298 87.9437 6.58105 87.5835 6.58105C87.2234 6.58105 86.9315 6.87298 86.9315 7.23309C86.9315 7.59319 87.2234 7.88512 87.5835 7.88512Z" fill="white"/>
<path d="M90.3003 7.88512C90.6605 7.88512 90.9524 7.59319 90.9524 7.23309C90.9524 6.87298 90.6605 6.58105 90.3003 6.58105C89.9402 6.58105 89.6483 6.87298 89.6483 7.23309C89.6483 7.59319 89.9402 7.88512 90.3003 7.88512Z" fill="white"/>
<path d="M93.0171 7.88512C93.3772 7.88512 93.6692 7.59319 93.6692 7.23309C93.6692 6.87298 93.3772 6.58105 93.0171 6.58105C92.657 6.58105 92.3651 6.87298 92.3651 7.23309C92.3651 7.59319 92.657 7.88512 93.0171 7.88512Z" fill="white"/>
<path d="M76.7164 9.95055C77.0765 9.95055 77.3684 9.65862 77.3684 9.29852C77.3684 8.93841 77.0765 8.64648 76.7164 8.64648C76.3563 8.64648 76.0643 8.93841 76.0643 9.29852C76.0643 9.65862 76.3563 9.95055 76.7164 9.95055Z" fill="white"/>
<path d="M79.4332 9.95055C79.7933 9.95055 80.0852 9.65862 80.0852 9.29852C80.0852 8.93841 79.7933 8.64648 79.4332 8.64648C79.0731 8.64648 78.7811 8.93841 78.7811 9.29852C78.7811 9.65862 79.0731 9.95055 79.4332 9.95055Z" fill="white"/>
<path d="M82.15 9.95055C82.5101 9.95055 82.802 9.65862 82.802 9.29852C82.802 8.93841 82.5101 8.64648 82.15 8.64648C81.7898 8.64648 81.4979 8.93841 81.4979 9.29852C81.4979 9.65862 81.7898 9.95055 82.15 9.95055Z" fill="white"/>
<path d="M84.8668 9.95055C85.2269 9.95055 85.5188 9.65862 85.5188 9.29852C85.5188 8.93841 85.2269 8.64648 84.8668 8.64648C84.5066 8.64648 84.2147 8.93841 84.2147 9.29852C84.2147 9.65862 84.5066 9.95055 84.8668 9.95055Z" fill="white"/>
<path d="M87.5835 9.95055C87.9437 9.95055 88.2356 9.65862 88.2356 9.29852C88.2356 8.93841 87.9437 8.64648 87.5835 8.64648C87.2234 8.64648 86.9315 8.93841 86.9315 9.29852C86.9315 9.65862 87.2234 9.95055 87.5835 9.95055Z" fill="white"/>
<path d="M90.3003 9.95055C90.6605 9.95055 90.9524 9.65862 90.9524 9.29852C90.9524 8.93841 90.6605 8.64648 90.3003 8.64648C89.9402 8.64648 89.6483 8.93841 89.6483 9.29852C89.6483 9.65862 89.9402 9.95055 90.3003 9.95055Z" fill="white"/>
<path d="M93.0171 9.95055C93.3772 9.95055 93.6692 9.65862 93.6692 9.29852C93.6692 8.93841 93.3772 8.64648 93.0171 8.64648C92.657 8.64648 92.3651 8.93841 92.3651 9.29852C92.3651 9.65862 92.657 9.95055 93.0171 9.95055Z" fill="white"/>
<path d="M76.7164 12.015C77.0765 12.015 77.3684 11.7231 77.3684 11.363C77.3684 11.0029 77.0765 10.7109 76.7164 10.7109C76.3563 10.7109 76.0643 11.0029 76.0643 11.363C76.0643 11.7231 76.3563 12.015 76.7164 12.015Z" fill="white"/>
<path d="M79.4332 12.015C79.7933 12.015 80.0852 11.7231 80.0852 11.363C80.0852 11.0029 79.7933 10.7109 79.4332 10.7109C79.0731 10.7109 78.7811 11.0029 78.7811 11.363C78.7811 11.7231 79.0731 12.015 79.4332 12.015Z" fill="white"/>
<path d="M76.7164 14.0795C77.0765 14.0795 77.3684 13.7875 77.3684 13.4274C77.3684 13.0673 77.0765 12.7754 76.7164 12.7754C76.3563 12.7754 76.0643 13.0673 76.0643 13.4274C76.0643 13.7875 76.3563 14.0795 76.7164 14.0795Z" fill="white"/>
<path d="M79.4332 14.0795C79.7933 14.0795 80.0852 13.7875 80.0852 13.4274C80.0852 13.0673 79.7933 12.7754 79.4332 12.7754C79.0731 12.7754 78.7811 13.0673 78.7811 13.4274C78.7811 13.7875 79.0731 14.0795 79.4332 14.0795Z" fill="white"/>
<path d="M82.15 14.0795C82.5101 14.0795 82.802 13.7875 82.802 13.4274C82.802 13.0673 82.5101 12.7754 82.15 12.7754C81.7898 12.7754 81.4979 13.0673 81.4979 13.4274C81.4979 13.7875 81.7898 14.0795 82.15 14.0795Z" fill="white"/>
<path d="M82.15 12.015C82.5101 12.015 82.802 11.7231 82.802 11.363C82.802 11.0029 82.5101 10.7109 82.15 10.7109C81.7898 10.7109 81.4979 11.0029 81.4979 11.363C81.4979 11.7231 81.7898 12.015 82.15 12.015Z" fill="white"/>
<path d="M84.8668 12.015C85.2269 12.015 85.5188 11.7231 85.5188 11.363C85.5188 11.0029 85.2269 10.7109 84.8668 10.7109C84.5066 10.7109 84.2147 11.0029 84.2147 11.363C84.2147 11.7231 84.5066 12.015 84.8668 12.015Z" fill="white"/>
<path d="M87.5835 12.015C87.9437 12.015 88.2356 11.7231 88.2356 11.363C88.2356 11.0029 87.9437 10.7109 87.5835 10.7109C87.2234 10.7109 86.9315 11.0029 86.9315 11.363C86.9315 11.7231 87.2234 12.015 87.5835 12.015Z" fill="white"/>
<path d="M90.3003 12.015C90.6605 12.015 90.9524 11.7231 90.9524 11.363C90.9524 11.0029 90.6605 10.7109 90.3003 10.7109C89.9402 10.7109 89.6483 11.0029 89.6483 11.363C89.6483 11.7231 89.9402 12.015 90.3003 12.015Z" fill="white"/>
<path d="M93.0171 12.015C93.3772 12.015 93.6692 11.7231 93.6692 11.363C93.6692 11.0029 93.3772 10.7109 93.0171 10.7109C92.657 10.7109 92.3651 11.0029 92.3651 11.363C92.3651 11.7231 92.657 12.015 93.0171 12.015Z" fill="white"/>
</g>
<path d="M67.363 38.3381C66.6512 38.3381 65.9553 38.127 65.3634 37.7315C64.7715 37.336 64.3102 36.7739 64.0378 36.1162C63.7654 35.4586 63.6941 34.7349 63.833 34.0367C63.9718 33.3385 64.3146 32.6972 64.818 32.1938C65.3213 31.6905 65.9627 31.3477 66.6609 31.2088C67.359 31.0699 68.0827 31.1412 68.7404 31.4136C69.3981 31.686 69.9602 32.1474 70.3557 32.7393C70.7512 33.3311 70.9623 34.027 70.9623 34.7389C70.9612 35.6931 70.5816 36.608 69.9069 37.2827C69.2321 37.9575 68.3173 38.337 67.363 38.3381ZM67.363 31.3437C66.6915 31.3437 66.0351 31.5429 65.4768 31.9159C64.9185 32.289 64.4833 32.8192 64.2263 33.4396C63.9693 34.06 63.9021 34.7426 64.0331 35.4012C64.1641 36.0598 64.4875 36.6648 64.9623 37.1396C65.4371 37.6144 66.0421 37.9378 66.7007 38.0688C67.3593 38.1998 68.0419 38.1326 68.6623 37.8756C69.2827 37.6186 69.8129 37.1835 70.186 36.6251C70.5591 36.0668 70.7582 35.4104 70.7582 34.7389C70.7572 33.8387 70.3991 32.9758 69.7626 32.3393C69.1261 31.7028 68.2632 31.3447 67.363 31.3437Z" fill="#3F3D56"/>
<path d="M68.743 34.3946H67.708V33.3596C67.708 33.2681 67.6717 33.1804 67.607 33.1157C67.5423 33.051 67.4546 33.0146 67.3631 33.0146C67.2716 33.0146 67.1838 33.051 67.1191 33.1157C67.0544 33.1804 67.0181 33.2681 67.0181 33.3596V34.3946H65.9832C65.8917 34.3946 65.8039 34.4309 65.7392 34.4956C65.6745 34.5603 65.6382 34.648 65.6382 34.7395C65.6382 34.831 65.6745 34.9188 65.7392 34.9835C65.8039 35.0482 65.8917 35.0845 65.9832 35.0845H67.0181V36.1194C67.0181 36.2109 67.0544 36.2987 67.1191 36.3634C67.1838 36.4281 67.2716 36.4644 67.3631 36.4644C67.4546 36.4644 67.5423 36.4281 67.607 36.3634C67.6717 36.2987 67.708 36.2109 67.708 36.1194V35.0845H68.743C68.8345 35.0845 68.9222 35.0482 68.9869 34.9835C69.0516 34.9188 69.0879 34.831 69.0879 34.7395C69.0879 34.648 69.0516 34.5603 68.9869 34.4956C68.9222 34.4309 68.8345 34.3946 68.743 34.3946Z" fill="white"/>
<g opacity="0.4">
<path d="M5.51264 38.7811C5.79577 38.7811 6.02529 38.5516 6.02529 38.2685C6.02529 37.9854 5.79577 37.7559 5.51264 37.7559C5.22952 37.7559 5 37.9854 5 38.2685C5 38.5516 5.22952 38.7811 5.51264 38.7811Z" fill="white"/>
<path d="M5.51264 36.6444C5.79577 36.6444 6.02529 36.4149 6.02529 36.1318C6.02529 35.8487 5.79577 35.6191 5.51264 35.6191C5.22952 35.6191 5 35.8487 5 36.1318C5 36.4149 5.22952 36.6444 5.51264 36.6444Z" fill="white"/>
<path d="M5.51264 34.5087C5.79577 34.5087 6.02529 34.2792 6.02529 33.996C6.02529 33.7129 5.79577 33.4834 5.51264 33.4834C5.22952 33.4834 5 33.7129 5 33.996C5 34.2792 5.22952 34.5087 5.51264 34.5087Z" fill="white"/>
<path d="M5.51264 32.3729C5.79577 32.3729 6.02529 32.1434 6.02529 31.8603C6.02529 31.5772 5.79577 31.3477 5.51264 31.3477C5.22952 31.3477 5 31.5772 5 31.8603C5 32.1434 5.22952 32.3729 5.51264 32.3729Z" fill="white"/>
<path d="M5.51264 30.2372C5.79577 30.2372 6.02529 30.0077 6.02529 29.7246C6.02529 29.4414 5.79577 29.2119 5.51264 29.2119C5.22952 29.2119 5 29.4414 5 29.7246C5 30.0077 5.22952 30.2372 5.51264 30.2372Z" fill="white"/>
<path d="M5.51264 28.1005C5.79577 28.1005 6.02529 27.871 6.02529 27.5878C6.02529 27.3047 5.79577 27.0752 5.51264 27.0752C5.22952 27.0752 5 27.3047 5 27.5878C5 27.871 5.22952 28.1005 5.51264 28.1005Z" fill="white"/>
<path d="M5.51264 25.9647C5.79577 25.9647 6.02529 25.7352 6.02529 25.4521C6.02529 25.169 5.79577 24.9395 5.51264 24.9395C5.22952 24.9395 5 25.169 5 25.4521C5 25.7352 5.22952 25.9647 5.51264 25.9647Z" fill="white"/>
<path d="M7.13593 38.7811C7.41906 38.7811 7.64858 38.5516 7.64858 38.2685C7.64858 37.9854 7.41906 37.7559 7.13593 37.7559C6.85281 37.7559 6.62329 37.9854 6.62329 38.2685C6.62329 38.5516 6.85281 38.7811 7.13593 38.7811Z" fill="white"/>
<path d="M7.13593 36.6444C7.41906 36.6444 7.64858 36.4149 7.64858 36.1318C7.64858 35.8487 7.41906 35.6191 7.13593 35.6191C6.85281 35.6191 6.62329 35.8487 6.62329 36.1318C6.62329 36.4149 6.85281 36.6444 7.13593 36.6444Z" fill="white"/>
<path d="M7.13593 34.5087C7.41906 34.5087 7.64858 34.2792 7.64858 33.996C7.64858 33.7129 7.41906 33.4834 7.13593 33.4834C6.85281 33.4834 6.62329 33.7129 6.62329 33.996C6.62329 34.2792 6.85281 34.5087 7.13593 34.5087Z" fill="white"/>
<path d="M7.13593 32.3729C7.41906 32.3729 7.64858 32.1434 7.64858 31.8603C7.64858 31.5772 7.41906 31.3477 7.13593 31.3477C6.85281 31.3477 6.62329 31.5772 6.62329 31.8603C6.62329 32.1434 6.85281 32.3729 7.13593 32.3729Z" fill="white"/>
<path d="M7.13593 30.2372C7.41906 30.2372 7.64858 30.0077 7.64858 29.7246C7.64858 29.4414 7.41906 29.2119 7.13593 29.2119C6.85281 29.2119 6.62329 29.4414 6.62329 29.7246C6.62329 30.0077 6.85281 30.2372 7.13593 30.2372Z" fill="white"/>
<path d="M7.13593 28.1005C7.41906 28.1005 7.64858 27.871 7.64858 27.5878C7.64858 27.3047 7.41906 27.0752 7.13593 27.0752C6.85281 27.0752 6.62329 27.3047 6.62329 27.5878C6.62329 27.871 6.85281 28.1005 7.13593 28.1005Z" fill="white"/>
<path d="M7.13593 25.9647C7.41906 25.9647 7.64858 25.7352 7.64858 25.4521C7.64858 25.169 7.41906 24.9395 7.13593 24.9395C6.85281 24.9395 6.62329 25.169 6.62329 25.4521C6.62329 25.7352 6.85281 25.9647 7.13593 25.9647Z" fill="white"/>
<path d="M8.75947 38.7811C9.0426 38.7811 9.27211 38.5516 9.27211 38.2685C9.27211 37.9854 9.0426 37.7559 8.75947 37.7559C8.47634 37.7559 8.24683 37.9854 8.24683 38.2685C8.24683 38.5516 8.47634 38.7811 8.75947 38.7811Z" fill="white"/>
<path d="M8.75947 36.6444C9.0426 36.6444 9.27211 36.4149 9.27211 36.1318C9.27211 35.8487 9.0426 35.6191 8.75947 35.6191C8.47634 35.6191 8.24683 35.8487 8.24683 36.1318C8.24683 36.4149 8.47634 36.6444 8.75947 36.6444Z" fill="white"/>
<path d="M8.75947 34.5087C9.0426 34.5087 9.27211 34.2792 9.27211 33.996C9.27211 33.7129 9.0426 33.4834 8.75947 33.4834C8.47634 33.4834 8.24683 33.7129 8.24683 33.996C8.24683 34.2792 8.47634 34.5087 8.75947 34.5087Z" fill="white"/>
<path d="M8.75947 32.3729C9.0426 32.3729 9.27211 32.1434 9.27211 31.8603C9.27211 31.5772 9.0426 31.3477 8.75947 31.3477C8.47634 31.3477 8.24683 31.5772 8.24683 31.8603C8.24683 32.1434 8.47634 32.3729 8.75947 32.3729Z" fill="white"/>
<path d="M8.75947 30.2372C9.0426 30.2372 9.27211 30.0077 9.27211 29.7246C9.27211 29.4414 9.0426 29.2119 8.75947 29.2119C8.47634 29.2119 8.24683 29.4414 8.24683 29.7246C8.24683 30.0077 8.47634 30.2372 8.75947 30.2372Z" fill="white"/>
<path d="M8.75947 28.1005C9.0426 28.1005 9.27211 27.871 9.27211 27.5878C9.27211 27.3047 9.0426 27.0752 8.75947 27.0752C8.47634 27.0752 8.24683 27.3047 8.24683 27.5878C8.24683 27.871 8.47634 28.1005 8.75947 28.1005Z" fill="white"/>
<path d="M8.75947 25.9647C9.0426 25.9647 9.27211 25.7352 9.27211 25.4521C9.27211 25.169 9.0426 24.9395 8.75947 24.9395C8.47634 24.9395 8.24683 25.169 8.24683 25.4521C8.24683 25.7352 8.47634 25.9647 8.75947 25.9647Z" fill="white"/>
<path d="M10.3828 38.7811C10.6659 38.7811 10.8954 38.5516 10.8954 38.2685C10.8954 37.9854 10.6659 37.7559 10.3828 37.7559C10.0996 37.7559 9.87012 37.9854 9.87012 38.2685C9.87012 38.5516 10.0996 38.7811 10.3828 38.7811Z" fill="white"/>
<path d="M10.3828 36.6444C10.6659 36.6444 10.8954 36.4149 10.8954 36.1318C10.8954 35.8487 10.6659 35.6191 10.3828 35.6191C10.0996 35.6191 9.87012 35.8487 9.87012 36.1318C9.87012 36.4149 10.0996 36.6444 10.3828 36.6444Z" fill="white"/>
<path d="M12.0061 38.7811C12.2892 38.7811 12.5187 38.5516 12.5187 38.2685C12.5187 37.9854 12.2892 37.7559 12.0061 37.7559C11.7229 37.7559 11.4934 37.9854 11.4934 38.2685C11.4934 38.5516 11.7229 38.7811 12.0061 38.7811Z" fill="white"/>
<path d="M12.0061 36.6444C12.2892 36.6444 12.5187 36.4149 12.5187 36.1318C12.5187 35.8487 12.2892 35.6191 12.0061 35.6191C11.7229 35.6191 11.4934 35.8487 11.4934 36.1318C11.4934 36.4149 11.7229 36.6444 12.0061 36.6444Z" fill="white"/>
<path d="M12.0061 34.5087C12.2892 34.5087 12.5187 34.2792 12.5187 33.996C12.5187 33.7129 12.2892 33.4834 12.0061 33.4834C11.7229 33.4834 11.4934 33.7129 11.4934 33.996C11.4934 34.2792 11.7229 34.5087 12.0061 34.5087Z" fill="white"/>
<path d="M10.3828 34.5087C10.6659 34.5087 10.8954 34.2792 10.8954 33.996C10.8954 33.7129 10.6659 33.4834 10.3828 33.4834C10.0996 33.4834 9.87012 33.7129 9.87012 33.996C9.87012 34.2792 10.0996 34.5087 10.3828 34.5087Z" fill="white"/>
<path d="M10.3828 32.3729C10.6659 32.3729 10.8954 32.1434 10.8954 31.8603C10.8954 31.5772 10.6659 31.3477 10.3828 31.3477C10.0996 31.3477 9.87012 31.5772 9.87012 31.8603C9.87012 32.1434 10.0996 32.3729 10.3828 32.3729Z" fill="white"/>
<path d="M10.3828 30.2372C10.6659 30.2372 10.8954 30.0077 10.8954 29.7246C10.8954 29.4414 10.6659 29.2119 10.3828 29.2119C10.0996 29.2119 9.87012 29.4414 9.87012 29.7246C9.87012 30.0077 10.0996 30.2372 10.3828 30.2372Z" fill="white"/>
<path d="M10.3828 28.1005C10.6659 28.1005 10.8954 27.871 10.8954 27.5878C10.8954 27.3047 10.6659 27.0752 10.3828 27.0752C10.0996 27.0752 9.87012 27.3047 9.87012 27.5878C9.87012 27.871 10.0996 28.1005 10.3828 28.1005Z" fill="white"/>
<path d="M10.3828 25.9647C10.6659 25.9647 10.8954 25.7352 10.8954 25.4521C10.8954 25.169 10.6659 24.9395 10.3828 24.9395C10.0996 24.9395 9.87012 25.169 9.87012 25.4521C9.87012 25.7352 10.0996 25.9647 10.3828 25.9647Z" fill="white"/>
</g>
<path d="M50.756 3.39355H16.7007C16.5334 3.39372 16.373 3.46024 16.2548 3.57852C16.1365 3.69679 16.07 3.85715 16.0698 4.02441V33.1451C16.07 33.3124 16.1365 33.4728 16.2548 33.591C16.373 33.7093 16.5334 33.7758 16.7007 33.776H50.756C50.9232 33.7758 51.0836 33.7093 51.2019 33.591C51.3202 33.4728 51.3867 33.3124 51.3868 33.1451V4.02441C51.3867 3.85715 51.3202 3.69678 51.2019 3.57851C51.0836 3.46024 50.9232 3.39372 50.756 3.39355ZM51.134 33.1451C51.134 33.2455 51.0942 33.3418 51.0233 33.4128C50.9525 33.4839 50.8563 33.524 50.756 33.5244H16.7007C16.6003 33.5242 16.504 33.4842 16.4331 33.413C16.3622 33.3419 16.3225 33.2456 16.3226 33.1451V4.02441C16.3225 3.92399 16.3622 3.82762 16.4331 3.75651C16.504 3.68539 16.6003 3.64535 16.7007 3.64518H50.756C50.8563 3.64554 50.9525 3.68565 51.0233 3.75672C51.0942 3.8278 51.134 3.92405 51.134 4.02441V33.1451Z" fill="#3F3D56"/>
<path d="M24.5614 28.5988C24.5614 28.6437 24.5602 28.6886 24.5578 28.7323C24.5235 29.3895 24.2382 30.0085 23.7609 30.4615C23.2836 30.9146 22.6506 31.1671 21.9925 31.1671C21.3344 31.1671 20.7014 30.9146 20.224 30.4615C19.7467 30.0085 19.4615 29.3895 19.4271 28.7323C19.4248 28.6886 19.4236 28.6437 19.4236 28.5988C19.4234 28.2613 19.4897 27.9271 19.6187 27.6153C19.7477 27.3034 19.9369 27.02 20.1754 26.7813C20.414 26.5426 20.6972 26.3532 21.009 26.224C21.3208 26.0948 21.655 26.0283 21.9925 26.0283C22.33 26.0283 22.6641 26.0948 22.9759 26.224C23.2877 26.3532 23.571 26.5426 23.8095 26.7813C24.0481 27.02 24.2373 27.3034 24.3663 27.6153C24.4953 27.9271 24.5616 28.2613 24.5614 28.5988Z" fill="white"/>
<path d="M48.1098 26.8857H27.9249C27.8114 26.8859 27.7027 26.9311 27.6225 27.0114C27.5423 27.0917 27.4973 27.2005 27.4973 27.314C27.4973 27.4275 27.5423 27.5363 27.6225 27.6166C27.7027 27.6969 27.8114 27.7421 27.9249 27.7422H48.1098C48.2232 27.7421 48.332 27.6969 48.4122 27.6166C48.4923 27.5363 48.5374 27.4275 48.5374 27.314C48.5374 27.2005 48.4923 27.0917 48.4122 27.0114C48.332 26.9311 48.2232 26.8859 48.1098 26.8857Z" fill="#3F3D56"/>
<path d="M36.6101 29.4551H27.9247C27.8113 29.4551 27.7025 29.5001 27.6223 29.5803C27.5421 29.6605 27.4971 29.7693 27.4971 29.8827C27.4971 29.9962 27.5421 30.1049 27.6223 30.1851C27.7025 30.2653 27.8113 30.3104 27.9247 30.3104H36.6101C36.7236 30.3104 36.8323 30.2653 36.9125 30.1851C36.9927 30.1049 37.0378 29.9962 37.0378 29.8827C37.0378 29.7693 36.9927 29.6605 36.9125 29.5803C36.8323 29.5001 36.7236 29.4551 36.6101 29.4551Z" fill="white"/>
<path d="M58.8466 23.8608H24.7915C24.5602 23.8605 24.3385 23.7685 24.175 23.605C24.0114 23.4414 23.9194 23.2197 23.9192 22.9884V8.04328C23.9194 7.812 24.0114 7.59026 24.175 7.42672C24.3385 7.26317 24.5602 7.17117 24.7915 7.1709H58.8466C59.0779 7.17117 59.2997 7.26317 59.4632 7.42672C59.6267 7.59026 59.7187 7.812 59.719 8.04328V22.9884C59.7187 23.2197 59.6267 23.4414 59.4632 23.605C59.2997 23.7685 59.0779 23.8605 58.8466 23.8608ZM24.7915 7.47702C24.6414 7.4772 24.4975 7.53691 24.3913 7.64307C24.2852 7.74923 24.2255 7.89316 24.2253 8.04328V22.9884C24.2255 23.1385 24.2852 23.2824 24.3913 23.3886C24.4975 23.4948 24.6414 23.5545 24.7915 23.5547H58.8466C58.9968 23.5545 59.1407 23.4948 59.2468 23.3886C59.353 23.2824 59.4127 23.1385 59.4129 22.9884V8.04328C59.4127 7.89316 59.353 7.74923 59.2468 7.64307C59.1407 7.53691 58.9968 7.4772 58.8466 7.47702H24.7915Z" fill="white"/>
<path d="M31.727 12.6221C31.6134 12.6221 31.5045 12.6672 31.4242 12.7475C31.3439 12.8278 31.2988 12.9367 31.2988 13.0502C31.2988 13.1638 31.3439 13.2727 31.4242 13.353C31.5045 13.4333 31.6134 13.4784 31.727 13.4784H51.9114C52.025 13.4784 52.1339 13.4333 52.2142 13.353C52.2944 13.2727 52.3396 13.1638 52.3396 13.0502C52.3396 12.9367 52.2944 12.8278 52.2142 12.7475C52.1339 12.6672 52.025 12.6221 51.9114 12.6221H31.727Z" fill="white"/>
<path d="M31.727 15.1035C31.6134 15.1035 31.5045 15.1486 31.4242 15.2289C31.3439 15.3092 31.2988 15.4181 31.2988 15.5317C31.2988 15.6452 31.3439 15.7541 31.4242 15.8344C31.5045 15.9147 31.6134 15.9598 31.727 15.9598H51.9114C52.0248 15.9596 52.1336 15.9145 52.2137 15.8342C52.2939 15.7539 52.3389 15.6451 52.3389 15.5317C52.3389 15.4182 52.2939 15.3094 52.2137 15.2292C52.1336 15.1489 52.0248 15.1037 51.9114 15.1035H31.727Z" fill="white"/>
<path d="M31.727 17.5537C31.6134 17.5537 31.5045 17.5988 31.4242 17.6791C31.3439 17.7594 31.2988 17.8683 31.2988 17.9819C31.2988 18.0954 31.3439 18.2043 31.4242 18.2846C31.5045 18.3649 31.6134 18.41 31.727 18.41H40.4124C40.5258 18.4098 40.6346 18.3647 40.7147 18.2844C40.7949 18.2041 40.8399 18.0953 40.8399 17.9819C40.8399 17.8684 40.7949 17.7596 40.7147 17.6793C40.6346 17.5991 40.5258 17.5539 40.4124 17.5537H31.727Z" fill="white"/>
<path d="M64.4616 30.1931L61.0413 25.3658L62.1485 25.5965C62.1682 25.6006 62.1885 25.6008 62.2083 25.5971C62.228 25.5933 62.2469 25.5857 62.2637 25.5747C62.2805 25.5637 62.295 25.5494 62.3063 25.5328C62.3177 25.5162 62.3256 25.4975 62.3297 25.4778C62.3338 25.4581 62.334 25.4378 62.3302 25.418C62.3265 25.3983 62.3189 25.3795 62.3079 25.3626C62.2968 25.3458 62.2826 25.3313 62.266 25.32C62.2494 25.3087 62.2307 25.3007 62.211 25.2966L60.5609 24.9531L60.3382 26.6236C60.3355 26.6436 60.3367 26.6639 60.3419 26.6834C60.347 26.7028 60.3559 26.7211 60.3682 26.7371C60.3804 26.7532 60.3956 26.7666 60.4131 26.7767C60.4305 26.7869 60.4498 26.7934 60.4697 26.7961C60.4897 26.7988 60.51 26.7975 60.5295 26.7923C60.549 26.7871 60.5672 26.7781 60.5832 26.7658C60.5992 26.7535 60.6126 26.7382 60.6227 26.7208C60.6327 26.7033 60.6393 26.684 60.6419 26.664L60.7912 25.5423L64.2119 30.3701C64.2235 30.3865 64.2383 30.4004 64.2553 30.4111C64.2723 30.4218 64.2913 30.4291 64.3111 30.4324C64.3309 30.4358 64.3512 30.4353 64.3707 30.4308C64.3903 30.4263 64.4089 30.4181 64.4253 30.4064C64.4417 30.3948 64.4556 30.3801 64.4663 30.3631C64.477 30.3461 64.4843 30.3271 64.4876 30.3073C64.491 30.2875 64.4905 30.2672 64.486 30.2476C64.4815 30.228 64.4733 30.2095 64.4616 30.1931Z" fill="white"/>
<path d="M45.8842 44.2427H21.5723C21.4529 44.2426 21.3385 44.1951 21.2541 44.1107C21.1697 44.0263 21.1222 43.9119 21.1221 43.7925V37.7617C21.1222 37.6424 21.1697 37.5279 21.2541 37.4435C21.3385 37.3591 21.4529 37.3117 21.5723 37.3115H45.8842C46.0036 37.3117 46.118 37.3591 46.2024 37.4435C46.2868 37.5279 46.3343 37.6424 46.3345 37.7617V43.7925C46.3343 43.9119 46.2868 44.0263 46.2024 44.1107C46.118 44.1951 46.0036 44.2426 45.8842 44.2427ZM21.5723 37.4916C21.5007 37.4917 21.432 37.5202 21.3814 37.5708C21.3307 37.6215 21.3022 37.6901 21.3022 37.7617V43.7925C21.3022 43.8641 21.3307 43.9328 21.3814 43.9834C21.432 44.0341 21.5007 44.0626 21.5723 44.0626H45.8842C45.9559 44.0626 46.0245 44.0341 46.0752 43.9834C46.1258 43.9328 46.1543 43.8641 46.1544 43.7925V37.7617C46.1543 37.6901 46.1258 37.6215 46.0752 37.5708C46.0245 37.5202 45.9559 37.4917 45.8842 37.4916H21.5723Z" fill="#3F3D56"/>
<path d="M25.3498 42.3798C26.3627 42.3798 27.1838 41.5587 27.1838 40.5459C27.1838 39.533 26.3627 38.7119 25.3498 38.7119C24.337 38.7119 23.5159 39.533 23.5159 40.5459C23.5159 41.5587 24.337 42.3798 25.3498 42.3798Z" fill="white"/>
<path d="M29.5855 39.3232C29.5453 39.3232 29.5055 39.331 29.4684 39.3463C29.4312 39.3617 29.3975 39.3842 29.369 39.4126C29.3406 39.441 29.318 39.4747 29.3026 39.5118C29.2872 39.5489 29.2793 39.5887 29.2793 39.6289C29.2793 39.6691 29.2872 39.7089 29.3026 39.746C29.318 39.7831 29.3406 39.8168 29.369 39.8452C29.3975 39.8736 29.4312 39.8961 29.4684 39.9115C29.5055 39.9268 29.5453 39.9346 29.5855 39.9346H43.9952C44.0763 39.9346 44.154 39.9024 44.2113 39.845C44.2687 39.7877 44.3009 39.71 44.3009 39.6289C44.3009 39.5478 44.2687 39.4701 44.2113 39.4128C44.154 39.3554 44.0763 39.3232 43.9952 39.3232H29.5855Z" fill="white"/>
<path d="M29.5855 41.1572C29.5453 41.1572 29.5055 41.165 29.4684 41.1803C29.4312 41.1957 29.3975 41.2182 29.369 41.2466C29.3406 41.2749 29.318 41.3087 29.3026 41.3458C29.2872 41.3829 29.2793 41.4227 29.2793 41.4629C29.2793 41.5031 29.2872 41.5429 29.3026 41.58C29.318 41.6171 29.3406 41.6508 29.369 41.6792C29.3975 41.7076 29.4312 41.7301 29.4684 41.7454C29.5055 41.7608 29.5453 41.7686 29.5855 41.7685H35.786C35.8671 41.7685 35.9449 41.7363 36.0022 41.679C36.0595 41.6217 36.0917 41.5439 36.0917 41.4629C36.0917 41.3818 36.0595 41.3041 36.0022 41.2467C35.9449 41.1894 35.8671 41.1572 35.786 41.1572H29.5855Z" fill="white"/>
<path d="M77.9617 22.7568H88.767C88.8864 22.757 89.0008 22.8045 89.0852 22.8889C89.1696 22.9733 89.2171 23.0877 89.2173 23.2071V34.4604C89.2171 34.5797 89.1696 34.6942 89.0852 34.7786C89.0008 34.863 88.8864 34.9104 88.767 34.9106H77.9617C77.8423 34.9104 77.7279 34.863 77.6435 34.7786C77.5591 34.6942 77.5116 34.5797 77.5115 34.4604V23.2071C77.5116 23.0877 77.5591 22.9733 77.6435 22.8889C77.7279 22.8045 77.8423 22.757 77.9617 22.7568ZM88.767 34.7305C88.8387 34.7304 88.9073 34.7019 88.958 34.6513C89.0086 34.6007 89.0371 34.532 89.0372 34.4604V23.2071C89.0371 23.1354 89.0086 23.0668 88.958 23.0161C88.9073 22.9655 88.8387 22.937 88.767 22.9369H77.9617C77.8901 22.937 77.8214 22.9655 77.7708 23.0161C77.7201 23.0668 77.6916 23.1354 77.6916 23.2071V34.4604C77.6916 34.532 77.7201 34.6007 77.7708 34.6513C77.8214 34.7019 77.8901 34.7304 77.9617 34.7305H88.767Z" fill="#3F3D56"/>
<path d="M86.4646 32.5898C86.5456 32.5898 86.6234 32.5576 86.6807 32.5003C86.738 32.443 86.7702 32.3652 86.7702 32.2842C86.7702 32.2031 86.738 32.1254 86.6807 32.068C86.6234 32.0107 86.5456 31.9785 86.4646 31.9785H80.264C80.183 31.9785 80.1052 32.0107 80.0479 32.068C79.9906 32.1254 79.9584 32.2031 79.9584 32.2842C79.9584 32.3652 79.9906 32.443 80.0479 32.5003C80.1052 32.5576 80.183 32.5898 80.264 32.5898H86.4646Z" fill="white"/>
<path d="M86.4646 30.7891C86.5048 30.7891 86.5446 30.7813 86.5818 30.7659C86.6189 30.7506 86.6527 30.7281 86.6811 30.6997C86.7096 30.6713 86.7321 30.6376 86.7475 30.6005C86.7629 30.5634 86.7709 30.5236 86.7709 30.4834C86.7709 30.4432 86.7629 30.4034 86.7475 30.3663C86.7321 30.3292 86.7096 30.2955 86.6811 30.2671C86.6527 30.2387 86.6189 30.2162 86.5818 30.2008C86.5446 30.1855 86.5048 30.1777 86.4646 30.1777H80.2641C80.2239 30.1777 80.1841 30.1855 80.147 30.2008C80.1098 30.2162 80.0761 30.2387 80.0476 30.2671C80.0192 30.2955 79.9966 30.3292 79.9812 30.3663C79.9658 30.4034 79.9579 30.4432 79.9579 30.4834C79.9579 30.5236 79.9658 30.5634 79.9812 30.6005C79.9966 30.6376 80.0192 30.6713 80.0476 30.6997C80.0761 30.7281 80.1098 30.7506 80.147 30.7659C80.1841 30.7813 80.2239 30.7891 80.2641 30.7891H86.4646Z" fill="white"/>
<path d="M83.3643 25.0771C83.7448 25.0771 84.1168 25.19 84.4332 25.4014C84.7496 25.6128 84.9962 25.9133 85.1418 26.2649C85.2875 26.6164 85.3255 27.0033 85.2513 27.3765C85.1771 27.7497 84.9938 28.0925 84.7248 28.3616C84.4557 28.6307 84.1129 28.8139 83.7396 28.8882C83.3664 28.9624 82.9796 28.9243 82.628 28.7787C82.2765 28.6331 81.976 28.3864 81.7646 28.07C81.5531 27.7536 81.4403 27.3817 81.4403 27.0011C81.4409 26.491 81.6438 26.002 82.0045 25.6413C82.3652 25.2806 82.8542 25.0777 83.3643 25.0771Z" fill="white"/>
</g>
<defs>
<clipPath id="clip0_720_15">
<rect width="100" height="49.947" fill="white" transform="translate(0 0.0263672)"/>
</clipPath>
</defs>
</svg>
