<svg width="203" height="48" viewBox="0 0 203 48" fill="none" xmlns="http://www.w3.org/2000/svg">
<g clip-path="url(#clip0_720_1845)">
<g filter="url(#filter0_d_720_1845)">
<rect x="28.4014" y="-0.799805" width="33.1105" height="33.1105" rx="12" transform="rotate(59.068 28.4014 -0.799805)" fill="#F9F9FB"/>
</g>
<g filter="url(#filter1_d_720_1845)">
<path d="M17.2228 9.36809C22.9078 5.96166 30.2778 7.80877 33.6842 13.4937L38.0759 20.823C41.4824 26.508 39.6353 33.8781 33.9503 37.2845L26.621 41.6762C20.936 45.0826 13.566 43.2355 10.1596 37.5505L5.76785 30.2212C2.36142 24.5363 4.20853 17.1662 9.89351 13.7598L17.2228 9.36809Z" fill="#FAC371" fill-opacity="0.2" shape-rendering="crispEdges"/>
</g>
<path d="M24.3254 34.7537C23.8358 35.0363 23.4497 34.9329 23.167 34.4433L13.703 18.0511C13.4204 17.5616 13.5238 17.1754 14.0134 16.8928L21.2465 12.7168C22.6044 11.9328 23.8298 11.6872 24.9226 11.98C26.0193 12.2582 26.9517 13.0625 27.7197 14.3927L28.1517 15.1409C28.989 16.5912 29.1145 17.8859 28.5282 19.0251C30.5288 18.7568 32.1691 19.7312 33.4491 21.9483L33.9531 22.8212C34.8597 24.3916 35.1413 25.8179 34.7977 27.1002C34.458 28.3678 33.4984 29.4577 31.9187 30.3697L24.3254 34.7537ZM24.206 32.8827L31.0787 28.9147C32.2519 28.2374 32.9498 27.4835 33.1723 26.6529C33.3949 25.8224 33.1701 24.8251 32.4981 23.6612L31.9941 22.7883C31.3221 21.6243 30.5735 20.9357 29.7483 20.7224C28.9324 20.5037 27.9332 20.7358 26.7507 21.4184L19.878 25.3864L24.206 32.8827ZM19.038 23.9315L25.7583 20.0515C26.5989 19.5662 27.0952 18.9964 27.2471 18.3421C27.4029 17.6733 27.2194 16.8862 26.6968 15.9809L26.2648 15.2327C25.7314 14.3089 25.135 13.7665 24.4754 13.6054C23.825 13.4389 23.0287 13.6277 22.0865 14.1717L15.574 17.9317L19.038 23.9315Z" fill="white" fill-opacity="0.1"/>
<path d="M22.3254 33.9537C21.8358 34.2363 21.4497 34.1329 21.167 33.6433L11.703 17.2511C11.4204 16.7616 11.5238 16.3754 12.0134 16.0928L19.2465 11.9168C20.6044 11.1328 21.8298 10.8872 22.9226 11.18C24.0193 11.4582 24.9517 12.2625 25.7197 13.5927L26.1517 14.3409C26.989 15.7912 27.1145 17.0859 26.5282 18.2251C28.5288 17.9568 30.1691 18.9312 31.4491 21.1483L31.9531 22.0212C32.8597 23.5916 33.1413 25.0179 32.7977 26.3002C32.458 27.5678 31.4984 28.6577 29.9187 29.5697L22.3254 33.9537ZM22.206 32.0827L29.0787 28.1147C30.2519 27.4374 30.9498 26.6835 31.1723 25.8529C31.3949 25.0224 31.1701 24.0251 30.4981 22.8612L29.9941 21.9883C29.3221 20.8243 28.5735 20.1357 27.7483 19.9224C26.9324 19.7037 25.9332 19.9358 24.7507 20.6184L17.878 24.5864L22.206 32.0827ZM17.038 23.1315L23.7583 19.2515C24.5989 18.7662 25.0952 18.1964 25.2471 17.5421C25.4029 16.8733 25.2194 16.0862 24.6968 15.1809L24.2648 14.4327C23.7314 13.5089 23.135 12.9665 22.4754 12.8054C21.825 12.6389 21.0287 12.8277 20.0865 13.3717L13.574 17.1317L17.038 23.1315Z" fill="url(#paint0_linear_720_1845)"/>
</g>
<path d="M60.7102 18.9901V16.4545H72.6562V18.9901H68.2031V31H65.1634V18.9901H60.7102ZM77.5923 24.6932V31H74.5668V16.4545H77.5071V22.0156H77.6349C77.8812 21.3717 78.2789 20.8674 78.8281 20.5028C79.3774 20.1335 80.0663 19.9489 80.8949 19.9489C81.6525 19.9489 82.313 20.1146 82.8764 20.446C83.4446 20.7727 83.8849 21.2438 84.1974 21.8594C84.5147 22.4702 84.6709 23.2017 84.6662 24.054V31H81.6406V24.5938C81.6454 23.9214 81.4749 23.3982 81.1293 23.0241C80.7884 22.6501 80.3101 22.4631 79.6946 22.4631C79.2827 22.4631 78.9181 22.5507 78.6009 22.7259C78.2884 22.901 78.0421 23.1567 77.8622 23.4929C77.687 23.8243 77.5971 24.2244 77.5923 24.6932ZM92.0188 31.2131C90.8967 31.2131 89.9308 30.9858 89.1211 30.5312C88.3162 30.072 87.6959 29.4233 87.2603 28.5852C86.8247 27.7424 86.6069 26.7457 86.6069 25.5952C86.6069 24.473 86.8247 23.4882 87.2603 22.6406C87.6959 21.7931 88.3091 21.1326 89.0998 20.6591C89.8952 20.1856 90.828 19.9489 91.8981 19.9489C92.6178 19.9489 93.2878 20.0649 93.908 20.2969C94.533 20.5241 95.0775 20.8674 95.5415 21.3267C96.0103 21.786 96.3749 22.3636 96.6353 23.0597C96.8957 23.7509 97.0259 24.5606 97.0259 25.4886V26.3196H87.8143V24.4446H94.1779C94.1779 24.009 94.0832 23.6231 93.8938 23.2869C93.7044 22.9508 93.4416 22.688 93.1055 22.4986C92.774 22.3045 92.3881 22.2074 91.9478 22.2074C91.4885 22.2074 91.0813 22.3139 90.7262 22.527C90.3758 22.7353 90.1012 23.017 89.9023 23.3722C89.7035 23.7225 89.6017 24.1132 89.5969 24.544V26.3267C89.5969 26.8665 89.6964 27.3329 89.8952 27.7259C90.0988 28.1188 90.3853 28.4219 90.7546 28.6349C91.1239 28.848 91.5619 28.9545 92.0685 28.9545C92.4047 28.9545 92.7125 28.9072 92.9918 28.8125C93.2712 28.7178 93.5103 28.5758 93.7092 28.3864C93.908 28.197 94.0595 27.965 94.1637 27.6903L96.962 27.875C96.82 28.5473 96.5288 29.1345 96.0884 29.6364C95.6528 30.1335 95.0894 30.5218 94.3981 30.8011C93.7115 31.0758 92.9184 31.2131 92.0188 31.2131ZM99.0004 31V20.0909H101.884V22.0156H102.012C102.239 21.3764 102.618 20.8722 103.148 20.5028C103.678 20.1335 104.313 19.9489 105.051 19.9489C105.8 19.9489 106.436 20.1359 106.962 20.5099C107.488 20.8793 107.838 21.3812 108.013 22.0156H108.127C108.349 21.3906 108.752 20.8911 109.334 20.517C109.921 20.1383 110.615 19.9489 111.415 19.9489C112.433 19.9489 113.259 20.2732 113.894 20.9219C114.533 21.5658 114.853 22.4796 114.853 23.6634V31H111.834V24.2599C111.834 23.6539 111.673 23.1993 111.351 22.8963C111.029 22.5933 110.627 22.4418 110.144 22.4418C109.595 22.4418 109.166 22.617 108.858 22.9673C108.551 23.313 108.397 23.7699 108.397 24.3381V31H105.463V24.196C105.463 23.661 105.31 23.2348 105.002 22.9176C104.699 22.6004 104.299 22.4418 103.801 22.4418C103.465 22.4418 103.162 22.527 102.892 22.6974C102.627 22.8632 102.417 23.0975 102.26 23.4006C102.104 23.6989 102.026 24.0492 102.026 24.4517V31H99.0004ZM122.214 31.2131C121.092 31.2131 120.126 30.9858 119.316 30.5312C118.511 30.072 117.891 29.4233 117.456 28.5852C117.02 27.7424 116.802 26.7457 116.802 25.5952C116.802 24.473 117.02 23.4882 117.456 22.6406C117.891 21.7931 118.504 21.1326 119.295 20.6591C120.091 20.1856 121.023 19.9489 122.093 19.9489C122.813 19.9489 123.483 20.0649 124.103 20.2969C124.728 20.5241 125.273 20.8674 125.737 21.3267C126.206 21.786 126.57 22.3636 126.831 23.0597C127.091 23.7509 127.221 24.5606 127.221 25.4886V26.3196H118.01V24.4446H124.373C124.373 24.009 124.279 23.6231 124.089 23.2869C123.9 22.9508 123.637 22.688 123.301 22.4986C122.969 22.3045 122.583 22.2074 122.143 22.2074C121.684 22.2074 121.277 22.3139 120.922 22.527C120.571 22.7353 120.297 23.017 120.098 23.3722C119.899 23.7225 119.797 24.1132 119.792 24.544V26.3267C119.792 26.8665 119.892 27.3329 120.091 27.7259C120.294 28.1188 120.581 28.4219 120.95 28.6349C121.319 28.848 121.757 28.9545 122.264 28.9545C122.6 28.9545 122.908 28.9072 123.187 28.8125C123.467 28.7178 123.706 28.5758 123.904 28.3864C124.103 28.197 124.255 27.965 124.359 27.6903L127.157 27.875C127.015 28.5473 126.724 29.1345 126.284 29.6364C125.848 30.1335 125.285 30.5218 124.593 30.8011C123.907 31.0758 123.114 31.2131 122.214 31.2131ZM133.881 31V16.4545H139.705C140.775 16.4545 141.668 16.6132 142.383 16.9304C143.098 17.2476 143.635 17.688 143.995 18.2514C144.355 18.8101 144.535 19.4541 144.535 20.1832C144.535 20.7514 144.421 21.2509 144.194 21.6818C143.967 22.108 143.654 22.4583 143.256 22.733C142.863 23.0028 142.414 23.1946 141.907 23.3082V23.4503C142.461 23.474 142.979 23.6302 143.462 23.919C143.95 24.2079 144.345 24.6127 144.648 25.1335C144.951 25.6496 145.103 26.2652 145.103 26.9801C145.103 27.7519 144.911 28.4408 144.528 29.0469C144.149 29.6482 143.588 30.1241 142.844 30.4744C142.101 30.8248 141.185 31 140.096 31H133.881ZM136.957 28.4858H139.464C140.321 28.4858 140.946 28.3224 141.339 27.9957C141.732 27.6643 141.928 27.224 141.928 26.6747C141.928 26.2723 141.831 25.9171 141.637 25.6094C141.443 25.3016 141.166 25.0601 140.806 24.8849C140.451 24.7098 140.027 24.6222 139.535 24.6222H136.957V28.4858ZM136.957 22.5412H139.237C139.658 22.5412 140.032 22.4678 140.359 22.321C140.69 22.1695 140.951 21.9564 141.14 21.6818C141.334 21.4072 141.431 21.0781 141.431 20.6946C141.431 20.169 141.244 19.7453 140.87 19.4233C140.501 19.1013 139.975 18.9403 139.293 18.9403H136.957V22.5412ZM154.043 26.3551V20.0909H157.069V31H154.164V29.0185H154.05C153.804 29.6577 153.394 30.1714 152.821 30.5597C152.253 30.9479 151.56 31.142 150.74 31.142C150.011 31.142 149.37 30.9763 148.816 30.6449C148.262 30.3134 147.828 29.8423 147.516 29.2315C147.208 28.6207 147.052 27.8892 147.047 27.0369V20.0909H150.073V26.4972C150.078 27.1411 150.25 27.6501 150.591 28.0241C150.932 28.3982 151.389 28.5852 151.962 28.5852C152.327 28.5852 152.667 28.5024 152.985 28.3366C153.302 28.1662 153.558 27.9152 153.752 27.5838C153.951 27.2524 154.048 26.8428 154.043 26.3551ZM159.489 31V20.0909H162.514V31H159.489ZM161.009 18.6847C160.559 18.6847 160.173 18.5355 159.851 18.2372C159.534 17.9342 159.375 17.572 159.375 17.1506C159.375 16.7339 159.534 16.3764 159.851 16.0781C160.173 15.7751 160.559 15.6236 161.009 15.6236C161.458 15.6236 161.842 15.7751 162.159 16.0781C162.481 16.3764 162.642 16.7339 162.642 17.1506C162.642 17.572 162.481 17.9342 162.159 18.2372C161.842 18.5355 161.458 18.6847 161.009 18.6847ZM167.963 16.4545V31H164.938V16.4545H167.963ZM174.407 31.1776C173.578 31.1776 172.828 30.9645 172.156 30.5384C171.488 30.1075 170.958 29.4754 170.565 28.642C170.176 27.804 169.982 26.7765 169.982 25.5597C169.982 24.3097 170.183 23.2704 170.586 22.4418C170.988 21.6084 171.523 20.9858 172.191 20.5739C172.863 20.1572 173.6 19.9489 174.4 19.9489C175.011 19.9489 175.52 20.053 175.927 20.2614C176.339 20.465 176.67 20.7206 176.921 21.0284C177.177 21.3314 177.371 21.6297 177.504 21.9233H177.596V16.4545H180.614V31H177.631V29.2528H177.504C177.362 29.5559 177.16 29.8565 176.9 30.1548C176.644 30.4484 176.31 30.6922 175.898 30.8864C175.491 31.0805 174.994 31.1776 174.407 31.1776ZM175.366 28.7699C175.853 28.7699 176.265 28.6373 176.602 28.3722C176.942 28.1023 177.203 27.7259 177.383 27.2429C177.567 26.7599 177.66 26.1941 177.66 25.5455C177.66 24.8968 177.57 24.3333 177.39 23.8551C177.21 23.3769 176.95 23.0076 176.609 22.7472C176.268 22.4867 175.853 22.3565 175.366 22.3565C174.869 22.3565 174.45 22.4915 174.109 22.7614C173.768 23.0312 173.51 23.4053 173.335 23.8835C173.159 24.3617 173.072 24.9157 173.072 25.5455C173.072 26.1799 173.159 26.741 173.335 27.2287C173.514 27.7116 173.772 28.0904 174.109 28.3651C174.45 28.6349 174.869 28.7699 175.366 28.7699ZM188.074 31.2131C186.951 31.2131 185.985 30.9858 185.176 30.5312C184.371 30.072 183.751 29.4233 183.315 28.5852C182.879 27.7424 182.662 26.7457 182.662 25.5952C182.662 24.473 182.879 23.4882 183.315 22.6406C183.751 21.7931 184.364 21.1326 185.154 20.6591C185.95 20.1856 186.883 19.9489 187.953 19.9489C188.672 19.9489 189.342 20.0649 189.963 20.2969C190.588 20.5241 191.132 20.8674 191.596 21.3267C192.065 21.786 192.43 22.3636 192.69 23.0597C192.95 23.7509 193.081 24.5606 193.081 25.4886V26.3196H183.869V24.4446H190.233C190.233 24.009 190.138 23.6231 189.949 23.2869C189.759 22.9508 189.496 22.688 189.16 22.4986C188.829 22.3045 188.443 22.2074 188.002 22.2074C187.543 22.2074 187.136 22.3139 186.781 22.527C186.431 22.7353 186.156 23.017 185.957 23.3722C185.758 23.7225 185.656 24.1132 185.652 24.544V26.3267C185.652 26.8665 185.751 27.3329 185.95 27.7259C186.154 28.1188 186.44 28.4219 186.809 28.6349C187.179 28.848 187.617 28.9545 188.123 28.9545C188.459 28.9545 188.767 28.9072 189.047 28.8125C189.326 28.7178 189.565 28.5758 189.764 28.3864C189.963 28.197 190.114 27.965 190.218 27.6903L193.017 27.875C192.875 28.5473 192.583 29.1345 192.143 29.6364C191.708 30.1335 191.144 30.5218 190.453 30.8011C189.766 31.0758 188.973 31.2131 188.074 31.2131ZM195.055 31V20.0909H197.988V21.9943H198.102C198.301 21.3172 198.635 20.8059 199.103 20.4602C199.572 20.1098 200.112 19.9347 200.723 19.9347C200.874 19.9347 201.038 19.9441 201.213 19.9631C201.388 19.982 201.542 20.008 201.674 20.0412V22.7259C201.532 22.6832 201.336 22.6454 201.085 22.6122C200.834 22.5791 200.604 22.5625 200.396 22.5625C199.951 22.5625 199.553 22.6596 199.203 22.8537C198.857 23.0431 198.583 23.3082 198.379 23.6491C198.18 23.9901 198.081 24.383 198.081 24.8281V31H195.055Z" fill="#333333"/>
<defs>
<filter id="filter0_d_720_1845" x="0.459717" y="3.66016" width="44.5015" height="44.501" filterUnits="userSpaceOnUse" color-interpolation-filters="sRGB">
<feFlood flood-opacity="0" result="BackgroundImageFix"/>
<feColorMatrix in="SourceAlpha" type="matrix" values="0 0 0 0 0 0 0 0 0 0 0 0 0 0 0 0 0 0 127 0" result="hardAlpha"/>
<feOffset dy="4"/>
<feGaussianBlur stdDeviation="2"/>
<feComposite in2="hardAlpha" operator="out"/>
<feColorMatrix type="matrix" values="0 0 0 0 0 0 0 0 0 0 0 0 0 0 0 0 0 0 0.25 0"/>
<feBlend mode="normal" in2="BackgroundImageFix" result="effect1_dropShadow_720_1845"/>
<feBlend mode="normal" in="SourceGraphic" in2="effect1_dropShadow_720_1845" result="shape"/>
</filter>
<filter id="filter1_d_720_1845" x="0.0595703" y="7.66016" width="43.7246" height="43.7246" filterUnits="userSpaceOnUse" color-interpolation-filters="sRGB">
<feFlood flood-opacity="0" result="BackgroundImageFix"/>
<feColorMatrix in="SourceAlpha" type="matrix" values="0 0 0 0 0 0 0 0 0 0 0 0 0 0 0 0 0 0 127 0" result="hardAlpha"/>
<feOffset dy="4"/>
<feGaussianBlur stdDeviation="2"/>
<feComposite in2="hardAlpha" operator="out"/>
<feColorMatrix type="matrix" values="0 0 0 0 0 0 0 0 0 0 0 0 0 0 0 0 0 0 0.25 0"/>
<feBlend mode="normal" in2="BackgroundImageFix" result="effect1_dropShadow_720_1845"/>
<feBlend mode="normal" in="SourceGraphic" in2="effect1_dropShadow_720_1845" result="shape"/>
</filter>
<linearGradient id="paint0_linear_720_1845" x1="11.5479" y1="22.9847" x2="34.9393" y2="22.9847" gradientUnits="userSpaceOnUse">
<stop stop-color="#E645E8"/>
<stop offset="1" stop-color="#6200DE"/>
</linearGradient>
<clipPath id="clip0_720_1845">
<rect width="48" height="48" fill="white"/>
</clipPath>
</defs>
</svg>
