<svg width="100" height="72" viewBox="0 0 100 72" fill="none" xmlns="http://www.w3.org/2000/svg">
<g clip-path="url(#clip0_720_704)">
<path d="M81.6772 44.9153H17.2713C16.8317 44.9148 16.4102 44.7399 16.0993 44.429C15.7884 44.1181 15.6135 43.6966 15.613 43.257V3.54304C15.6134 3.22094 15.7415 2.91214 15.9693 2.68438C16.197 2.45662 16.5058 2.3285 16.8279 2.32812H82.0996C82.4273 2.3285 82.7414 2.45883 82.9731 2.69053C83.2048 2.92223 83.3351 3.23637 83.3355 3.56404V43.257C83.335 43.6966 83.1601 44.1181 82.8493 44.429C82.5384 44.7399 82.1169 44.9148 81.6772 44.9153Z" fill="#F2F2F2"/>
<path d="M79.3277 42.5668H19.3031C18.4232 42.5668 17.7074 41.8964 17.7074 41.0725V6.48909C17.7074 5.87802 18.2378 5.38086 18.8899 5.38086H79.7214C80.3842 5.38086 80.9235 5.88622 80.9235 6.50734V41.0725C80.9235 41.8964 80.2076 42.5668 79.3277 42.5668Z" fill="white"/>
<path d="M83.3125 3.44799H15.5898V2.60373C15.5905 2.16261 15.7661 1.73976 16.0781 1.42794C16.3901 1.11612 16.8131 0.940794 17.2542 0.94043H81.6482C82.0893 0.940792 82.5122 1.11611 82.8243 1.42794C83.1363 1.73976 83.3119 2.16261 83.3125 2.60373V3.44799Z" fill="#CCCCCC"/>
<path d="M18.6145 2.62759C18.8522 2.62759 19.0449 2.43485 19.0449 2.1971C19.0449 1.95934 18.8522 1.7666 18.6145 1.7666C18.3767 1.7666 18.184 1.95934 18.184 2.1971C18.184 2.43485 18.3767 2.62759 18.6145 2.62759Z" fill="white"/>
<path d="M20.2485 2.62759C20.4862 2.62759 20.679 2.43485 20.679 2.1971C20.679 1.95934 20.4862 1.7666 20.2485 1.7666C20.0107 1.7666 19.818 1.95934 19.818 2.1971C19.818 2.43485 20.0107 2.62759 20.2485 2.62759Z" fill="white"/>
<path d="M21.8825 2.62759C22.1203 2.62759 22.313 2.43485 22.313 2.1971C22.313 1.95934 22.1203 1.7666 21.8825 1.7666C21.6448 1.7666 21.452 1.95934 21.452 2.1971C21.452 2.43485 21.6448 2.62759 21.8825 2.62759Z" fill="white"/>
<path d="M72.7209 36.7664H26.2045C25.7382 36.7658 25.2911 36.5804 24.9614 36.2507C24.6317 35.9209 24.4462 35.4739 24.4457 35.0076V12.5801C24.4461 12.2313 24.5848 11.897 24.8314 11.6504C25.078 11.4038 25.4123 11.2651 25.761 11.2646H73.1433C73.4976 11.2651 73.8373 11.406 74.0878 11.6565C74.3384 11.9071 74.4793 12.2468 74.4797 12.6011V35.0076C74.4792 35.4739 74.2937 35.9209 73.964 36.2507C73.6343 36.5804 73.1872 36.7658 72.7209 36.7664ZM25.761 11.4657C25.4656 11.466 25.1823 11.5835 24.9734 11.7924C24.7645 12.0014 24.647 12.2846 24.6467 12.5801V35.0076C24.6471 35.4206 24.8114 35.8166 25.1035 36.1086C25.3955 36.4006 25.7915 36.5649 26.2045 36.5654H72.7209C73.1339 36.5649 73.5299 36.4006 73.8219 36.1086C74.114 35.8165 74.2782 35.4206 74.2787 35.0076V12.6011C74.2784 12.3 74.1586 12.0114 73.9458 11.7986C73.7329 11.5857 73.4443 11.466 73.1433 11.4657H25.761Z" fill="#CCCCCC"/>
<path d="M27.8125 35.0076H71.1129C71.5393 35.0076 71.9483 34.8382 72.2499 34.5366C72.5515 34.235 72.7209 33.826 72.7209 33.3995V14.651C72.7209 14.2245 72.5515 13.8155 72.2499 13.514C71.9483 13.2124 71.5393 13.043 71.1129 13.043H27.8125C27.386 13.043 26.977 13.2124 26.6755 13.514C26.3739 13.8155 26.2045 14.2245 26.2045 14.651V33.3995C26.2045 33.826 26.3739 34.235 26.6755 34.5366C26.977 34.8382 27.386 35.0076 27.8125 35.0076Z" fill="#F2F2F2"/>
<path d="M32.729 18.4975C33.2285 18.4975 33.6335 18.0926 33.6335 17.593C33.6335 17.0934 33.2285 16.6885 32.729 16.6885C32.2294 16.6885 31.8245 17.0934 31.8245 17.593C31.8245 18.0926 32.2294 18.4975 32.729 18.4975Z" fill="#CCCCCC"/>
<path d="M32.729 21.9145C33.2285 21.9145 33.6335 21.5095 33.6335 21.01C33.6335 20.5104 33.2285 20.1055 32.729 20.1055C32.2294 20.1055 31.8245 20.5104 31.8245 21.01C31.8245 21.5095 32.2294 21.9145 32.729 21.9145Z" fill="#CCCCCC"/>
<path d="M32.729 25.3315C33.2285 25.3315 33.6335 24.9265 33.6335 24.427C33.6335 23.9274 33.2285 23.5225 32.729 23.5225C32.2294 23.5225 31.8245 23.9274 31.8245 24.427C31.8245 24.9265 32.2294 25.3315 32.729 25.3315Z" fill="#CCCCCC"/>
<path d="M32.729 28.7495C33.2285 28.7495 33.6335 28.3445 33.6335 27.845C33.6335 27.3454 33.2285 26.9404 32.729 26.9404C32.2294 26.9404 31.8245 27.3454 31.8245 27.845C31.8245 28.3445 32.2294 28.7495 32.729 28.7495Z" fill="#CCCCCC"/>
<path d="M67.0004 17.6942H37.2516C37.225 17.6942 37.1994 17.6836 37.1806 17.6647C37.1617 17.6459 37.1511 17.6203 37.1511 17.5937C37.1511 17.567 37.1617 17.5414 37.1806 17.5226C37.1994 17.5038 37.225 17.4932 37.2516 17.4932H67.0004C67.027 17.4932 67.0526 17.5038 67.0714 17.5226C67.0903 17.5414 67.1009 17.567 67.1009 17.5937C67.1009 17.6203 67.0903 17.6459 67.0714 17.6647C67.0526 17.6836 67.027 17.6942 67.0004 17.6942Z" fill="#CCCCCC"/>
<path d="M67.0004 21.1112H37.2516C37.225 21.1112 37.1994 21.1006 37.1806 21.0817C37.1617 21.0629 37.1511 21.0373 37.1511 21.0107C37.1511 20.984 37.1617 20.9584 37.1806 20.9396C37.1994 20.9207 37.225 20.9102 37.2516 20.9102H67.0004C67.027 20.9102 67.0526 20.9207 67.0714 20.9396C67.0903 20.9584 67.1009 20.984 67.1009 21.0107C67.1009 21.0373 67.0903 21.0629 67.0714 21.0817C67.0526 21.1006 67.027 21.1112 67.0004 21.1112Z" fill="#CCCCCC"/>
<path d="M67.0004 24.5282H37.2516C37.225 24.5282 37.1994 24.5176 37.1806 24.4987C37.1617 24.4799 37.1511 24.4543 37.1511 24.4277C37.1511 24.401 37.1617 24.3754 37.1806 24.3566C37.1994 24.3377 37.225 24.3271 37.2516 24.3271H67.0004C67.027 24.3271 67.0526 24.3377 67.0714 24.3566C67.0903 24.3754 67.1009 24.401 67.1009 24.4277C67.1009 24.4543 67.0903 24.4799 67.0714 24.4987C67.0526 24.5176 67.027 24.5282 67.0004 24.5282Z" fill="#CCCCCC"/>
<path d="M67.0004 27.9451H37.2516C37.225 27.9451 37.1994 27.9346 37.1806 27.9157C37.1617 27.8969 37.1511 27.8713 37.1511 27.8446C37.1511 27.818 37.1617 27.7924 37.1806 27.7736C37.1994 27.7547 37.225 27.7441 37.2516 27.7441H67.0004C67.027 27.7441 67.0526 27.7547 67.0714 27.7736C67.0903 27.7924 67.1009 27.818 67.1009 27.8446C67.1009 27.8713 67.0903 27.8969 67.0714 27.9157C67.0526 27.9346 67.027 27.9451 67.0004 27.9451Z" fill="#CCCCCC"/>
<path d="M42.8797 31.3621H39.9652C39.8319 31.362 39.7042 31.309 39.61 31.2148C39.5158 31.1206 39.4628 30.9929 39.4626 30.8596V28.1461C39.4628 28.0128 39.5158 27.8851 39.61 27.7909C39.7042 27.6967 39.8319 27.6437 39.9652 27.6436H42.8797C43.013 27.6437 43.1407 27.6967 43.2349 27.7909C43.3291 27.8851 43.3821 28.0128 43.3822 28.1461V30.8596C43.3821 30.9929 43.3291 31.1206 43.2349 31.2148C43.1407 31.309 43.013 31.362 42.8797 31.3621Z" fill="#6C63FF"/>
<path d="M49.4124 31.3622H46.4979C46.3646 31.3621 46.2369 31.3091 46.1427 31.2149C46.0485 31.1207 45.9955 30.993 45.9954 30.8597V24.7291C45.9955 24.5958 46.0485 24.4681 46.1427 24.3739C46.2369 24.2797 46.3646 24.2267 46.4979 24.2266H49.4124C49.5457 24.2267 49.6734 24.2797 49.7676 24.3739C49.8618 24.4681 49.9148 24.5958 49.915 24.7291V30.8597C49.9148 30.993 49.8618 31.1207 49.7676 31.2149C49.6734 31.3091 49.5457 31.3621 49.4124 31.3622Z" fill="#6C63FF"/>
<path d="M56.0456 31.3623H53.1311C52.9978 31.3622 52.8701 31.3092 52.7759 31.215C52.6817 31.1208 52.6287 30.993 52.6285 30.8598V21.3121C52.6287 21.1789 52.6817 21.0511 52.7759 20.9569C52.8701 20.8627 52.9978 20.8097 53.1311 20.8096H56.0456C56.1789 20.8097 56.3066 20.8627 56.4008 20.9569C56.495 21.0511 56.548 21.1789 56.5481 21.3121V30.8598C56.548 30.993 56.495 31.1208 56.4008 31.215C56.3066 31.3092 56.1789 31.3622 56.0456 31.3623Z" fill="#6C63FF"/>
<path d="M62.8797 31.3625H59.9652C59.8319 31.3624 59.7042 31.3094 59.61 31.2152C59.5158 31.121 59.4628 30.9932 59.4626 30.86V17.9957C59.4628 17.8624 59.5158 17.7347 59.61 17.6405C59.7042 17.5463 59.8319 17.4933 59.9652 17.4932H62.8797C63.013 17.4933 63.1407 17.5463 63.2349 17.6405C63.3291 17.7347 63.3821 17.8624 63.3822 17.9957V30.86C63.3821 30.9932 63.3291 31.121 63.2349 31.2152C63.1407 31.3094 63.013 31.3624 62.8797 31.3625Z" fill="#6C63FF"/>
<path d="M67.0004 31.3621H37.2516C37.225 31.3621 37.1994 31.3516 37.1806 31.3327C37.1617 31.3139 37.1511 31.2883 37.1511 31.2616C37.1511 31.235 37.1617 31.2094 37.1806 31.1906C37.1994 31.1717 37.225 31.1611 37.2516 31.1611H67.0004C67.027 31.1611 67.0526 31.1717 67.0714 31.1906C67.0903 31.2094 67.1009 31.235 67.1009 31.2616C67.1009 31.2883 67.0903 31.3139 67.0714 31.3327C67.0526 31.3516 67.027 31.3621 67.0004 31.3621Z" fill="#3F3D56"/>
<path d="M80.0705 50.1104C80.152 49.9871 80.2594 49.8832 80.3854 49.806C80.5113 49.7287 80.6527 49.68 80.7995 49.6633C80.9463 49.6466 81.095 49.6623 81.235 49.7093C81.3751 49.7562 81.5032 49.8334 81.6103 49.9352L84.8017 48.2881L84.6033 50.1438L81.603 51.4234C81.42 51.5919 81.1816 51.6875 80.9329 51.6919C80.6842 51.6964 80.4425 51.6094 80.2536 51.4476C80.0647 51.2858 79.9417 51.0602 79.908 50.8138C79.8742 50.5673 79.9321 50.3171 80.0705 50.1104Z" fill="#FFB8B8"/>
<path d="M82.8165 50.8031C82.744 50.7463 82.6906 50.6688 82.6633 50.5809L82.4095 49.7608C82.3822 49.672 82.3829 49.5769 82.4114 49.4884C82.4399 49.4 82.4949 49.3224 82.569 49.2662L85.1557 47.3124L87.9572 42.1152C88.0745 41.9641 88.2205 41.8375 88.3867 41.7428C88.553 41.6481 88.7363 41.587 88.9261 41.5632C89.1159 41.5393 89.3086 41.553 89.4931 41.6036C89.6777 41.6542 89.8504 41.7406 90.0016 41.8579C90.1527 41.9753 90.2792 42.1213 90.3739 42.2875C90.4686 42.4538 90.5297 42.637 90.5536 42.8269C90.5774 43.0167 90.5637 43.2094 90.5131 43.3939C90.4625 43.5784 90.3761 43.7512 90.2587 43.9023L88.6649 47.2662C88.1813 48.2872 87.3433 49.0978 86.3068 49.5472L83.2754 50.8621C83.2171 50.8873 83.1541 50.9 83.0906 50.8993C83.027 50.8987 82.9644 50.8846 82.9066 50.8581C82.8745 50.8434 82.8442 50.825 82.8165 50.8031Z" fill="#3F3D56"/>
<path d="M90.3292 39.9457C91.6924 39.9457 92.7976 38.8405 92.7976 37.4772C92.7976 36.114 91.6924 35.0088 90.3292 35.0088C88.9659 35.0088 87.8607 36.114 87.8607 37.4772C87.8607 38.8405 88.9659 39.9457 90.3292 39.9457Z" fill="#FFB8B8"/>
<path d="M89.3279 69.8591L88.0958 69.859L87.5098 65.1064L89.3284 65.1065L89.3279 69.8591Z" fill="#FFB8B8"/>
<path d="M87.2156 69.5068H89.5919V71.003H85.7195C85.7195 70.8065 85.7582 70.612 85.8334 70.4304C85.9086 70.2489 86.0188 70.084 86.1577 69.945C86.2966 69.8061 86.4616 69.6959 86.6431 69.6207C86.8246 69.5455 87.0192 69.5068 87.2156 69.5068Z" fill="#2F2E41"/>
<path d="M93.3479 69.8592L92.1158 69.8591L91.5298 65.1064L93.3484 65.1066L93.3479 69.8592Z" fill="#FFB8B8"/>
<path d="M91.2357 69.5068H93.6119V71.003H89.7395C89.7395 70.8065 89.7782 70.612 89.8534 70.4304C89.9286 70.2489 90.0388 70.084 90.1777 69.9451C90.3166 69.8061 90.4816 69.6959 90.6631 69.6207C90.8446 69.5455 91.0392 69.5068 91.2357 69.5068Z" fill="#2F2E41"/>
<path d="M93.438 68.6525L91.994 68.6524C91.8946 68.6523 91.798 68.6194 91.7191 68.559C91.6402 68.4985 91.5834 68.4138 91.5574 68.3178L89.479 60.6092C89.4758 60.5971 89.4682 60.5868 89.4578 60.58C89.4473 60.5733 89.4347 60.5707 89.4224 60.5727C89.4102 60.5747 89.3991 60.5811 89.3913 60.5909C89.3835 60.6006 89.3796 60.6128 89.3804 60.6252L89.8002 67.936C89.8039 68.0007 89.7937 68.0654 89.7703 68.1257C89.7468 68.1861 89.7107 68.2407 89.6643 68.2859C89.618 68.3311 89.5624 68.3658 89.5015 68.3876C89.4405 68.4095 89.3756 68.418 89.3111 68.4126L87.6882 68.2773C87.5842 68.2684 87.4865 68.2239 87.4115 68.1513C87.3365 68.0787 87.2888 67.9825 87.2765 67.8789L85.7981 52.5277L86.3701 52.8709L91.7298 51.9609L93.8863 68.1405C93.8948 68.2043 93.8896 68.2693 93.8709 68.331C93.8523 68.3927 93.8207 68.4497 93.7782 68.4981C93.7358 68.5466 93.6835 68.5855 93.6248 68.6121C93.5661 68.6387 93.5024 68.6525 93.438 68.6525Z" fill="#2F2E41"/>
<path d="M87.5906 54.1484C86.9993 54.1437 86.42 53.9806 85.9131 53.6762C85.8349 53.63 85.7726 53.5612 85.7343 53.4789C85.696 53.3966 85.6835 53.3046 85.6984 53.215C85.8868 52.0606 86.8726 46.1389 87.7695 42.9106C88.1348 41.5957 88.9425 40.8875 90.1702 40.8057C91.966 40.6879 93.5621 42.0929 93.7283 43.9414C94.0216 47.2025 92.8305 51.8359 92.3049 53.6766C92.2845 53.7477 92.247 53.8127 92.1956 53.8659C92.1442 53.9191 92.0806 53.9589 92.0103 53.9818C91.94 54.0047 91.8651 54.01 91.7923 53.9972C91.7194 53.9844 91.6509 53.9539 91.5925 53.9084L90.521 53.0749C90.4551 53.0245 90.3736 52.9988 90.2907 53.0023C90.2078 53.0057 90.1287 53.0381 90.0672 53.0938C89.164 53.8994 88.3061 54.1484 87.5906 54.1484Z" fill="#3F3D56"/>
<path opacity="0.2" d="M91.1344 45.5371L92.0388 49.3563L90.7321 52.5723L91.6368 49.4568L91.1344 45.5371Z" fill="black"/>
<path d="M91.7377 39.5074C91.9573 39.5114 92.1755 39.472 92.3798 39.3912C92.4696 39.3566 92.5629 39.3282 92.6526 39.2935C93.4447 38.9875 93.9666 38.1439 93.9853 37.2949C94.004 36.4459 93.5644 35.6219 92.9116 35.0788C92.2587 34.5357 91.4131 34.2569 90.5664 34.1924C89.6543 34.1229 88.6273 34.3541 88.1176 35.1137C87.9819 35.3159 87.887 35.5612 87.9674 35.8053C87.9915 35.879 88.0345 35.945 88.0921 35.9969C88.3197 36.1994 88.5466 36.0471 88.7786 36.0337C89.0976 36.0152 89.384 36.2734 89.4869 36.5758C89.5899 36.8782 89.5445 37.2111 89.4614 37.5196C89.3981 37.7052 89.3581 37.898 89.3425 38.0934C89.3358 38.1915 89.3542 38.2896 89.3961 38.3785C89.4379 38.4674 89.5017 38.5441 89.5815 38.6015C89.7808 38.7219 90.0425 38.6522 90.2419 38.532C90.4414 38.4117 90.6137 38.2445 90.8291 38.156C91.0445 38.0675 91.3338 38.0872 91.4592 38.2834C91.499 38.3548 91.526 38.4327 91.5388 38.5134C91.6512 39.0255 91.6254 38.9953 91.7377 39.5074Z" fill="#2F2E41"/>
<path d="M87.9116 66.4107L72.4548 61.0277C72.1895 60.935 71.9719 60.7408 71.8496 60.4879C71.7274 60.2349 71.7104 59.9438 71.8025 59.6784L75.8192 48.1448C75.8871 47.9505 76.0293 47.7911 76.2146 47.7015C76.3999 47.6119 76.6132 47.5995 76.8077 47.667L92.7871 53.2319C92.9848 53.301 93.147 53.4457 93.2381 53.6342C93.3292 53.8228 93.3418 54.0397 93.2732 54.2376L89.261 65.7584C89.1683 66.0236 88.9741 66.2413 88.7212 66.3635C88.4682 66.4858 88.1771 66.5028 87.9116 66.4107Z" fill="#E6E6E6"/>
<path d="M73.7738 60.365L87.2897 65.0721C87.5471 65.1617 87.8295 65.1454 88.0749 65.0268C88.3203 64.9082 88.5085 64.697 88.5982 64.4396L91.8416 55.1264C91.9312 54.869 91.9149 54.5865 91.7963 54.3412C91.6777 54.0958 91.4665 53.9076 91.2091 53.8179L77.6931 49.1109C77.4357 49.0212 77.1533 49.0375 76.9079 49.1561C76.6625 49.2748 76.4743 49.486 76.3847 49.7434L73.1413 59.0566C73.0969 59.184 73.078 59.319 73.0858 59.4537C73.0936 59.5884 73.1278 59.7203 73.1865 59.8418C73.2453 59.9633 73.3274 60.072 73.4281 60.1618C73.5289 60.2516 73.6463 60.3206 73.7738 60.365Z" fill="white"/>
<path d="M77.1679 53.822L76.4985 53.5889C76.4622 53.5762 76.4324 53.5497 76.4157 53.5151C76.399 53.4805 76.3967 53.4406 76.4093 53.4043L76.6424 52.735C76.6551 52.6987 76.6816 52.6689 76.7162 52.6522C76.7508 52.6354 76.7907 52.6331 76.827 52.6457L77.4964 52.8788C77.5326 52.8915 77.5624 52.9181 77.5791 52.9527C77.5959 52.9873 77.5982 53.0271 77.5856 53.0634L77.3525 53.7328C77.3398 53.7691 77.3132 53.7989 77.2786 53.8156C77.244 53.8323 77.2042 53.8346 77.1679 53.822Z" fill="#6C63FF"/>
<path d="M76.5639 55.5564L75.8945 55.3233C75.8582 55.3106 75.8284 55.2841 75.8117 55.2495C75.795 55.2148 75.7927 55.175 75.8053 55.1387L76.0384 54.4693C76.0511 54.433 76.0776 54.4033 76.1122 54.3865C76.1468 54.3698 76.1867 54.3675 76.223 54.3801L76.8924 54.6132C76.9286 54.6259 76.9584 54.6525 76.9751 54.6871C76.9919 54.7217 76.9942 54.7615 76.9816 54.7978L76.7485 55.4672C76.7358 55.5035 76.7092 55.5332 76.6746 55.55C76.64 55.5667 76.6002 55.569 76.5639 55.5564Z" fill="#3F3D56"/>
<path d="M75.9599 57.2908L75.2905 57.0577C75.2542 57.045 75.2244 57.0184 75.2077 56.9838C75.191 56.9492 75.1887 56.9094 75.2013 56.8731L75.4344 56.2037C75.4471 56.1674 75.4736 56.1376 75.5082 56.1209C75.5428 56.1042 75.5827 56.1019 75.619 56.1145L76.2883 56.3476C76.3246 56.3603 76.3544 56.3868 76.3711 56.4214C76.3879 56.456 76.3902 56.4959 76.3776 56.5322L76.1445 57.2016C76.1318 57.2378 76.1052 57.2676 76.0706 57.2843C76.036 57.3011 75.9962 57.3034 75.9599 57.2908Z" fill="#CCCCCC"/>
<path d="M81.6657 55.0126L78.4406 53.8895C78.4225 53.8832 78.4059 53.8735 78.3916 53.8608C78.3774 53.8482 78.3658 53.8328 78.3574 53.8157C78.3491 53.7985 78.3443 53.7799 78.3431 53.7608C78.342 53.7418 78.3447 53.7227 78.351 53.7047C78.3572 53.6867 78.367 53.6701 78.3797 53.6559C78.3924 53.6417 78.4078 53.6301 78.425 53.6218C78.4421 53.6135 78.4608 53.6087 78.4798 53.6076C78.4989 53.6066 78.5179 53.6093 78.5359 53.6156L81.7611 54.7388C81.7791 54.745 81.7957 54.7548 81.81 54.7674C81.8243 54.7801 81.8359 54.7954 81.8442 54.8126C81.8525 54.8297 81.8574 54.8484 81.8585 54.8674C81.8596 54.8865 81.857 54.9055 81.8507 54.9235C81.8444 54.9415 81.8346 54.9581 81.8219 54.9724C81.8093 54.9866 81.7939 54.9982 81.7767 55.0065C81.7595 55.0147 81.7409 55.0195 81.7218 55.0206C81.7028 55.0217 81.6837 55.019 81.6657 55.0126Z" fill="#CCCCCC"/>
<path d="M81.0617 56.7469L77.8366 55.6237C77.8002 55.6111 77.7704 55.5845 77.7537 55.5499C77.737 55.5153 77.7347 55.4754 77.7473 55.4391C77.76 55.4028 77.7865 55.373 77.8211 55.3562C77.8558 55.3395 77.8956 55.3372 77.9319 55.3499L81.1571 56.4731C81.1751 56.4793 81.1917 56.489 81.206 56.5017C81.2202 56.5143 81.2318 56.5297 81.2402 56.5468C81.2485 56.564 81.2533 56.5826 81.2544 56.6017C81.2555 56.6207 81.2529 56.6398 81.2466 56.6578C81.2403 56.6758 81.2306 56.6924 81.2179 56.7066C81.2052 56.7208 81.1898 56.7324 81.1727 56.7407C81.1555 56.749 81.1368 56.7538 81.1178 56.7548C81.0988 56.7559 81.0797 56.7532 81.0617 56.7469Z" fill="#CCCCCC"/>
<path d="M80.4578 58.4813L77.2327 57.3581C77.1964 57.3454 77.1666 57.3189 77.1498 57.2843C77.1331 57.2496 77.1308 57.2098 77.1434 57.1735C77.1561 57.1372 77.1826 57.1074 77.2173 57.0906C77.2519 57.0739 77.2917 57.0716 77.328 57.0842L80.5532 58.2074C80.5895 58.2201 80.6193 58.2466 80.6361 58.2813C80.6528 58.3159 80.6551 58.3557 80.6424 58.392C80.6298 58.4283 80.6032 58.4581 80.5686 58.4749C80.534 58.4916 80.4942 58.4939 80.4578 58.4813Z" fill="#CCCCCC"/>
<path d="M89.0406 59.4214C89.0641 59.3651 89.0862 59.3078 89.1066 59.2494C89.3717 58.4882 89.3235 57.6529 88.9727 56.9272C88.622 56.2016 87.9973 55.645 87.2361 55.3799L86.176 58.4238L89.0406 59.4214Z" fill="#6C63FF"/>
<path d="M85.8678 58.6085L86.9278 55.5646C86.3676 55.3695 85.7625 55.3426 85.1872 55.4872C84.6119 55.6319 84.0915 55.9417 83.6902 56.3786C83.2888 56.8155 83.0241 57.3603 82.9287 57.9458C82.8333 58.5313 82.9113 59.1319 83.1532 59.6736C83.3951 60.2153 83.7902 60.6743 84.2898 60.9941C84.7894 61.314 85.3718 61.4806 85.9649 61.4734C86.5581 61.4662 87.1362 61.2856 87.628 60.9538C88.1198 60.622 88.5037 60.1535 88.7323 59.6062L85.8678 58.6085Z" fill="#3F3D56"/>
<path d="M89.6628 54.2423C89.6508 54.0951 89.6712 53.947 89.7226 53.8085C89.7741 53.67 89.8553 53.5444 89.9605 53.4407C90.0657 53.3369 90.1923 53.2575 90.3315 53.208C90.4708 53.1586 90.6191 53.1402 90.7662 53.1542L92.261 49.8887L93.25 51.4714L91.6789 54.3298C91.6389 54.5753 91.5103 54.7976 91.3173 54.9546C91.1244 55.1116 90.8805 55.1923 90.632 55.1816C90.3835 55.1708 90.1475 55.0692 89.9689 54.8961C89.7903 54.723 89.6813 54.4904 89.6628 54.2423Z" fill="#FFB8B8"/>
<path d="M92.2507 53.0926C92.1586 53.0926 92.0687 53.0646 91.993 53.0122L91.2872 52.5236C91.2109 52.4705 91.1528 52.3953 91.1206 52.3081C91.0885 52.2209 91.0839 52.1259 91.1075 52.036L91.9371 48.9023L90.9342 43.0839C90.9331 42.8924 90.9697 42.7026 91.0419 42.5253C91.1142 42.348 91.2207 42.1866 91.3553 42.0505C91.49 41.9144 91.6502 41.8061 91.8267 41.7319C92.0032 41.6578 92.1926 41.6191 92.3841 41.6182C92.5756 41.6173 92.7653 41.6541 92.9426 41.7266C93.1198 41.799 93.281 41.9057 93.417 42.0405C93.5529 42.1753 93.661 42.3356 93.735 42.5123C93.8089 42.6889 93.8474 42.8783 93.8481 43.0698L94.6699 46.7003C94.9194 47.8021 94.7603 48.9571 94.222 49.9504L92.6481 52.8558C92.6178 52.9116 92.5761 52.9605 92.5257 52.9991C92.4753 53.0378 92.4173 53.0654 92.3555 53.0802C92.3212 53.0885 92.286 53.0926 92.2507 53.0926Z" fill="#3F3D56"/>
<path d="M99.8995 71.0594H80.804C80.7773 71.0594 80.7518 71.0488 80.7329 71.03C80.7141 71.0111 80.7035 70.9856 80.7035 70.9589C80.7035 70.9322 80.7141 70.9067 80.7329 70.8878C80.7518 70.869 80.7773 70.8584 80.804 70.8584H99.8995C99.9261 70.8584 99.9517 70.869 99.9705 70.8878C99.9894 70.9067 100 70.9322 100 70.9589C100 70.9856 99.9894 71.0111 99.9705 71.03C99.9517 71.0488 99.9261 71.0594 99.8995 71.0594Z" fill="#CCCCCC"/>
<path d="M49.3006 69.8082L50.5328 69.8081L51.1189 65.0557H49.3004L49.3006 69.8082Z" fill="#A0616A"/>
<path d="M48.9863 69.4063L51.4128 69.4063C51.6159 69.4062 51.8171 69.4462 52.0047 69.5239C52.1923 69.6017 52.3628 69.7156 52.5064 69.8591C52.65 70.0027 52.7639 70.1732 52.8416 70.3608C52.9193 70.5484 52.9593 70.7495 52.9593 70.9526V71.0029L48.9864 71.003L48.9863 69.4063Z" fill="#2F2E41"/>
<path d="M44.3759 69.8082L45.6081 69.8081L46.1942 65.0557H44.3757L44.3759 69.8082Z" fill="#A0616A"/>
<path d="M44.0618 69.4063L46.4883 69.4063C46.6914 69.4062 46.8925 69.4462 47.0802 69.5239C47.2678 69.6017 47.4382 69.7156 47.5818 69.8591C47.7254 70.0027 47.8393 70.1732 47.9171 70.3608C47.9948 70.5484 48.0348 70.7495 48.0348 70.9526V71.0029L44.0618 71.003L44.0618 69.4063Z" fill="#2F2E41"/>
<path d="M49.5466 36.9056C50.9099 36.9056 52.015 35.8005 52.015 34.4372C52.015 33.0739 50.9099 31.9688 49.5466 31.9688C48.1833 31.9688 47.0781 33.0739 47.0781 34.4372C47.0781 35.8005 48.1833 36.9056 49.5466 36.9056Z" fill="#A0616A"/>
<path d="M51.2065 68.7834H48.92C48.8602 68.7834 48.8009 68.7715 48.7457 68.7485C48.6905 68.7254 48.6404 68.6916 48.5983 68.649C48.5563 68.6064 48.5231 68.5559 48.5007 68.5004C48.4783 68.4449 48.4671 68.3855 48.4678 68.3257L48.6007 57.4682C48.6012 57.4297 48.5869 57.3924 48.5607 57.3641C48.5345 57.3357 48.4985 57.3185 48.46 57.3159C48.4215 57.3134 48.3835 57.3256 48.3538 57.3502C48.3241 57.3748 48.305 57.4098 48.3003 57.4481L46.9696 68.3858C46.9561 68.4955 46.9031 68.5964 46.8204 68.6696C46.7377 68.7429 46.6311 68.7833 46.5206 68.7834H44.2122C44.1498 68.7834 44.0881 68.7705 44.031 68.7456C43.9738 68.7206 43.9225 68.684 43.8801 68.6383C43.8378 68.5925 43.8054 68.5384 43.7849 68.4795C43.7644 68.4206 43.7564 68.3581 43.7613 68.2959L45.2856 48.7909L45.3271 48.7864L52.6265 47.998L51.6583 68.3527C51.6529 68.4688 51.6029 68.5784 51.5188 68.6586C51.4347 68.7389 51.3228 68.7836 51.2065 68.7834Z" fill="#2F2E41"/>
<path d="M45.3744 49.9878C45.2572 49.9875 45.1446 49.9417 45.0605 49.86C44.9764 49.7782 44.9274 49.667 44.9238 49.5498C44.8839 48.3165 44.8156 44.049 45.6094 40.9161C45.826 40.0602 46.3123 39.2968 46.9963 38.7387C47.6803 38.1805 48.5258 37.8573 49.4077 37.8167C50.2757 37.7693 51.1366 37.9964 51.8683 38.4659C52.6 38.9354 53.1652 39.6233 53.4839 40.4321C54.8181 43.8194 56.0787 47.9945 54.5071 48.6494C52.4473 49.5076 47.0173 49.8902 45.4022 49.9869C45.3929 49.9875 45.3836 49.9878 45.3744 49.9878Z" fill="#3F3D56"/>
<path d="M54.8088 31.9429C54.8475 31.9828 54.8894 32.0195 54.934 32.0528L54.6749 37.0303L53.597 37.5821L54.2172 39.3176L56.2202 38.5261C56.382 38.4622 56.5187 38.3475 56.6098 38.1992C56.7009 38.051 56.7414 37.8772 56.7253 37.704L56.2006 32.0578C56.3723 31.9297 56.5009 31.7523 56.5694 31.5493C56.6378 31.3463 56.6429 31.1273 56.5838 30.9213C56.5247 30.7154 56.4044 30.5323 56.2387 30.3965C56.0731 30.2606 55.87 30.1784 55.6565 30.1608C55.4429 30.1432 55.2291 30.191 55.0435 30.2979C54.8578 30.4047 54.709 30.5656 54.617 30.759C54.525 30.9525 54.494 31.1694 54.5283 31.3809C54.5625 31.5924 54.6604 31.7884 54.8088 31.9429Z" fill="#A0616A"/>
<path d="M54.6953 37.2152L55.4535 39.3699C55.475 39.4312 55.4832 39.4964 55.4772 39.5611C55.4713 39.6259 55.4515 39.6886 55.4192 39.7449C55.3869 39.8013 55.3428 39.8501 55.2899 39.8879C55.2371 39.9257 55.1767 39.9516 55.1129 39.964L52.8771 40.397C52.5628 40.5056 52.2183 40.4851 51.9191 40.3401C51.6198 40.1951 51.3903 39.9373 51.2808 39.6233C51.1713 39.3093 51.1909 38.9647 51.3351 38.6651C51.4794 38.3654 51.7365 38.1352 52.0502 38.0249L54.0577 36.9653C54.1151 36.935 54.1785 36.9174 54.2434 36.9138C54.3083 36.9102 54.3732 36.9206 54.4337 36.9443C54.4942 36.968 54.5489 37.0045 54.594 37.0512C54.6392 37.098 54.6737 37.1539 54.6953 37.2152Z" fill="#3F3D56"/>
<path d="M44.1167 31.9429C44.0779 31.9828 44.036 32.0195 43.9914 32.0528L44.2506 37.0303L45.3284 37.5821L44.7082 39.3176L42.7052 38.5261C42.5434 38.4622 42.4067 38.3475 42.3156 38.1992C42.2245 38.051 42.184 37.8772 42.2001 37.704L42.7248 32.0578C42.5531 31.9297 42.4245 31.7523 42.356 31.5493C42.2876 31.3463 42.2826 31.1273 42.3416 30.9213C42.4007 30.7154 42.5211 30.5323 42.6867 30.3965C42.8524 30.2606 43.0555 30.1784 43.269 30.1608C43.4825 30.1432 43.6963 30.191 43.882 30.2979C44.0677 30.4047 44.2164 30.5656 44.3084 30.759C44.4004 30.9525 44.4314 31.1694 44.3971 31.3809C44.3629 31.5924 44.265 31.7884 44.1167 31.9429Z" fill="#A0616A"/>
<path d="M44.4916 36.9443C44.5521 36.9206 44.617 36.9102 44.6819 36.9138C44.7468 36.9174 44.8102 36.935 44.8676 36.9654L46.875 38.025C47.1888 38.1353 47.4459 38.3655 47.5902 38.6651C47.7344 38.9647 47.7539 39.3093 47.6445 39.6233C47.535 39.9373 47.3055 40.1951 47.0062 40.3402C46.707 40.4852 46.3624 40.5056 46.0481 40.397L43.8124 39.9641C43.7486 39.9517 43.6882 39.9257 43.6354 39.8879C43.5825 39.8501 43.5384 39.8014 43.5061 39.745C43.4737 39.6886 43.454 39.6259 43.448 39.5612C43.4421 39.4965 43.4502 39.4312 43.4718 39.3699L44.23 37.2153C44.2516 37.1539 44.2861 37.098 44.3312 37.0512C44.3764 37.0045 44.4311 36.968 44.4916 36.9443Z" fill="#3F3D56"/>
<path d="M50.5053 34.8587C50.4923 34.5438 50.5713 34.232 50.7327 33.9613C50.894 33.6906 51.1307 33.4727 51.4139 33.3343C52.1642 32.947 52.6356 32.1207 52.429 31.3663C52.1646 30.4006 50.8503 29.7742 49.7853 30.1065C49.4971 30.2088 49.2191 30.338 48.9551 30.4924L48.2593 30.8653C47.962 31.0141 47.6755 31.1833 47.4016 31.3716C46.9913 31.674 46.6698 32.0809 46.4706 32.5499C46.2713 33.0189 46.2017 33.5328 46.2689 34.038C46.4059 35.0198 47.0489 35.9201 47.929 36.5366C48.2655 36.7881 48.6543 36.9609 49.0665 37.0422C49.4884 37.1118 49.958 37.0327 50.2665 36.7704C50.7485 36.3604 50.6987 35.6738 50.5428 35.1004C50.5222 35.0213 50.5096 34.9403 50.5053 34.8587Z" fill="#2F2E41"/>
<path d="M58.8945 71.0594H39.799C39.7723 71.0594 39.7468 71.0488 39.7279 71.03C39.7091 71.0111 39.6985 70.9856 39.6985 70.9589C39.6985 70.9322 39.7091 70.9067 39.7279 70.8878C39.7468 70.869 39.7723 70.8584 39.799 70.8584H58.8945C58.9211 70.8584 58.9467 70.869 58.9655 70.8878C58.9844 70.9067 58.995 70.9322 58.995 70.9589C58.995 70.9856 58.9844 71.0111 58.9655 71.03C58.9467 71.0488 58.9211 71.0594 58.8945 71.0594Z" fill="#CCCCCC"/>
<path d="M27.7296 52.7247L11.9731 59.1888C11.7025 59.2994 11.399 59.2982 11.1293 59.1854C10.8596 59.0726 10.6456 58.8575 10.5344 58.5871L5.71106 46.83C5.62998 46.6318 5.63086 46.4095 5.71349 46.2119C5.79612 46.0143 5.95376 45.8575 6.15182 45.776L22.441 39.0934C22.6427 39.011 22.8688 39.0119 23.0698 39.0959C23.2708 39.18 23.4303 39.3404 23.5132 39.5419L28.3312 51.286C28.4419 51.5566 28.4407 51.8601 28.3279 52.1298C28.2151 52.3995 27.9999 52.6135 27.7296 52.7247Z" fill="#E6E6E6"/>
<path d="M12.5439 57.7623L26.3218 52.1099C26.5842 52.0023 26.7931 51.7948 26.9025 51.5332C27.0119 51.2716 27.0129 50.9772 26.9052 50.7148L23.0105 41.2211C22.9572 41.0911 22.8788 40.973 22.7798 40.8734C22.6809 40.7737 22.5633 40.6946 22.4337 40.6404C22.3042 40.5862 22.1652 40.5581 22.0248 40.5576C21.8844 40.5571 21.7453 40.5843 21.6153 40.6376L7.83739 46.29C7.70747 46.3433 7.58933 46.4217 7.4897 46.5206C7.39007 46.6196 7.31091 46.7372 7.25674 46.8667C7.20256 46.9963 7.17443 47.1352 7.17396 47.2756C7.17348 47.4161 7.20067 47.5552 7.25396 47.6851L11.1487 57.1789C11.202 57.3088 11.2804 57.4269 11.3794 57.5266C11.4783 57.6262 11.5959 57.7053 11.7255 57.7595C11.855 57.8137 11.994 57.8418 12.1344 57.8423C12.2748 57.8428 12.414 57.8156 12.5439 57.7623Z" fill="white"/>
<path d="M22.9344 43.8105L22.7318 43.8936L22.7457 43.9273L22.9482 43.8442L22.9344 43.8105Z" fill="#E6E6E6"/>
<path d="M22.3364 44.0953L21.9272 44.2632L21.9134 44.2294L22.3226 44.0615L22.3364 44.0953ZM21.518 44.431L21.1088 44.5989L21.0949 44.5652L21.5042 44.3973L21.518 44.431ZM20.6996 44.7668L20.2903 44.9347L20.2765 44.9009L20.6857 44.7331L20.6996 44.7668ZM19.8811 45.1026L19.4719 45.2705L19.458 45.2367L19.8673 45.0688L19.8811 45.1026ZM19.0627 45.4383L18.6535 45.6062L18.6396 45.5725L19.0488 45.4046L19.0627 45.4383ZM18.2442 45.7741L17.835 45.942L17.8212 45.9082L18.2304 45.7403L18.2442 45.7741ZM17.4258 46.1099L17.0166 46.2778L17.0027 46.244L17.4119 46.0761L17.4258 46.1099ZM16.6073 46.4456L16.1981 46.6135L16.1843 46.5798L16.5935 46.4119L16.6073 46.4456ZM15.7889 46.7814L15.3797 46.9493L15.3658 46.9155L15.7751 46.7476L15.7889 46.7814ZM14.9705 47.1172L14.5612 47.285L14.5474 47.2513L14.9566 47.0834L14.9705 47.1172ZM14.152 47.4529L13.7428 47.6208L13.7289 47.587L14.1382 47.4192L14.152 47.4529ZM13.3336 47.7887L12.9243 47.9566L12.9105 47.9228L13.3197 47.7549L13.3336 47.7887ZM12.5151 48.1245L12.1059 48.2923L12.0921 48.2586L12.5013 48.0907L12.5151 48.1245ZM11.6967 48.4602L11.2875 48.6281L11.2736 48.5943L11.6828 48.4265L11.6967 48.4602ZM10.8782 48.796L10.469 48.9639L10.4552 48.9301L10.8644 48.7622L10.8782 48.796ZM10.0598 49.1317L9.65057 49.2996L9.63672 49.2659L10.0459 49.098L10.0598 49.1317Z" fill="#E6E6E6"/>
<path d="M9.22747 49.4335L9.0249 49.5166L9.03875 49.5504L9.24132 49.4673L9.22747 49.4335Z" fill="#E6E6E6"/>
<path d="M17.5716 49.6786L17.369 49.7617L17.3829 49.7955L17.5854 49.7124L17.5716 49.6786Z" fill="#E6E6E6"/>
<path d="M16.9797 49.9615L16.5766 50.1269L16.5627 50.0931L16.9659 49.9277L16.9797 49.9615ZM16.1734 50.2923L15.7703 50.4577L15.7564 50.4239L16.1596 50.2585L16.1734 50.2923ZM15.3671 50.623L14.964 50.7884L14.9501 50.7547L15.3533 50.5893L15.3671 50.623ZM14.5608 50.9538L14.1577 51.1192L14.1439 51.0855L14.547 50.9201L14.5608 50.9538ZM13.7546 51.2846L13.3514 51.45L13.3376 51.4162L13.7407 51.2508L13.7546 51.2846ZM12.9483 51.6154L12.5451 51.7808L12.5313 51.747L12.9344 51.5816L12.9483 51.6154ZM12.142 51.9462L11.7388 52.1116L11.725 52.0778L12.1281 51.9124L12.142 51.9462ZM11.3357 52.2769L10.9326 52.4423L10.9187 52.4086L11.3218 52.2432L11.3357 52.2769Z" fill="#E6E6E6"/>
<path d="M10.5156 52.5731L10.313 52.6562L10.3268 52.69L10.5294 52.6069L10.5156 52.5731Z" fill="#E6E6E6"/>
<path d="M14.2309 52.7851L14.0283 52.8682L14.0422 52.9019L14.2447 52.8188L14.2309 52.7851Z" fill="#E6E6E6"/>
<path d="M13.6274 53.0718L13.2126 53.242L13.1988 53.2082L13.6135 53.0381L13.6274 53.0718ZM12.7978 53.4122L12.3831 53.5823L12.3692 53.5486L12.784 53.3784L12.7978 53.4122ZM11.9683 53.7525L11.5535 53.9226L11.5397 53.8889L11.9544 53.7187L11.9683 53.7525Z" fill="#E6E6E6"/>
<path d="M11.1249 54.0595L10.9224 54.1426L10.9362 54.1763L11.1388 54.0932L11.1249 54.0595Z" fill="#E6E6E6"/>
<path d="M15.2709 55.3202L15.0684 55.4033L15.0822 55.4371L15.2848 55.354L15.2709 55.3202Z" fill="#E6E6E6"/>
<path d="M14.6674 55.607L14.2527 55.7772L14.2388 55.7434L14.6536 55.5732L14.6674 55.607ZM13.8379 55.9473L13.4231 56.1175L13.4093 56.0837L13.824 55.9136L13.8379 55.9473ZM13.0083 56.2876L12.5936 56.4578L12.5797 56.424L12.9945 56.2539L13.0083 56.2876Z" fill="#E6E6E6"/>
<path d="M12.165 56.5937L11.9624 56.6768L11.9763 56.7105L12.1788 56.6274L12.165 56.5937Z" fill="#E6E6E6"/>
<path d="M13.1289 56.2687L24.8048 51.4787C25.0874 51.3624 25.3123 51.1388 25.4302 50.8569C25.5481 50.5749 25.5493 50.2578 25.4337 49.9749L23.0746 44.2246L23.0518 44.2347L20.1865 51.0857L18.0614 50.1973C18.0222 50.1807 17.9797 50.1735 17.9373 50.1762C17.8948 50.1788 17.8535 50.1913 17.8167 50.2125C17.7613 50.2458 17.7185 50.2965 17.6949 50.3565L16.1932 53.9467L14.6395 53.2972C14.6059 53.2831 14.57 53.2758 14.5336 53.2757C14.4973 53.2756 14.4613 53.2826 14.4276 53.2964C14.394 53.3102 14.3634 53.3305 14.3377 53.3561C14.3119 53.3817 14.2914 53.4122 14.2774 53.4457C14.2674 53.4701 13.3094 55.8206 13.1289 56.2687Z" fill="#6C63FF"/>
<path d="M13.093 56.3226L13.0593 56.3085L14.2608 53.4355C14.2926 53.3597 14.3532 53.2995 14.4293 53.2683C14.5054 53.2371 14.5907 53.2374 14.6666 53.269L16.1897 53.9059L17.6828 50.3356C17.7146 50.2598 17.7752 50.1996 17.8512 50.1684C17.9273 50.1372 18.0127 50.1375 18.0886 50.1691L20.183 51.045L23.063 44.1582L23.0966 44.1723L20.2026 51.0927L18.0745 50.2028C18.0413 50.1889 18.0058 50.1817 17.9698 50.1816C17.9339 50.1815 17.8983 50.1884 17.865 50.2021C17.8318 50.2157 17.8015 50.2358 17.776 50.2611C17.7506 50.2864 17.7303 50.3165 17.7164 50.3497L16.2093 53.9537L14.6525 53.3027C14.5856 53.2748 14.5103 53.2746 14.4431 53.3021C14.376 53.3296 14.3225 53.3827 14.2945 53.4496L13.093 56.3226Z" fill="#3F3D56"/>
<path d="M14.2379 53.0568C14.3789 53.0568 14.4933 52.9424 14.4933 52.8013C14.4933 52.6603 14.3789 52.5459 14.2379 52.5459C14.0968 52.5459 13.9824 52.6603 13.9824 52.8013C13.9824 52.9424 14.0968 53.0568 14.2379 53.0568Z" fill="#3F3D56"/>
<path d="M17.5784 49.9513C17.7195 49.9513 17.8339 49.8369 17.8339 49.6959C17.8339 49.5548 17.7195 49.4404 17.5784 49.4404C17.4374 49.4404 17.323 49.5548 17.323 49.6959C17.323 49.8369 17.4374 49.9513 17.5784 49.9513Z" fill="#3F3D56"/>
<path d="M22.7801 44.0734C22.9212 44.0734 23.0355 43.959 23.0355 43.8179C23.0355 43.6769 22.9212 43.5625 22.7801 43.5625C22.639 43.5625 22.5247 43.6769 22.5247 43.8179C22.5247 43.959 22.639 44.0734 22.7801 44.0734Z" fill="#3F3D56"/>
<path d="M8.4825 52.5114C8.61529 52.4453 8.73198 52.3509 8.82434 52.2349C8.9167 52.1188 8.9825 51.9839 9.01709 51.8397C9.05168 51.6954 9.05422 51.5454 9.02454 51.4001C8.99486 51.2547 8.93368 51.1177 8.8453 50.9986L9.60396 43.5811H7.96443L7.36151 50.8239C7.17124 50.9856 7.0469 51.2115 7.01206 51.4588C6.97721 51.7061 7.03429 51.9575 7.17246 52.1655C7.31064 52.3736 7.52032 52.5236 7.76177 52.5874C8.00321 52.6511 8.25966 52.6241 8.4825 52.5114Z" fill="#FFB8B8"/>
<path d="M9.98794 39.4878C11.269 39.4878 12.3075 38.4493 12.3075 37.1682C12.3075 35.8872 11.269 34.8486 9.98794 34.8486C8.70686 34.8486 7.66833 35.8872 7.66833 37.1682C7.66833 38.4493 8.70686 39.4878 9.98794 39.4878Z" fill="#FFB8B8"/>
<path d="M10.4245 47.9011C10.3317 47.901 10.2414 47.8706 10.1676 47.8143C10.0937 47.758 10.0403 47.679 10.0157 47.5895C9.82985 46.9143 9.34633 45.7727 8.57862 44.1962C8.40539 43.8399 8.30947 43.4509 8.29714 43.0549C8.28481 42.6588 8.35635 42.2647 8.50707 41.8982C8.6578 41.5318 8.88429 41.2013 9.17171 40.9286C9.45912 40.6558 9.80095 40.4469 10.1748 40.3156C10.529 40.1905 10.9048 40.1377 11.2798 40.1604C11.6548 40.1831 12.0215 40.2807 12.3581 40.4476C12.6947 40.6145 12.9944 40.8472 13.2395 41.1319C13.4846 41.4166 13.6701 41.7476 13.785 42.1053C14.3801 43.9709 14.3513 45.9693 14.3114 46.7418C14.3064 46.8349 14.2711 46.9237 14.2108 46.9948C14.1505 47.0658 14.0686 47.1152 13.9776 47.1352L10.5157 47.8912C10.4857 47.8978 10.4552 47.9011 10.4245 47.9011Z" fill="#FF6584"/>
<path d="M13.7771 69.9279H14.9348L15.4857 65.4619L13.7769 65.462L13.7771 69.9279Z" fill="#FFB8B8"/>
<path d="M17.168 71.0029L13.529 71.0031L13.529 69.5971L15.762 69.597C15.9466 69.597 16.1294 69.6334 16.3 69.704C16.4706 69.7747 16.6256 69.8782 16.7561 70.0088C16.8867 70.1393 16.9903 70.2943 17.0609 70.4649C17.1316 70.6355 17.168 70.8183 17.168 71.0029Z" fill="#2F2E41"/>
<path d="M2.19922 68.4272L3.21389 68.985L5.84826 65.337L4.35088 64.5137L2.19922 68.4272Z" fill="#FFB8B8"/>
<path d="M4.65271 71.0029L1.46391 69.2498L2.14126 68.0178L4.09802 69.0936C4.42477 69.2732 4.66678 69.5753 4.77081 69.9334C4.87483 70.2914 4.83235 70.6762 4.65271 71.0029Z" fill="#2F2E41"/>
<path d="M13.723 67.4486C13.6198 67.4485 13.5202 67.4109 13.4428 67.3428C13.3653 67.2746 13.3152 67.1806 13.302 67.0783L11.854 55.9201C11.8476 55.8707 11.8257 55.8247 11.7916 55.7884C11.7574 55.7522 11.7127 55.7277 11.6638 55.7185C11.6149 55.7092 11.5643 55.7156 11.5193 55.7368C11.4743 55.758 11.4371 55.7928 11.413 55.8364L5.3783 66.7852C5.32851 66.8746 5.24829 66.9432 5.15222 66.9784C5.05616 67.0137 4.95064 67.0133 4.85483 66.9773L3.53944 66.4761C3.48653 66.456 3.43818 66.4255 3.39724 66.3864C3.35629 66.3473 3.32357 66.3004 3.30099 66.2485C3.27842 66.1965 3.26644 66.1406 3.26578 66.084C3.26511 66.0274 3.27576 65.9712 3.29711 65.9188L7.47753 55.6494C7.48811 55.6233 7.49529 55.596 7.49888 55.568C8.06509 51.1856 9.50574 48.957 9.93377 48.3783C9.96504 48.3358 9.98561 48.2864 9.99376 48.2342C10.0019 48.1821 9.9974 48.1287 9.9806 48.0787L9.92176 47.9022C9.89826 47.8321 9.89344 47.7571 9.90778 47.6846C9.92213 47.6121 9.95513 47.5446 10.0035 47.4888C11.5459 45.732 14.2342 46.6906 14.2612 46.7005L14.2746 46.7055L14.2831 46.717C17.2975 50.851 16.1829 64.2781 15.9289 66.9277C15.9194 67.0273 15.875 67.1203 15.8036 67.1903C15.7321 67.2603 15.6382 67.3027 15.5385 67.3102L13.756 67.4474C13.7449 67.4482 13.7339 67.4486 13.723 67.4486Z" fill="#2F2E41"/>
<path d="M19.0056 39.8626C18.9941 39.9136 18.9865 39.9654 18.983 40.0175L14.926 42.358L13.9399 41.7903L12.8887 43.1666L14.5367 44.3412C14.6699 44.4361 14.8302 44.4852 14.9936 44.4813C15.1571 44.4773 15.3148 44.4204 15.4432 44.3191L19.6267 41.0188C19.8155 41.0886 20.0211 41.0994 20.2161 41.0496C20.4112 40.9998 20.5865 40.8917 20.7186 40.7399C20.8508 40.588 20.9336 40.3995 20.956 40.1995C20.9785 39.9994 20.9394 39.7972 20.8442 39.6199C20.7489 39.4425 20.6019 39.2984 20.4227 39.2066C20.2435 39.1149 20.0406 39.0798 19.8411 39.1062C19.6415 39.1325 19.4546 39.219 19.3054 39.3542C19.1562 39.4893 19.0516 39.6666 19.0056 39.8626Z" fill="#FFB8B8"/>
<path d="M14.7904 42.4692L13.4791 44.1686C13.4418 44.217 13.3945 44.2567 13.3405 44.2851C13.2864 44.3136 13.2269 44.33 13.1659 44.3334C13.1049 44.3367 13.0439 44.3269 12.9871 44.3045C12.9303 44.2821 12.8789 44.2478 12.8366 44.2038L11.3522 42.6624C11.1059 42.4701 10.9459 42.188 10.9072 41.8779C10.8686 41.5679 10.9545 41.2551 11.1461 41.0083C11.3377 40.7615 11.6194 40.6007 11.9294 40.5612C12.2393 40.5217 12.5523 40.6068 12.7997 40.7977L14.6614 41.8387C14.7147 41.8686 14.7609 41.9095 14.797 41.9588C14.833 42.0081 14.858 42.0646 14.8702 42.1245C14.8825 42.1843 14.8817 42.2461 14.8679 42.3056C14.8541 42.365 14.8277 42.4209 14.7904 42.4692Z" fill="#FF6584"/>
<path d="M9.70834 45.4212L7.59606 45.0398C7.53595 45.029 7.4789 45.0053 7.42877 44.9704C7.37865 44.9355 7.33663 44.8902 7.30559 44.8376C7.27454 44.785 7.2552 44.7264 7.24887 44.6656C7.24254 44.6049 7.24938 44.5435 7.26892 44.4856L7.95368 42.4582C8.01093 42.151 8.18766 41.879 8.44513 41.702C8.70259 41.5249 9.01977 41.4571 9.32712 41.5135C9.63447 41.57 9.9069 41.746 10.0847 42.003C10.2624 42.26 10.331 42.577 10.2754 42.8845L10.2086 45.0164C10.2067 45.0775 10.1916 45.1374 10.1645 45.1921C10.1373 45.2468 10.0986 45.295 10.0512 45.3334C10.0037 45.3718 9.94849 45.3995 9.88933 45.4147C9.83017 45.4298 9.76844 45.4321 9.70834 45.4212Z" fill="#FF6584"/>
<path d="M10.355 36.6346C10.9512 37.0426 11.734 37.462 12.3429 37.0275C12.5334 36.8825 12.6718 36.6796 12.7373 36.4494C12.8029 36.2191 12.7921 35.9738 12.7066 35.7502C12.415 34.9164 11.614 34.5493 10.8479 34.268C9.85209 33.9022 8.76776 33.6112 7.73972 33.8731C6.71168 34.1351 5.80312 35.1304 5.9887 36.175C6.13794 37.015 6.93029 37.7139 6.81781 38.5596C6.7046 39.4107 5.74742 39.8587 4.90237 40.0109C4.05733 40.163 3.11171 40.2119 2.50441 40.8188C1.72969 41.5931 1.92315 42.9772 2.65213 43.7947C3.38111 44.6122 4.48118 44.9828 5.54715 45.2347C6.9595 45.5685 8.48705 45.7439 9.82842 45.1899C11.1698 44.636 12.2136 43.1449 11.8251 41.7466C11.6609 41.156 11.2743 40.6568 10.9006 40.1709C10.5269 39.6849 10.1486 39.1768 10.006 38.5806C9.88723 38.0837 9.97514 37.5069 10.3046 37.1342C10.3645 37.069 10.4023 36.9864 10.4123 36.8984C10.4224 36.8104 10.4044 36.7215 10.3608 36.6444L10.355 36.6346Z" fill="#2F2E41"/>
<path d="M19.196 71.0594H0.100503C0.0738476 71.0594 0.0482843 71.0488 0.0294364 71.03C0.0105886 71.0111 0 70.9856 0 70.9589C0 70.9322 0.0105886 70.9067 0.0294364 70.8878C0.0482843 70.869 0.0738476 70.8584 0.100503 70.8584H19.196C19.2226 70.8584 19.2482 70.869 19.267 70.8878C19.2859 70.9067 19.2965 70.9322 19.2965 70.9589C19.2965 70.9856 19.2859 71.0111 19.267 71.03C19.2482 71.0488 19.2226 71.0594 19.196 71.0594Z" fill="#CCCCCC"/>
</g>
<defs>
<clipPath id="clip0_720_704">
<rect width="100" height="70.1187" fill="white" transform="translate(0 0.94043)"/>
</clipPath>
</defs>
</svg>
