<svg width="100" height="86" viewBox="0 0 100 86" fill="none" xmlns="http://www.w3.org/2000/svg">
<g clip-path="url(#clip0_720_160)">
<path d="M98.6537 29.668C98.7711 30.1265 98.8811 30.5874 98.9837 31.0506H64.0708V29.668H98.6537Z" fill="#E6E6E6"/>
<path d="M97.5409 26.0232C96.9788 24.4359 96.3234 22.8833 95.5781 21.3734C95.3488 20.9078 95.1107 20.447 94.8637 19.9907C94.8231 19.9124 94.7798 19.8341 94.7365 19.7559V30.0453H97.7534V26.6355L97.5409 26.0232Z" fill="#E6E6E6"/>
<path d="M95.5781 21.3729H94.7365V19.9902H94.8637C95.1111 20.446 95.3493 20.9069 95.5781 21.3729Z" fill="#CCCCCC"/>
<path d="M97.5409 26.0225H94.7365V27.4051H97.7534V26.6348L97.5409 26.0225Z" fill="#CCCCCC"/>
<path d="M93.1028 18.1055H90.0864V30.0452H93.1028V18.1055Z" fill="#E6E6E6"/>
<path d="M93.1028 19.9902H90.0864V21.3727H93.1028V19.9902Z" fill="#CCCCCC"/>
<path d="M93.1028 26.0234H90.0864V27.4059H93.1028V26.0234Z" fill="#CCCCCC"/>
<path d="M79.347 18.0361H68.5263C68.3596 18.0364 68.1997 18.1027 68.0818 18.2207C67.9638 18.3386 67.8975 18.4985 67.8972 18.6652V29.4859C67.8974 29.5475 67.9064 29.6087 67.9238 29.6677C67.963 29.797 68.0428 29.9102 68.1512 29.9908C68.2597 30.0713 68.3912 30.1149 68.5263 30.115H79.347C79.4821 30.1149 79.6136 30.0713 79.7221 29.9908C79.8306 29.9102 79.9103 29.797 79.9496 29.6677C79.967 29.6087 79.9759 29.5475 79.9761 29.4859V18.6652C79.9759 18.4985 79.9095 18.3386 79.7916 18.2207C79.6736 18.1027 79.5138 18.0364 79.347 18.0361Z" fill="#E6E6E6"/>
<path d="M78.5781 18.8047H69.2952C69.1285 18.8049 68.9686 18.8713 68.8507 18.9892C68.7328 19.1072 68.6664 19.267 68.6661 19.4338V28.7167C68.6664 28.8834 68.7328 29.0433 68.8507 29.1612C68.9686 29.2792 69.1285 29.3455 69.2952 29.3458H78.5781C78.7449 29.3455 78.9047 29.2792 79.0227 29.1612C79.1406 29.0433 79.207 28.8834 79.2072 28.7167V19.4338C79.207 19.267 79.1406 19.1072 79.0227 18.9892C78.9047 18.8713 78.7449 18.8049 78.5781 18.8047Z" fill="white"/>
<path d="M76.9592 20.4238H70.9141C70.7474 20.4241 70.5875 20.4904 70.4696 20.6084C70.3516 20.7263 70.2853 20.8862 70.285 21.0529V27.098C70.2853 27.2648 70.3516 27.4246 70.4696 27.5426C70.5875 27.6605 70.7474 27.7268 70.9141 27.7271H76.9592C77.1258 27.7262 77.2853 27.6597 77.4031 27.5419C77.5209 27.4241 77.5875 27.2646 77.5883 27.098V21.0529C77.5881 20.8862 77.5217 20.7263 77.4038 20.6084C77.2859 20.4904 77.126 20.4241 76.9592 20.4238Z" fill="#CCCCCC"/>
<path d="M76.5866 26.0318L75.3098 23.8203C75.2852 23.7778 75.2499 23.7425 75.2074 23.7179C75.1649 23.6934 75.1167 23.6805 75.0676 23.6805C75.0185 23.6805 74.9703 23.6934 74.9278 23.7179C74.8853 23.7425 74.85 23.7778 74.8255 23.8203L73.8931 25.4352L72.6704 23.3175C72.6459 23.275 72.6106 23.2397 72.5681 23.2152C72.5256 23.1907 72.4774 23.1777 72.4283 23.1777C72.3792 23.1777 72.331 23.1907 72.2885 23.2152C72.246 23.2397 72.2107 23.275 72.1862 23.3175L70.9093 25.5291L69.3904 28.16H72.3199L72.0297 28.6628H78.1056L76.5866 26.0318Z" fill="white"/>
<path d="M76.1359 22.6296C76.6217 22.6296 77.0156 22.2358 77.0156 21.7499C77.0156 21.264 76.6217 20.8701 76.1359 20.8701C75.65 20.8701 75.2561 21.264 75.2561 21.7499C75.2561 22.2358 75.65 22.6296 76.1359 22.6296Z" fill="white"/>
<path d="M99.9888 39.4367C99.979 38.8942 99.9576 38.3546 99.9245 37.8177C99.9105 37.5605 99.8937 37.3047 99.8728 37.0488H93.9703C93.8035 37.0491 93.6437 37.1154 93.5257 37.2334C93.4078 37.3513 93.3415 37.5112 93.3412 37.6779V48.4986C93.3409 48.5481 93.347 48.5975 93.3594 48.6454C93.3924 48.7827 93.4706 48.9048 93.5814 48.9923C93.6922 49.0798 93.8292 49.1275 93.9703 49.1277H99.4114C99.4394 48.9684 99.4659 48.8062 99.4897 48.6454C99.5051 48.5504 99.5205 48.4539 99.5345 48.3588C99.568 48.131 99.6002 47.9031 99.6295 47.6752C99.6715 47.3648 99.7092 47.0531 99.7428 46.7399C99.8658 45.6173 99.945 44.4826 99.9804 43.3357V43.3343C99.993 42.9023 99.9995 42.4685 100 42.0328V40.3552C100 40.0476 99.9972 39.7414 99.9888 39.4367Z" fill="#E6E6E6"/>
<path d="M99.9888 39.4373C99.979 38.8948 99.9575 38.3552 99.9245 37.8184H94.7392C94.5724 37.8186 94.4126 37.885 94.2946 38.0029C94.1767 38.1208 94.1104 38.2807 94.1101 38.4475V47.7303C94.1104 47.8971 94.1767 48.057 94.2946 48.1749C94.4126 48.2928 94.5724 48.3592 94.7392 48.3595H99.5345C99.568 48.1316 99.6001 47.9037 99.6295 47.6758C99.6715 47.3655 99.7092 47.0537 99.7427 46.7405C99.8658 45.6179 99.945 44.4832 99.9804 43.3364V43.335C99.993 42.903 99.9995 42.4691 100 42.0334V40.3558C100 40.0482 99.9972 39.742 99.9888 39.4373Z" fill="white"/>
<path d="M99.9888 39.4365H96.3581C96.1913 39.4368 96.0315 39.5031 95.9135 39.6211C95.7956 39.739 95.7293 39.8989 95.729 40.0656V46.1107C95.7293 46.2775 95.7956 46.4373 95.9135 46.5553C96.0315 46.6732 96.1913 46.7395 96.3581 46.7398H99.7427C99.8657 45.6172 99.945 44.4825 99.9804 43.3356V43.3342C99.993 42.9022 99.9995 42.4684 99.9999 42.0326V40.355C99.9999 40.0475 99.9972 39.7413 99.9888 39.4365Z" fill="#CCCCCC"/>
<path d="M99.9805 43.3361C99.9455 44.4825 99.8663 45.6172 99.7428 46.7403C99.7093 47.0535 99.6715 47.3652 99.6295 47.6756H97.4738L97.7646 47.1737H94.8344L95.7291 45.6233L96.3526 44.5426L97.6304 42.3309C97.6547 42.2883 97.6899 42.2528 97.7324 42.2281C97.7749 42.2034 97.8231 42.1904 97.8723 42.1904C97.9214 42.1904 97.9696 42.2034 98.0121 42.2281C98.0546 42.2528 98.0898 42.2883 98.1141 42.3309L99.3374 44.4489L99.9805 43.3361Z" fill="white"/>
<path d="M89.3876 12.0731H64.0708V10.6904H88.1322C88.56 11.142 88.9785 11.6029 89.3876 12.0731Z" fill="#E6E6E6"/>
<path d="M77.5184 2.48438C78.5502 3.05197 79.5558 3.66011 80.5353 4.30879V11.0668H77.5184V2.48438Z" fill="#E6E6E6"/>
<path d="M80.5346 7.0459H77.5183V8.42839H80.5346V7.0459Z" fill="#CCCCCC"/>
<path d="M85.1852 7.8597V11.0668H82.1682V5.44531C82.8715 5.95839 83.5588 6.49197 84.2303 7.04605C84.5518 7.31167 84.8701 7.58289 85.1852 7.8597Z" fill="#E6E6E6"/>
<path d="M85.1852 7.85955V8.42715H82.1682V7.0459H84.2303C84.5518 7.31152 84.8701 7.58274 85.1852 7.85955Z" fill="#CCCCCC"/>
<path d="M74.4385 0.94373C75.2368 1.30301 76.0215 1.68607 76.7928 2.09291L76.1721 3.34553L74.11 7.51304L73.4963 8.75169L72.5358 10.6907L72.3247 11.1171L71.4649 10.6907L69.6223 9.77784L70.7925 7.41238H70.7939L71.4062 6.17373L73.4697 2.00623L74.0765 0.781559L74.0834 0.767578L74.4385 0.94373Z" fill="#E6E6E6"/>
<path d="M76.7858 2.10549L76.1721 3.34553L73.4697 2.00623L74.0765 0.781558L74.0835 0.767578L74.4386 0.943729L76.7858 2.10549Z" fill="#CCCCCC"/>
<path d="M71.4064 6.17412L70.793 7.41309L73.4961 8.75141L74.1095 7.51244L71.4064 6.17412Z" fill="#CCCCCC"/>
<path d="M99.4897 48.6455C99.466 48.8063 99.4394 48.9684 99.4114 49.1278C99.3625 49.4298 99.3094 49.729 99.2521 50.0282H64.0708V48.6455H99.4897Z" fill="#E6E6E6"/>
<path d="M80.5346 37.083H77.5183V49.0227H80.5346V37.083Z" fill="#E6E6E6"/>
<path d="M80.5346 38.9688H77.5183V40.3512H80.5346V38.9688Z" fill="#CCCCCC"/>
<path d="M80.5346 45.001H77.5183V46.3835H80.5346V45.001Z" fill="#CCCCCC"/>
<path d="M85.1849 37.083H82.1686V49.0227H85.1849V37.083Z" fill="#E6E6E6"/>
<path d="M85.1849 38.9688H82.1686V40.3512H85.1849V38.9688Z" fill="#CCCCCC"/>
<path d="M85.1849 45.001H82.1686V46.3835H85.1849V45.001Z" fill="#CCCCCC"/>
<path d="M74.9195 37.0343L69.6219 47.7344L72.3251 49.0727L77.6227 38.3726L74.9195 37.0343Z" fill="#E6E6E6"/>
<path d="M74.083 38.723L73.4696 39.9619L76.1728 41.3002L76.7862 40.0613L74.083 38.723Z" fill="#CCCCCC"/>
<path d="M71.4064 44.1302L70.793 45.3691L73.4962 46.7075L74.1095 45.4685L71.4064 44.1302Z" fill="#CCCCCC"/>
<path d="M40.9338 53.9738C41.0599 54.0463 41.18 54.1287 41.2931 54.2201L53.7396 50.3468L54.4414 47.2588L59.2401 47.7089L58.5289 53.2963C58.4714 53.7477 58.2691 54.1682 57.9523 54.4949C57.6355 54.8215 57.2212 55.0365 56.7718 55.1076L42.1243 57.4267C41.9106 57.9446 41.5443 58.3852 41.0741 58.6899C40.6039 58.9945 40.052 59.1488 39.492 59.1322C38.9319 59.1156 38.3902 58.9289 37.9389 58.5969C37.4876 58.2649 37.148 57.8034 36.9654 57.2737C36.7828 56.744 36.7657 56.1713 36.9165 55.6316C37.0674 55.092 37.3789 54.6111 37.8097 54.2529C38.2405 53.8947 38.7702 53.6761 39.3282 53.6262C39.8863 53.5764 40.4463 53.6976 40.9338 53.9738Z" fill="#FFB8B8"/>
<path d="M61.4578 49.5613L61.3754 48.1521V48.1507L61.353 47.7648L61.1098 43.6155C61.1826 42.7505 60.9096 41.8919 60.3507 41.2276C59.7918 40.5634 58.9925 40.1477 58.1278 40.0715C57.879 40.0492 57.6285 40.0558 57.3813 40.0911C56.6467 40.195 55.9688 40.5439 55.4575 41.0814C54.9461 41.6189 54.6313 42.3133 54.5642 43.0521L54.0595 45.1519L53.1774 48.8245C53.1149 49.0815 53.1408 49.352 53.2509 49.5925C53.3609 49.8329 53.5488 50.0293 53.7842 50.1499C53.92 50.2214 54.0688 50.2651 54.2217 50.2785L55.6924 50.4099L57.1086 50.5357L58.7429 50.6811L58.8604 50.6909L59.1623 50.7189L60.1731 50.8083H60.1759C60.3447 50.8219 60.5145 50.7996 60.674 50.7427C60.8336 50.6858 60.9792 50.5957 61.1014 50.4784C61.1904 50.3917 61.2653 50.2917 61.3236 50.182C61.4256 49.9918 61.4721 49.7767 61.4578 49.5613Z" fill="#6C63FF"/>
<path d="M75.116 32.4742C75.116 37.2589 70.6917 36.5352 65.2341 36.5352C59.7765 36.5352 55.3522 37.2589 55.3522 32.4742C55.3522 27.6894 57.5133 19.208 65.2341 19.208C73.2209 19.208 75.116 27.6894 75.116 32.4742Z" fill="#2F2E41"/>
<path d="M69.903 34.5789C72.4999 31.9821 72.4999 27.7718 69.903 25.175C67.3062 22.5782 63.0959 22.5782 60.4991 25.175C57.9023 27.7718 57.9023 31.9821 60.4991 34.5789C63.0959 37.1758 67.3062 37.1758 69.903 34.5789Z" fill="#FFB8B8"/>
<path d="M74.5616 39.322C74.4336 39.1987 74.2977 39.0838 74.1548 38.9781C73.2507 38.2951 72.1146 37.9944 70.991 38.1407L58.7374 39.6911C57.615 39.8305 56.5909 40.4014 55.8824 41.283C55.1738 42.1646 54.8364 43.2875 54.9418 44.4136C54.9767 44.8051 55.0159 45.2175 55.0592 45.6467C55.1152 46.1849 55.178 46.7497 55.2507 47.3341C55.3709 48.3169 55.5178 49.3542 55.6925 50.4097C55.8449 51.3185 56.0183 52.2397 56.2168 53.1499C56.2741 53.4127 56.3338 53.6746 56.3957 53.9355C56.3956 53.9363 56.3957 53.9371 56.3959 53.9378C56.3962 53.9385 56.3966 53.9392 56.3971 53.9397C56.4041 53.9719 56.4111 54.0041 56.4195 54.0348C56.4191 54.0372 56.4196 54.0397 56.4209 54.0418C56.5076 54.4053 56.5985 54.7646 56.6935 55.1197C56.7298 55.2511 56.7648 55.3811 56.8011 55.5097C56.899 55.8592 57.0025 56.2017 57.1087 56.5387C57.907 59.0453 58.9625 61.1801 60.3563 62.3153C60.3745 62.3321 60.3927 62.3461 60.4122 62.3614L60.4682 62.4048L60.5492 62.3796L60.8931 62.2775L61.1867 62.1881L65.0118 61.0375L65.9638 60.7509L69.0227 59.8296H69.0241L71.8215 58.988L72.1626 58.8845L74.5658 58.1618L74.6427 57.2642L74.7462 56.0731L74.8077 55.3573L75.2942 49.7121L75.578 46.4184L75.8856 42.8422C75.9427 42.1938 75.8534 41.5408 75.6242 40.9314C75.3951 40.3221 75.0319 39.7721 74.5616 39.322Z" fill="#2F2E41"/>
<path d="M81.4133 66.6379C81.3811 66.5442 81.3503 66.4506 81.3182 66.3583C79.881 62.1642 77.7616 58.9921 74.6426 57.2642C74.6412 57.2642 74.6412 57.2628 74.6398 57.2628L74.5867 57.2334L71.869 58.1743L71.5334 58.2903L71.1839 58.4119L71.1797 58.4133L68.6353 59.2941L68.6311 59.2955L66.6348 59.9861H66.6333L64.7865 60.625H64.7852L64.3559 60.7746L61.1279 61.8916L60.7532 62.0216L60.4177 62.1377L60.366 62.1558L60.3562 62.3152L60.1256 66.3583L60.1102 66.6379L59.8222 71.6834L50.2583 85.2316H56.801C58.9933 85.2321 61.1825 85.0652 63.3494 84.7325L69.4881 78.1171C69.5395 78.0638 69.6045 78.0256 69.6761 78.0066C69.7477 77.9876 69.8231 77.9885 69.8942 78.0092C69.9653 78.0299 70.0294 78.0697 70.0795 78.1242C70.1297 78.1787 70.164 78.2458 70.1788 78.3184L71.0804 82.7921C75.5228 81.2212 79.6785 78.9346 83.383 76.0228C82.9524 72.5487 82.3233 69.3822 81.4133 66.6379Z" fill="#2F2E41"/>
<path d="M57.5181 29.2247H60.1481L61.3084 25.9759L61.5404 29.2247H62.7975L63.4743 27.3296L63.6097 29.2247H72.9501C72.9501 28.3003 72.768 27.385 72.4143 26.5309C72.0605 25.6769 71.542 24.9009 70.8884 24.2473C70.2347 23.5936 69.4587 23.0751 68.6047 22.7214C67.7507 22.3676 66.8353 22.1855 65.9109 22.1855H64.5572C62.6903 22.1855 60.8999 22.9272 59.5798 24.2473C58.2597 25.5674 57.5181 27.3578 57.5181 29.2247Z" fill="#2F2E41"/>
<path d="M41.341 64.4555C40.9116 64.6359 40.4479 64.7199 39.9825 64.7017C39.5171 64.6835 39.0614 64.5635 38.6474 64.3502C38.2334 64.1368 37.8712 63.8352 37.5864 63.4667C37.3016 63.0983 37.101 62.6718 36.9988 62.2174L25.7495 60.9434L29.5204 56.4277L39.6248 58.3299C40.3995 58.2088 41.1917 58.3761 41.8513 58.8001C42.511 59.2241 42.9921 59.8753 43.2037 60.6304C43.4152 61.3855 43.3424 62.1919 42.9991 62.8969C42.6558 63.6018 42.0658 64.1564 41.341 64.4555Z" fill="#A0616A"/>
<path d="M35.2758 56.0967L30.5211 55.2467L30.1759 55.1852C29.8999 55.1359 29.6375 55.0288 29.4059 54.8709C29.1743 54.713 28.9788 54.5079 28.8321 54.269C28.6854 54.0301 28.5909 53.763 28.5548 53.485C28.5187 53.207 28.5418 52.9246 28.6227 52.6562L30.9573 44.8985L31.0272 44.6679C31.3187 43.6818 31.2668 42.6261 30.88 41.6734C30.4932 40.7207 29.7944 39.9276 28.898 39.4239C28.2913 39.0869 27.615 38.8945 26.9218 38.8615C26.2285 38.8286 25.537 38.9559 24.901 39.2338C24.2651 39.5116 23.7017 39.9324 23.2549 40.4634C22.808 40.9944 22.4896 41.6213 22.3245 42.2954L19.3468 54.4484L19.2363 54.8986C19.0283 55.7466 19.0057 56.6295 19.1698 57.487C19.334 58.3446 19.6812 59.1567 20.1876 59.8679C20.6941 60.5791 21.348 61.1727 22.1047 61.6083C22.8614 62.0439 23.7032 62.3112 24.5726 62.392C24.5823 62.3934 24.5907 62.3934 24.6006 62.3948L26.383 62.5528L28.6953 62.7583L31.6032 63.0169L34.3168 63.2588C34.6722 63.291 35.0268 63.1884 35.3101 62.9714C35.5934 62.7544 35.7848 62.4388 35.8463 62.0872C35.8504 62.0676 35.8532 62.0481 35.856 62.0285L36.432 57.7282L36.4376 57.689C36.4873 57.3249 36.394 56.9557 36.1775 56.6589C35.9609 56.362 35.6377 56.1605 35.2758 56.0967Z" fill="#CCCCCC"/>
<path d="M27.9504 23.514C26.0523 27.2457 24.5564 31.0946 20.3697 31.0946C18.3592 31.0946 16.431 30.296 15.0094 28.8743C13.5877 27.4527 12.7891 25.5245 12.7891 23.514C12.7891 19.3273 16.1833 15.9857 20.3697 15.9333C24.6246 15.88 31.4832 16.5681 27.9504 23.514Z" fill="#2F2E41"/>
<path d="M32.7119 72.332L32.5399 70.6152L32.4113 70.6222L9.80664 71.7113L9.86535 73.449L9.96467 76.4254C13.4624 79.0898 17.3466 81.2042 21.4829 82.6956L21.6298 81.5576C21.6426 81.4648 21.6871 81.3794 21.7557 81.3157C21.8243 81.252 21.9128 81.214 22.0062 81.208C22.0996 81.2021 22.1923 81.2287 22.2684 81.2832C22.3445 81.3377 22.3994 81.4169 22.4238 81.5072L22.8698 83.1695C26.473 84.3315 30.2148 85.0089 33.9967 85.184L32.7119 72.332Z" fill="#2F2E41"/>
<path d="M25.4448 29.2947C28.0416 26.6979 28.0416 22.4876 25.4448 19.8908C22.848 17.294 18.6377 17.294 16.0408 19.8908C13.444 22.4876 13.444 26.6979 16.0408 29.2947C18.6377 31.8916 22.848 31.8916 25.4448 29.2947Z" fill="#A0616A"/>
<path d="M34.0105 70.7313L32.6921 66.6379L32.6697 66.568L32.6026 66.3583L32.2266 65.1924C32.1049 64.8135 31.9889 64.4333 31.8812 64.0516C31.782 63.7077 31.6893 63.3628 31.6031 63.0171C31.4801 62.5361 31.3682 62.0534 31.2675 61.5687C30.9264 59.9401 30.6989 58.2897 30.5867 56.6295C30.5559 56.1695 30.534 55.7087 30.521 55.2469C30.4391 52.4162 30.6939 49.5859 31.2801 46.8154C31.7904 44.4196 31.5179 41.9233 30.5026 39.6941C29.4873 37.4649 27.7829 35.6207 25.6405 34.4331C24.2347 33.6561 22.6787 33.1894 21.0773 33.0644C20.9669 33.056 20.8564 33.0491 20.7446 33.0421C19.053 32.9352 17.359 33.2096 15.7877 33.845C14.2163 34.4804 12.8077 35.4606 11.6659 36.7133C11.0543 37.3795 10.5231 38.1152 10.0833 38.9054C8.86286 41.1042 8.40471 43.6452 8.78033 46.1317L10.3517 56.6826L9.99384 61.1241L9.57164 66.3583L9.54925 66.6379L9.09905 72.2189C9.07773 72.479 9.14072 72.7391 9.27869 72.9607C9.41667 73.1822 9.6223 73.3535 9.86517 73.4491C10.0074 73.5061 10.1593 73.535 10.3126 73.5344C10.335 73.5344 10.3559 73.5344 10.3783 73.533L32.7117 72.3321L32.9158 72.3209C33.1021 72.3112 33.2837 72.2588 33.4465 72.1678C33.6093 72.0768 33.749 71.9495 33.8548 71.7959C33.9606 71.6422 34.0297 71.4663 34.0567 71.2818C34.0837 71.0972 34.0679 70.9088 34.0105 70.7313Z" fill="#CCCCCC"/>
<path d="M27.7991 20.8343C26.2796 21.8816 24.476 22.439 22.6305 22.4316C23.2888 22.888 24.0383 23.1964 24.8272 23.3353C22.3735 23.8616 19.8376 23.8759 17.3781 23.3772C16.8314 23.2895 16.3039 23.1083 15.8187 22.8416C15.3465 22.5549 14.9515 22.0985 14.8562 21.5543C14.6928 20.6207 15.4203 19.7724 16.1763 19.2008C17.3339 18.3388 18.6685 17.745 20.0837 17.4622C21.499 17.1794 22.9593 17.2147 24.3592 17.5656C25.2733 17.8019 26.189 18.2011 26.7827 18.9352C27.3765 19.6692 27.5523 20.8009 26.9867 21.5568L27.7991 20.8343Z" fill="#2F2E41"/>
<path d="M28.1389 63.0726C27.7136 63.2623 27.2518 63.3564 26.7861 63.3483C26.3204 63.3402 25.8622 63.23 25.4437 63.0257C25.0252 62.8213 24.6566 62.5277 24.3638 62.1655C24.0711 61.8032 23.8613 61.3812 23.7493 60.9291L12.4751 59.899L16.1473 55.3027L26.2905 56.9857C27.0625 56.8478 27.8581 56.9979 28.5268 57.4076C29.1954 57.8172 29.6906 58.4578 29.9184 59.2081C30.1462 59.9584 30.0909 60.7663 29.763 61.4785C29.435 62.1908 28.8572 62.758 28.1389 63.0726Z" fill="#A0616A"/>
<path d="M21.8954 54.8476L19.3468 54.4491L16.7758 54.0465C16.4989 54.0032 16.2343 53.9019 15.9993 53.7491C15.7644 53.5963 15.5644 53.3955 15.4126 53.16C15.2608 52.9244 15.1605 52.6594 15.1183 52.3824C15.0762 52.1053 15.0931 51.8225 15.168 51.5524L17.3993 43.5138C17.6693 42.5217 17.5945 41.4673 17.1871 40.5233C16.7797 39.5792 16.0639 38.8015 15.1569 38.3173C14.5441 37.9904 13.8636 37.8108 13.1694 37.7926C12.4751 37.7744 11.7862 37.9181 11.1571 38.2125C10.5262 38.5022 9.97109 38.9344 9.53562 39.4752C9.10014 40.016 8.79617 40.6504 8.64766 41.3287L5.83345 53.9962C5.64387 54.8506 5.64114 55.736 5.82542 56.5916C6.0097 57.4473 6.37666 58.253 6.90118 58.9537C7.4257 59.6544 8.09541 60.2335 8.86447 60.6514C9.63353 61.0693 10.4838 61.3161 11.3571 61.3749L21.0915 62.0278C21.4474 62.0521 21.7995 61.9419 22.0781 61.719C22.3566 61.4961 22.5414 61.1767 22.5957 60.8241C22.6 60.8045 22.6013 60.785 22.6041 60.7654L23.0865 56.4539L23.0906 56.4147C23.1322 56.0497 23.031 55.6828 22.8082 55.3907C22.5855 55.0986 22.2583 54.904 21.8954 54.8476Z" fill="#CCCCCC"/>
<path d="M65.0211 48.1648L64.4377 48.4831L57.2502 52.4047L56.6668 52.7231C56.3838 52.8779 56.1737 53.1388 56.0827 53.4483C55.9917 53.7579 56.0272 54.0909 56.1814 54.3744L61.5337 64.184C61.6886 64.4671 61.9494 64.6771 62.259 64.7681C62.5686 64.8592 62.9016 64.8237 63.185 64.6694L63.1865 64.6686L71.5378 60.112L71.5393 60.1112C71.8224 59.9563 72.0324 59.6955 72.1235 59.3859C72.2145 59.0763 72.179 58.7433 72.0247 58.4599L66.6724 48.6503C66.5175 48.3672 66.2567 48.1571 65.9471 48.0661C65.6376 47.9751 65.3045 48.0106 65.0211 48.1648Z" fill="#E6E6E6"/>
<path d="M65.1889 48.4727L64.4979 48.8497L57.5256 52.654L56.8347 53.031C56.6331 53.1413 56.4835 53.327 56.4186 53.5475C56.3538 53.7679 56.3791 54.0051 56.489 54.2069L61.8413 64.0165C61.9516 64.2181 62.1373 64.3677 62.3578 64.4325C62.5782 64.4973 62.8154 64.4721 63.0172 64.3622L63.0187 64.3614L71.37 59.8048L71.3715 59.804C71.5731 59.6937 71.7227 59.5079 71.7875 59.2875C71.8523 59.067 71.827 58.8299 71.7172 58.628L66.3648 48.8184C66.2545 48.6168 66.0688 48.4672 65.8483 48.4024C65.6279 48.3376 65.3907 48.3629 65.1889 48.4727Z" fill="white"/>
<path d="M65.385 51.2422C65.3591 51.1951 65.3156 51.1602 65.264 51.145C65.2124 51.1298 65.1569 51.1356 65.1096 51.1611L64.8314 51.3135L61.9948 52.8611C61.9479 52.8871 61.9131 52.9305 61.8981 52.982C61.8831 53.0335 61.8891 53.0889 61.9148 53.1359C61.9404 53.183 61.9837 53.2181 62.0351 53.2334C62.0865 53.2487 62.1419 53.243 62.1891 53.2176L65.3039 51.5176C65.351 51.4917 65.3859 51.4482 65.4011 51.3966C65.4163 51.345 65.4105 51.2895 65.385 51.2422Z" fill="#E6E6E6"/>
<path d="M66.4461 51.4419C66.4334 51.4186 66.4162 51.398 66.3956 51.3814C66.3749 51.3647 66.3512 51.3523 66.3257 51.3449C66.3002 51.3375 66.2735 51.3352 66.2471 51.3382C66.2208 51.3412 66.1952 51.3493 66.172 51.3622L62.3232 53.4621C62.2999 53.4748 62.2794 53.4921 62.2627 53.5128C62.246 53.5335 62.2336 53.5573 62.2262 53.5828C62.2187 53.6083 62.2163 53.635 62.2192 53.6615C62.2221 53.6879 62.2301 53.7135 62.2429 53.7368C62.2556 53.7601 62.2729 53.7807 62.2936 53.7973C62.3143 53.814 62.3381 53.8264 62.3636 53.8339C62.3891 53.8413 62.4158 53.8437 62.4422 53.8408C62.4687 53.838 62.4943 53.8299 62.5176 53.8172L62.6966 53.7193L63.8164 53.1084H63.8178L66.365 51.7173C66.3885 51.7048 66.4094 51.6876 66.4263 51.6669C66.4431 51.6462 66.4557 51.6223 66.4633 51.5966C66.4708 51.571 66.4732 51.5441 66.4702 51.5176C66.4673 51.491 66.4591 51.4653 66.4461 51.4419Z" fill="#E6E6E6"/>
<path d="M62.2632 54.789L61.0413 52.5479C61.0286 52.5254 61.0075 52.5089 60.9826 52.5018C60.9578 52.4947 60.9311 52.4977 60.9085 52.5102L60.3157 52.8332L60.0082 53.0009L58.3571 53.9012L58.037 54.076C58.0145 54.0887 57.9979 54.1098 57.9908 54.1346C57.9837 54.1595 57.9868 54.1862 57.9992 54.2088L58.0775 54.3528L59.221 56.4498C59.2335 56.4722 59.2543 56.4888 59.279 56.4958C59.3036 56.5029 59.33 56.4999 59.3525 56.4876L61.3237 55.4125L61.6313 55.2447L62.224 54.9218C62.2353 54.9157 62.2454 54.9074 62.2535 54.8974C62.2616 54.8874 62.2677 54.8759 62.2713 54.8636C62.2749 54.8512 62.2761 54.8383 62.2747 54.8255C62.2733 54.8127 62.2694 54.8003 62.2632 54.789Z" fill="#E6E6E6"/>
<path d="M66.9298 54.085C66.9042 54.038 66.861 54.003 66.8096 53.9878C66.7582 53.9726 66.7029 53.9784 66.6558 54.0039L62.431 56.3092C62.3937 56.3297 62.3638 56.3613 62.3454 56.3997C62.3271 56.4381 62.3213 56.4813 62.3289 56.5231C62.3319 56.5448 62.339 56.5657 62.35 56.5846C62.3606 56.6039 62.3743 56.6214 62.3905 56.6364L62.3919 56.6378C62.4232 56.6659 62.4624 56.6837 62.5042 56.6887C62.546 56.6937 62.5883 56.6857 62.6253 56.6657L66.8502 54.3604C66.8735 54.3476 66.8941 54.3303 66.9108 54.3095C66.9274 54.2887 66.9398 54.2648 66.9472 54.2392C66.9546 54.2136 66.9569 54.1868 66.9539 54.1604C66.9509 54.1339 66.9428 54.1083 66.9298 54.085Z" fill="#E6E6E6"/>
<path d="M67.9923 54.2856C67.9795 54.2622 67.9621 54.2417 67.9413 54.225C67.9205 54.2084 67.8967 54.196 67.8711 54.1886C67.8455 54.1812 67.8187 54.179 67.7923 54.1819C67.7658 54.1849 67.7402 54.193 67.7169 54.2059L62.7581 56.911C62.7208 56.9308 62.6908 56.9619 62.6724 56.9998C62.6541 57.0378 62.6483 57.0807 62.6561 57.1222V57.1236C62.659 57.1452 62.6661 57.1661 62.677 57.1851C62.6878 57.2051 62.702 57.223 62.7189 57.2382C62.7499 57.2669 62.7892 57.2851 62.8311 57.2901C62.8731 57.2951 62.9155 57.2868 62.9524 57.2661L67.9112 54.561C67.9584 54.5351 67.9933 54.4916 68.0085 54.44C68.0237 54.3884 68.0179 54.3329 67.9923 54.2856Z" fill="#E6E6E6"/>
<path d="M61.0158 58.5537C61.4907 58.5537 61.8757 58.1687 61.8757 57.6938C61.8757 57.2189 61.4907 56.834 61.0158 56.834C60.541 56.834 60.156 57.2189 60.156 57.6938C60.156 58.1687 60.541 58.5537 61.0158 58.5537Z" fill="#E6E6E6"/>
<path d="M67.5375 44.3904L66.9541 44.7087L59.7666 48.6303L59.1832 48.9486C58.9001 49.1035 58.69 49.3643 58.599 49.6739C58.508 49.9835 58.5435 50.3165 58.6978 50.5999L64.0501 60.4096C64.205 60.6926 64.4658 60.9027 64.7754 60.9937C65.0849 61.0847 65.418 61.0492 65.7014 60.895L65.7029 60.8942L74.0541 56.3376L74.0556 56.3367C74.3387 56.1819 74.5488 55.921 74.6398 55.6115C74.7308 55.3019 74.6953 54.9689 74.5411 54.6854L69.1888 44.8758C69.0339 44.5928 68.7731 44.3827 68.4635 44.2917C68.1539 44.2006 67.8209 44.2362 67.5375 44.3904Z" fill="#CCCCCC"/>
<path d="M67.7054 44.6973L67.0144 45.0743L60.0421 48.8786L59.3511 49.2556C59.1495 49.3659 58.9999 49.5516 58.9351 49.7721C58.8703 49.9925 58.8956 50.2297 59.0054 50.4315L64.3578 60.2411C64.4681 60.4427 64.6538 60.5923 64.8743 60.6571C65.0947 60.7219 65.3319 60.6967 65.5337 60.5868L65.5352 60.586L73.8864 56.0294L73.888 56.0286C74.0895 55.9183 74.2391 55.7325 74.304 55.5121C74.3688 55.2916 74.3435 55.0545 74.2336 54.8526L68.8813 45.043C68.771 44.8414 68.5853 44.6918 68.3648 44.627C68.1444 44.5622 67.9072 44.5875 67.7054 44.6973Z" fill="white"/>
<path d="M67.9014 47.4668C67.8754 47.4197 67.8319 47.3848 67.7804 47.3696C67.7288 47.3544 67.6733 47.3602 67.626 47.3857L66.1916 48.1686L65.7917 48.3867L64.5112 49.0857C64.4643 49.1117 64.4295 49.1551 64.4145 49.2066C64.3995 49.2581 64.4055 49.3135 64.4311 49.3606C64.4568 49.4077 64.5 49.4427 64.5514 49.458C64.6029 49.4733 64.6582 49.4676 64.7055 49.4422L66.2154 48.6188L66.5313 48.4454L67.8203 47.7422C67.8674 47.7163 67.9023 47.6728 67.9175 47.6212C67.9327 47.5696 67.9269 47.5142 67.9014 47.4668Z" fill="#CCCCCC"/>
<path d="M68.9625 47.6675C68.9499 47.6442 68.9327 47.6236 68.9121 47.6069C68.8914 47.5903 68.8676 47.5779 68.8422 47.5705C68.8167 47.5631 68.79 47.5608 68.7636 47.5638C68.7372 47.5667 68.7117 47.5749 68.6885 47.5878L66.6879 48.6797L66.3803 48.8474L64.8397 49.6877C64.8164 49.7004 64.7958 49.7176 64.7792 49.7384C64.7625 49.7591 64.7501 49.7829 64.7426 49.8084C64.7352 49.8339 64.7328 49.8606 64.7357 49.887C64.7385 49.9135 64.7466 49.9391 64.7593 49.9624C64.7721 49.9857 64.7893 50.0063 64.8101 50.0229C64.8308 50.0396 64.8546 50.052 64.8801 50.0595C64.9056 50.0669 64.9323 50.0693 64.9587 50.0664C64.9852 50.0636 65.0107 50.0555 65.0341 50.0428L66.5747 49.2025L66.8823 49.0348L68.8814 47.9429C68.905 47.9303 68.9258 47.9132 68.9427 47.8925C68.9596 47.8717 68.9722 47.8479 68.9797 47.8222C68.9873 47.7966 68.9896 47.7697 68.9867 47.7431C68.9837 47.7166 68.9755 47.6909 68.9625 47.6675Z" fill="#CCCCCC"/>
<path d="M64.7797 51.0136L63.8052 49.2269L63.6375 48.9194L63.5578 48.7726C63.5451 48.7501 63.524 48.7335 63.4991 48.7264C63.4743 48.7193 63.4476 48.7224 63.425 48.7348L61.4468 49.8141L60.5535 50.3006C60.5309 50.3133 60.5143 50.3344 60.5073 50.3593C60.5002 50.3841 60.5032 50.4108 60.5157 50.4334L60.5954 50.5788L60.6821 50.7396L60.7632 50.8864V50.8878L61.7375 52.6745C61.75 52.6968 61.7708 52.7134 61.7955 52.7205C61.8201 52.7275 61.8465 52.7246 61.8689 52.7122L64.7405 51.1464C64.7518 51.1403 64.7618 51.132 64.77 51.122C64.7781 51.112 64.7841 51.1005 64.7878 51.0882C64.7914 51.0758 64.7926 51.0629 64.7912 51.0501C64.7898 51.0373 64.7859 51.0249 64.7797 51.0136Z" fill="#6C63FF"/>
<path d="M69.4463 50.3106C69.4206 50.2635 69.3774 50.2286 69.326 50.2134C69.2746 50.1982 69.2194 50.204 69.1722 50.2295L67.9098 50.9187L67.6023 51.0865L66.3832 51.7505L64.9474 52.5348C64.924 52.5476 64.9033 52.5648 64.8866 52.5856C64.8698 52.6063 64.8573 52.6302 64.8498 52.6557C64.8423 52.6813 64.8399 52.7081 64.8427 52.7346C64.8455 52.7611 64.8536 52.7868 64.8663 52.8102C64.8791 52.8337 64.8963 52.8543 64.9171 52.8711C64.9378 52.8878 64.9617 52.9003 64.9872 52.9078C65.0128 52.9154 65.0396 52.9178 65.0661 52.9149C65.0926 52.9121 65.1183 52.9041 65.1417 52.8913L67.7966 51.443L68.1041 51.2752L69.3666 50.586C69.3899 50.5732 69.4105 50.5559 69.4272 50.5351C69.4438 50.5143 69.4562 50.4904 69.4636 50.4648C69.471 50.4392 69.4733 50.4124 69.4703 50.386C69.4673 50.3595 69.4592 50.3339 69.4463 50.3106Z" fill="#CCCCCC"/>
<path d="M70.5087 50.5102C70.4959 50.4869 70.4785 50.4663 70.4577 50.4497C70.4369 50.433 70.4131 50.4207 70.3875 50.4133C70.3619 50.4059 70.3351 50.4036 70.3087 50.4065C70.2822 50.4095 70.2566 50.4176 70.2333 50.4305L68.2383 51.5195L67.9308 51.6873L65.2745 53.1357C65.2511 53.1483 65.2304 53.1655 65.2136 53.1863C65.1968 53.207 65.1843 53.2308 65.1767 53.2564C65.1692 53.2819 65.1668 53.3087 65.1696 53.3352C65.1725 53.3617 65.1805 53.3874 65.1933 53.4108C65.2061 53.4342 65.2234 53.4548 65.2442 53.4715C65.265 53.4882 65.2888 53.5006 65.3144 53.508C65.34 53.5155 65.3668 53.5178 65.3933 53.5148C65.4198 53.5118 65.4455 53.5037 65.4688 53.4908L68.1237 52.0424L68.4313 51.8746L70.4276 50.7856C70.4748 50.7597 70.5098 50.7162 70.525 50.6646C70.5402 50.613 70.5343 50.5575 70.5087 50.5102Z" fill="#CCCCCC"/>
<path d="M63.5323 54.7793C64.0072 54.7793 64.3922 54.3943 64.3922 53.9194C64.3922 53.4445 64.0072 53.0596 63.5323 53.0596C63.0574 53.0596 62.6725 53.4445 62.6725 53.9194C62.6725 54.3943 63.0574 54.7793 63.5323 54.7793Z" fill="#CCCCCC"/>
<path d="M64.11 58.7535C64.2547 58.7677 64.3981 58.7934 64.5388 58.8302L74.29 50.1798L73.6595 47.0764L78.2185 45.5127L79.8687 50.898C80.002 51.3331 79.9906 51.7996 79.8362 52.2277C79.6818 52.6557 79.3927 53.0221 79.0123 53.2718L66.6154 61.411C66.6337 61.971 66.4811 62.5233 66.1778 62.9944C65.8746 63.4655 65.4351 63.8331 64.9178 64.0484C64.4005 64.2636 63.8299 64.3163 63.282 64.1993C62.734 64.0824 62.2347 63.8014 61.8503 63.3937C61.4659 62.986 61.2148 62.471 61.1303 61.9171C61.0458 61.3633 61.1319 60.7968 61.3772 60.293C61.6226 59.7893 62.0154 59.3722 62.5036 59.0972C62.9917 58.8222 63.552 58.7023 64.11 58.7535Z" fill="#FFB8B8"/>
<path d="M81.0024 46.2874L78.2398 41.0112C77.9555 40.2088 77.3705 39.5482 76.6084 39.1689C75.8462 38.7896 74.9664 38.7213 74.1549 38.9785C74.1241 38.9869 74.0947 38.9967 74.064 39.0079C73.2416 39.2953 72.5668 39.8974 72.1878 40.6819C71.8088 41.4663 71.7565 42.3691 72.0424 43.1921L73.151 49.0233C73.1828 49.1902 73.2502 49.3483 73.3486 49.4868C73.4471 49.6253 73.5742 49.7409 73.7215 49.8258C73.8824 49.9199 74.0637 49.9736 74.2499 49.9823C74.4031 49.992 74.5567 49.9706 74.7014 49.9194L75.2942 49.7125L79.0996 48.3872L80.3439 47.9538C80.5044 47.8977 80.6509 47.8077 80.7734 47.6899C80.896 47.5721 80.9918 47.4293 81.0543 47.2712C81.1167 47.1131 81.1444 46.9434 81.1355 46.7736C81.1265 46.6039 81.0811 46.438 81.0024 46.2874Z" fill="#6C63FF"/>
<path d="M91.4307 66.638H0.139802C0.102724 66.638 0.067165 66.6233 0.040947 66.5971C0.014729 66.5708 0 66.5353 0 66.4982C0 66.4611 0.014729 66.4256 0.040947 66.3993C0.067165 66.3731 0.102724 66.3584 0.139802 66.3584H91.4307C91.4678 66.3584 91.5033 66.3731 91.5295 66.3993C91.5558 66.4256 91.5705 66.4611 91.5705 66.4982C91.5705 66.5353 91.5558 66.5708 91.5295 66.5971C91.5033 66.6233 91.4678 66.638 91.4307 66.638Z" fill="#3F3D56"/>
<path d="M15.8669 64.0518V64.1217C15.8674 64.5956 16.0055 65.0593 16.2643 65.4563C16.5231 65.8534 16.8916 66.1668 17.3251 66.3585C17.636 66.4975 17.9729 66.5689 18.3135 66.5682H40.8916V64.0518H15.8669Z" fill="#3F3D56"/>
<path d="M56.6556 47.4676C56.2973 46.728 55.7456 46.099 55.059 45.6474C54.7478 45.4413 54.412 45.275 54.0595 45.1525C53.5791 44.9847 53.0738 44.8992 52.565 44.8994H30.8956C29.691 44.9008 28.5362 45.38 27.6844 46.2317C26.8326 47.0835 26.3535 48.2384 26.3521 49.443V62.0252C26.3517 62.2018 26.362 62.3783 26.3828 62.5536C26.4135 62.8159 26.4668 63.0751 26.5422 63.3282C26.6169 63.5775 26.7132 63.8198 26.8302 64.0523C27.2065 64.8085 27.7864 65.4447 28.5047 65.8893C29.2229 66.3339 30.0509 66.5692 30.8956 66.5688H52.565C53.1617 66.569 53.7526 66.4516 54.304 66.2234C54.8554 65.9951 55.3563 65.6604 55.7783 65.2385C56.2002 64.8165 56.5349 64.3156 56.7632 63.7642C56.9914 63.2129 57.1088 62.6219 57.1086 62.0252V49.443C57.1096 48.7587 56.9547 48.0831 56.6556 47.4676Z" fill="#3F3D56"/>
<path d="M42.9187 56.8521C43.5364 56.8521 44.0371 56.3513 44.0371 55.7337C44.0371 55.116 43.5364 54.6152 42.9187 54.6152C42.301 54.6152 41.8003 55.116 41.8003 55.7337C41.8003 56.3513 42.301 56.8521 42.9187 56.8521Z" fill="white"/>
</g>
<defs>
<clipPath id="clip0_720_160">
<rect width="100" height="84.4643" fill="white" transform="translate(0 0.767578)"/>
</clipPath>
</defs>
</svg>
