<svg width="100" height="78" viewBox="0 0 100 78" fill="none" xmlns="http://www.w3.org/2000/svg">
<g clip-path="url(#clip0_720_423)">
<path d="M60.6367 23.8749C60.7611 23.8806 60.8843 23.848 60.9895 23.7813C61.0947 23.7147 61.1769 23.6174 61.225 23.5025C61.273 23.3875 61.2846 23.2606 61.2581 23.1389C61.2316 23.0172 61.1684 22.9066 61.0769 22.8221C61.0616 22.7612 61.0506 22.7175 61.0353 22.6566C61.0408 22.6434 61.0463 22.6301 61.0518 22.6169C61.611 21.2834 63.5063 21.2926 64.0608 22.6281C64.5529 23.8134 65.1795 25.0007 65.3338 26.2539C65.4017 26.8079 65.373 27.3694 65.249 27.9136C66.4049 25.3921 67.0052 22.6517 67.009 19.8779C67.0093 19.1819 66.9706 18.4864 66.8932 17.7947C66.8292 17.2276 66.7405 16.6646 66.6269 16.1056C66.0074 13.0726 64.6772 10.2298 62.7457 7.81067C61.8108 7.30058 61.0548 6.51619 60.5795 5.56318C60.4073 5.22061 60.2856 4.85491 60.2181 4.47747C60.3236 4.4913 60.6158 2.8852 60.5362 2.78666C60.6832 2.56365 60.9463 2.45279 61.1068 2.23517C61.905 1.15288 63.0048 1.34185 63.579 2.8126C64.8055 3.43163 64.8174 4.45824 64.0648 5.44561C63.586 6.07378 63.5202 6.92377 63.1001 7.59627C63.1433 7.6516 63.1883 7.7052 63.2315 7.76053C64.0216 8.77647 64.7102 9.8674 65.2875 11.0177C65.1242 9.74192 65.3653 8.20496 65.7764 7.21422C66.2443 6.08537 67.1214 5.13466 67.8937 4.15878C68.8215 2.98659 70.7239 3.49816 70.8873 4.98409C70.8889 4.99847 70.8905 5.01286 70.892 5.02723C70.7773 5.09195 70.665 5.16065 70.5551 5.23332C70.417 5.32554 70.3101 5.45731 70.2482 5.61136C70.1864 5.76541 70.1725 5.93456 70.2084 6.09664C70.2443 6.25871 70.3283 6.40616 70.4495 6.51967C70.5706 6.63317 70.7232 6.70744 70.8873 6.73273L70.9041 6.73532C70.8632 7.14879 70.791 7.55856 70.688 7.96108C71.6788 11.793 69.5396 13.1886 66.4852 13.2513C66.4178 13.2859 66.352 13.3205 66.2846 13.3533C66.8646 14.9969 67.2284 16.709 67.3669 18.4465C67.4453 19.4715 67.4406 20.5012 67.353 21.5255L67.3582 21.4892C67.5795 20.3502 68.1871 19.3225 69.0784 18.5796C70.4022 17.4921 72.2725 17.0917 73.7006 16.2176C74.3881 15.7968 75.269 16.3406 75.149 17.1376C75.1471 17.1503 75.1452 17.163 75.1432 17.1758C74.9303 17.2625 74.723 17.3624 74.5225 17.4748C74.4078 17.5396 74.2955 17.6083 74.1856 17.6809C74.0476 17.7732 73.9406 17.9049 73.8788 18.059C73.8169 18.213 73.803 18.3822 73.8389 18.5443C73.8748 18.7063 73.9589 18.8538 74.08 18.9673C74.2012 19.0808 74.3538 19.1551 74.5178 19.1804L74.5346 19.1829C74.5467 19.1847 74.5571 19.1864 74.5692 19.1881C74.2054 20.0567 73.6949 20.8561 73.0599 21.5515C72.4404 24.8965 69.7794 25.2139 66.9329 24.2398H66.9312C66.6189 25.5969 66.1664 26.9179 65.581 28.1815H60.7575C60.7402 28.1279 60.7247 28.0726 60.7091 28.019C61.1556 28.0471 61.6038 28.0204 62.0438 27.9395C61.6859 27.5004 61.3281 27.0578 60.9702 26.6187C60.9622 26.6105 60.9547 26.6018 60.9477 26.5927C60.7662 26.368 60.5829 26.145 60.4014 25.9202L60.4013 25.92C60.3916 25.231 60.4707 24.5437 60.6365 23.875L60.6367 23.8749Z" fill="#F2F2F2"/>
<path d="M76.1233 11.5308C75.2264 8.2609 82.4601 5.45691 84.3596 8.09016C84.6237 7.71579 85.5999 7.48839 86.0478 7.60324C86.4957 7.71808 86.8723 8.00518 87.2398 8.2831C87.7451 8.67126 88.2688 9.0732 88.5788 9.63132C88.8912 10.1871 88.9394 10.9451 88.5191 11.4274C88.1861 11.811 87.2031 12.0591 86.7024 12.1601C86.3532 12.2313 86.0593 12.2887 85.8066 12.3301C85.5771 11.9994 85.4714 11.5986 85.508 11.1977C85.338 11.3125 85.1954 11.4634 85.0906 11.6397C84.9857 11.816 84.9212 12.0133 84.9017 12.2175C84.8948 12.3025 87.7244 22.714 87.7244 22.714C87.3844 22.9075 87.0268 23.0682 86.6564 23.194C85.9236 22.0741 85.3624 20.8509 84.9912 19.565C84.9059 20.4249 84.9167 21.2915 85.0234 22.1489C85.0801 22.6297 85.1614 23.1073 85.2669 23.5798C81.9043 24.3056 76.8468 24.0668 74.6464 20.9799C74.646 20.9671 74.6456 20.9543 74.6453 20.9415C74.6436 20.8197 74.5996 20.7022 74.5208 20.6093C74.442 20.5163 74.3333 20.4536 74.2134 20.432C74.0935 20.4103 73.9698 20.4311 73.8634 20.4906C73.7571 20.5501 73.6748 20.6448 73.6306 20.7583C73.5772 20.8945 73.5281 21.0124 73.4842 21.1062C72.8434 18.814 73.6726 16.1612 76.1233 11.5308Z" fill="#2F2E41"/>
<path d="M70.4014 66.3516V66.4587C70.3971 66.4231 70.3971 66.3871 70.4014 66.3516Z" fill="#2F2E41"/>
<path d="M73.6942 47.8465C73.7797 47.8233 73.8668 47.8064 73.9547 47.7959C73.8538 47.8124 73.7669 47.8292 73.6942 47.8465Z" fill="#2F2E41"/>
<path d="M73.618 47.8651C73.6412 47.8586 73.6669 47.8522 73.6942 47.8457C73.6687 47.8523 73.6442 47.8572 73.618 47.8651Z" fill="#2F2E41"/>
<path d="M97.9463 77.066H85.621C85.4452 76.9257 85.323 76.7291 85.2749 76.5093C85.2269 76.2895 85.2559 76.0599 85.3571 75.859C85.6938 75.0868 85.034 74.3812 85.034 74.3812C84.8101 74.1187 84.6543 73.8051 84.5806 73.468C84.507 73.131 84.5176 72.781 84.6116 72.449C84.9382 71.3085 83.6584 68.0892 83.6584 68.0892C83.6584 68.0892 82.9686 72.2461 82.1232 77.066H70.4013C70.2049 76.7316 70.1014 76.3507 70.1014 75.9629C70.1014 75.575 70.2049 75.1942 70.4013 74.8597C71.0844 73.7014 70.4013 73.4793 70.4013 73.4793C70.4013 73.4793 69.7181 72.1831 70.4013 71.242C71.0844 70.3009 70.4013 66.4582 70.4013 66.4582C70.427 66.6281 70.6216 66.3192 70.9212 65.6715C71.3774 64.6861 72.0745 62.9141 72.7788 60.8567C73.2823 59.3884 73.7899 57.7729 74.2142 56.1933H74.2152C74.3264 55.7784 74.4318 55.3672 74.5313 54.9598C74.7259 54.1607 74.8927 53.3843 75.0194 52.6553C75.2943 51.0851 75.3849 49.7362 75.1738 48.8589C74.9988 48.1288 74.6157 47.7262 73.9547 47.7952C74.3089 47.7365 74.8279 47.6809 75.4673 47.6284C75.5826 47.6191 75.7021 47.6099 75.8256 47.5996C80.5951 47.2392 90.8281 47.0322 90.8281 47.0322L93.9625 52.645L97.9319 59.755C97.9319 59.755 97.8238 69.2929 97.9463 77.066Z" fill="#2F2E41"/>
<path d="M84.7907 22.773L77.5695 21.2412L76.1357 24.1273L71.3073 26.9227C71.3073 26.9227 74.4196 39.6484 74.4019 41.4382C74.3568 45.9822 67.0862 56.1685 72.5779 55.3849C78.0697 54.6013 79.1852 51.3189 80.9482 51.8379C82.5382 52.306 84.4797 54.3882 85.7794 52.899C87.0792 51.4097 87.537 53.1295 88.3589 53.1889C88.7495 53.2171 88.5142 51.3084 89.497 53.2482C90.4797 55.188 95.6908 52.5768 93.9246 50.8106C90.9831 47.8691 90.3852 26.1852 90.3852 26.1852L87.1107 25.1776L84.7907 22.773Z" fill="#E6E6E6"/>
<path d="M71.1708 68.9869C71.461 68.6409 71.6047 68.1953 71.5713 67.745C71.538 67.2947 71.3302 66.8752 70.9923 66.5757C70.9227 66.5159 70.8482 66.462 70.7696 66.4145L71.977 60.4889L69.1858 58.8184L68.4094 67.1145C68.2377 67.4554 68.1836 67.8437 68.2557 68.2186C68.3278 68.5935 68.5219 68.934 68.8079 69.1869C68.9719 69.3293 69.1625 69.438 69.3686 69.5067C69.5746 69.5754 69.7922 69.6029 70.0089 69.5876C70.2256 69.5722 70.4372 69.5143 70.6315 69.4172C70.8258 69.3201 70.9991 69.1857 71.1415 69.0216C71.1514 69.0101 71.1612 68.9986 71.1708 68.9869Z" fill="#A0616A"/>
<path d="M79.8373 37.7533C79.8198 37.5629 79.5768 37.4764 79.2401 37.3569C78.9019 37.2527 78.5804 37.1005 78.2855 36.9049C77.5401 36.3664 77.8335 35.8031 78.2392 35.0247C78.3185 34.8733 78.4009 34.7158 78.4781 34.5521C78.7077 34.0671 78.3422 32.0664 77.3897 28.6046C77.0963 27.5389 77.0973 26.7862 76.8944 26.2868C76.6926 25.7874 76.288 25.5413 75.1852 25.4898C73.8522 25.4225 72.547 25.8865 71.5555 26.78C71.5288 26.8037 71.501 26.8294 71.4742 26.8541C71.4237 26.9015 71.3743 26.9499 71.3259 26.9993C70.4091 27.9217 69.8844 29.1629 69.8617 30.4632L69.8566 30.6846L69.629 41.2615L68.9896 50.543L68.1082 63.3286L68.761 63.3606L71.3661 63.4903L71.6822 63.5057L72.4318 60.3611L73.3338 56.577L73.6654 55.1869L74.694 50.8746L75.1738 48.8595L75.4673 47.629L75.5867 47.1266L76.1695 44.6842C76.1829 44.6327 77.5236 39.3432 79.0691 38.4587C79.6458 38.1292 79.8538 37.9377 79.8373 37.7533Z" fill="#E6E6E6"/>
<path d="M97.1784 68.9244C96.8528 68.6116 96.6621 68.1841 96.6469 67.7328C96.6317 67.2815 96.7932 66.8421 97.097 66.5081C97.1598 66.4411 97.228 66.3795 97.301 66.3239L95.4642 60.5622L98.0599 58.6016L99.7227 66.7663C99.9301 67.0869 100.026 67.467 99.9942 67.8475C99.9628 68.228 99.8063 68.5874 99.5492 68.8696C99.4014 69.0287 99.2236 69.1572 99.0261 69.2477C98.8286 69.3382 98.6152 69.3889 98.3981 69.3969C98.181 69.4049 97.9645 69.3701 97.7608 69.2944C97.5572 69.2187 97.3705 69.1037 97.2113 68.9558C97.2002 68.9455 97.1893 68.935 97.1784 68.9244Z" fill="#A0616A"/>
<path d="M98.4482 56.4217C98.4482 56.4217 96.4238 49.2991 97.0412 48.528C97.6585 47.7569 95.8352 47.6063 96.6209 46.1703C97.4067 44.7343 96.3221 44.4941 96.3221 44.4941L95.7336 41.1923L94.6815 33.0824L94.6496 32.8412L94.3436 30.4818C94.2581 29.8078 94.0376 29.1581 93.6953 28.5713C93.3529 27.9846 92.8958 27.4729 92.3512 27.0669C92.3234 27.0456 92.295 27.0251 92.2666 27.0047C92.137 26.9114 92.0047 26.825 91.8695 26.7455C90.8596 26.1497 89.6736 25.9244 88.5155 26.1084C86.3335 26.4482 87.0126 27.262 86.6587 29.4419C86.0836 32.9865 85.9343 35.0143 86.2148 35.4725C86.3092 35.6268 86.4085 35.7744 86.5031 35.9161C86.9904 36.6475 87.3426 37.1751 86.6588 37.7918C86.3864 38.0171 86.0833 38.2026 85.7586 38.3426C85.4372 38.4982 85.2046 38.6099 85.2077 38.8012C85.2113 38.9865 85.4385 39.1538 86.0467 39.4192C86.7838 39.7418 87.5755 40.9614 88.224 42.2072C88.7385 43.2114 89.1973 44.2432 89.5985 45.2978L95.1718 60.9727L96.0809 63.529L96.3944 63.4794L98.9696 63.0711L99.6154 62.9689L98.4482 56.4217Z" fill="#E6E6E6"/>
<path d="M81.7441 21.1325C84.9978 21.1325 87.6355 18.4948 87.6355 15.241C87.6355 11.9873 84.9978 9.34961 81.7441 9.34961C78.4903 9.34961 75.8527 11.9873 75.8527 15.241C75.8527 18.4948 78.4903 21.1325 81.7441 21.1325Z" fill="#A0616A"/>
<path d="M72.9078 11.9898C72.0109 8.71989 79.2446 5.9159 81.1441 8.54914C81.4083 8.17478 82.3844 7.94738 82.8323 8.06222C83.2802 8.17706 83.6569 8.46416 84.0244 8.74208C84.5297 9.13024 85.0533 9.53218 85.3634 10.0903C85.6758 10.6461 85.724 11.4041 85.3037 11.8864C84.9706 12.27 83.9876 12.518 83.4869 12.6191C83.1378 12.6903 82.8438 12.7477 82.5911 12.7891C82.3617 12.4584 82.2559 12.0575 82.2926 11.6567C82.1225 11.7714 81.9799 11.9224 81.8751 12.0987C81.7703 12.275 81.7058 12.4723 81.6862 12.6765C81.6793 12.7615 84.509 23.1729 84.509 23.1729C84.169 23.3664 83.8114 23.5272 83.441 23.653C82.7082 22.533 82.1469 21.3099 81.7758 20.024C81.6905 20.8838 81.7013 21.7505 81.8079 22.6079C81.8647 23.0887 81.9459 23.5663 82.0514 24.0388C78.6889 24.7646 73.6313 24.5258 71.4309 21.4389C71.4306 21.4261 71.4302 21.4133 71.4298 21.4005C71.4281 21.2787 71.3841 21.1612 71.3053 21.0683C71.2265 20.9753 71.1178 20.9126 70.9979 20.891C70.878 20.8693 70.7543 20.8901 70.648 20.9496C70.5416 21.0091 70.4593 21.1038 70.4151 21.2173C70.3617 21.3535 70.3126 21.4714 70.2688 21.5652C69.628 19.273 70.4571 16.6201 72.9078 11.9898Z" fill="#2F2E41"/>
<path d="M43.6899 32.3476C43.5655 32.3533 43.4423 32.3206 43.3371 32.254C43.2319 32.1874 43.1496 32.09 43.1016 31.9751C43.0535 31.8602 43.042 31.7333 43.0685 31.6116C43.095 31.4899 43.1582 31.3793 43.2497 31.2947C43.265 31.2339 43.276 31.1901 43.2913 31.1293C43.2858 31.116 43.2803 31.1028 43.2748 31.0895C42.7155 29.7561 40.8203 29.7653 40.2658 31.1007C39.7737 32.286 39.1471 33.4733 38.9928 34.7265C38.9249 35.2805 38.9535 35.8421 39.0775 36.3862C37.9216 33.8648 37.3214 31.1243 37.3176 28.3506C37.3173 27.6546 37.356 26.9591 37.4334 26.2674C37.4974 25.7003 37.5861 25.1373 37.6996 24.5783C38.3192 21.5453 39.6493 18.7024 41.5809 16.2833C42.5157 15.7732 43.2718 14.9888 43.7471 14.0358C43.9193 13.6933 44.041 13.3276 44.1084 12.9501C44.003 12.964 43.7108 11.3579 43.7903 11.2593C43.6434 11.0363 43.3803 10.9254 43.2198 10.7078C42.4215 9.62553 41.3217 9.81451 40.7476 11.2853C39.521 11.9043 39.5092 12.9309 40.2618 13.9183C40.7406 14.5464 40.8063 15.3964 41.2265 16.0689C41.1832 16.1243 41.1383 16.1779 41.0951 16.2332C40.305 17.2491 39.6164 18.3401 39.0391 19.4903C39.2024 18.2146 38.9613 16.6776 38.5502 15.6869C38.0823 14.558 37.2052 13.6073 36.4328 12.6314C35.5051 11.4592 33.6027 11.9708 33.4392 13.4567C33.4377 13.4711 33.4361 13.4855 33.4346 13.4999C33.5493 13.5646 33.6616 13.6333 33.7715 13.706C33.9095 13.7982 34.0165 13.93 34.0784 14.084C34.1402 14.2381 34.1541 14.4072 34.1182 14.5693C34.0823 14.7314 33.9983 14.8788 33.8771 14.9923C33.756 15.1058 33.6034 15.1801 33.4393 15.2054L33.4225 15.208C33.4634 15.6214 33.5356 16.0312 33.6386 16.4337C32.6478 20.2656 34.7869 21.6613 37.8414 21.724C37.9088 21.7585 37.9745 21.7931 38.042 21.826C37.462 23.4696 37.0982 25.1817 36.9597 26.9191C36.8813 27.9442 36.8859 28.9739 36.9735 29.9982L36.9683 29.9619C36.747 28.8229 36.1394 27.7951 35.2481 27.0522C33.9244 25.9648 32.0541 25.5643 30.626 24.6903C29.9385 24.2695 29.0576 24.8132 29.1776 25.6103C29.1795 25.623 29.1814 25.6357 29.1834 25.6484C29.3963 25.7351 29.6036 25.835 29.8041 25.9475C29.9188 26.0122 30.0311 26.0809 30.1409 26.1536C30.279 26.2458 30.3859 26.3776 30.4478 26.5316C30.5097 26.6857 30.5236 26.8548 30.4876 27.0169C30.4517 27.179 30.3677 27.3264 30.2466 27.44C30.1254 27.5535 29.9728 27.6277 29.8088 27.653L29.7919 27.6556C29.7798 27.6573 29.7695 27.6591 29.7574 27.6608C30.1211 28.5293 30.6317 29.3288 31.2666 30.0241C31.8862 33.3692 34.5472 33.6866 37.3936 32.7124H37.3954C37.7077 34.0696 38.1602 35.3906 38.7456 36.6542H43.569C43.5863 36.6006 43.6019 36.5453 43.6174 36.4917C43.171 36.5197 42.7228 36.493 42.2828 36.4122C42.6406 35.973 42.9985 35.5304 43.3564 35.0913C43.3644 35.0831 43.3719 35.0744 43.3789 35.0654C43.5604 34.8406 43.7436 34.6176 43.9252 34.3929L43.9253 34.3926C43.9349 33.7037 43.8559 33.0164 43.6901 32.3477L43.6899 32.3476Z" fill="#F2F2F2"/>
<path d="M21.1833 8.08984C21.0738 8.34496 17.6983 8.31762 17.5437 8.54479C16.3517 10.2986 20.6485 17.7607 19.4565 19.5168L19.2905 19.7147C19.6794 19.5355 20.0529 19.3248 20.4074 19.0846C20.4392 18.3658 20.4711 17.6447 20.5052 16.9259C20.8622 17.3826 21.1504 17.8892 21.3605 18.4295C21.638 18.2339 21.8657 17.8712 23.0552 17.1579C23.5368 16.6289 24.0919 16.1719 24.7036 15.801L21.1833 8.08984Z" fill="#2F2E41"/>
<path d="M23.6344 22.4639C23.2619 22.2213 22.8369 22.071 22.3947 22.0254C21.9525 21.9799 21.5058 22.0405 21.0917 22.2022C20.6775 22.3639 20.308 22.622 20.0136 22.9551C19.7192 23.2882 19.5085 23.6868 19.399 24.1176L14.2694 37.4832L5.45223 32.4775C5.41352 31.9021 5.19358 31.3538 4.82396 30.9111C4.45434 30.4685 3.95404 30.1543 3.3948 30.0135C2.83555 29.8728 2.24611 29.9128 1.71101 30.1278C1.1759 30.3428 0.722627 30.7217 0.416192 31.2102C0.109757 31.6987 -0.0340938 32.2717 0.00527026 32.8471C0.0446344 33.4224 0.265192 33.9705 0.635309 34.4127C1.00543 34.855 1.50609 35.1686 2.06549 35.3087C2.62488 35.4488 3.21428 35.4081 3.74914 35.1926C5.60596 37.1743 13.6559 45.2995 16.9886 42.1248C19.7898 39.4563 23.8323 29.1142 24.8055 25.5428C24.9613 24.9717 24.9319 24.3659 24.7215 23.8126C24.511 23.2593 24.1304 22.7871 23.6344 22.4639Z" fill="#FFB6B6"/>
<path d="M14.0026 42.6846L15.6213 50.001L27.4581 51.0717L28.5459 44.701L14.0026 42.6846Z" fill="#FFB6B6"/>
<path d="M32.0834 61.4474C32.078 61.5522 32.0715 61.6561 32.0639 61.7609C31.9504 63.2769 31.8206 65.0254 31.68 66.9414C31.4584 69.982 31.2108 73.4444 30.961 77.0667H6.1333L10.9484 62.594C10.9484 62.594 12.8926 61.5235 11.9028 59.7253C10.9129 57.9272 12.8605 59.3601 12.8787 56.792C12.8968 54.224 14.642 51.4919 14.642 51.4919L14.9286 47.6035L15.0919 47.6068L28.0123 47.8219L28.248 47.8263L28.6448 51.1642C31.0543 54.0314 32.2836 57.7075 32.0834 61.4474Z" fill="#2F2E41"/>
<path d="M21.3902 18.9178L27.2819 18.6143L30.0185 22.9383C30.0185 22.9383 35.1673 23.7992 34.8104 29.8665C34.4535 35.9338 28.5458 41.2579 28.5458 41.2579L28.7983 40.3921L28.3597 41.6453L28.416 42.349L29.0143 43.0942L29.0759 43.8649L28.5458 45.0843C28.6147 45.1948 28.6513 45.3224 28.6514 45.4527C28.6515 45.5829 28.6151 45.7105 28.5463 45.8211C28.4775 45.9317 28.3791 46.0208 28.2622 46.0783C28.1454 46.1358 28.0147 46.1594 27.8852 46.1464L19.3721 45.2933C19.1783 44.7601 19.0227 44.1221 18.2458 45.1841L17.4439 45.1064L14.1102 44.7835L13.914 44.0687C13.8025 43.6625 13.7851 43.2363 13.8632 42.8224C13.9412 42.4085 14.1127 42.0179 14.3645 41.6803C14.0749 40.7736 14.1507 39.7896 14.5758 38.9379L14.5918 38.906L14.9458 38.6109C14.9458 38.6109 11.0727 32.7921 15.5189 28.4095L17.3034 25.3758L19.3001 22.9397L21.3902 18.9178Z" fill="#6C63FF"/>
<path d="M22.8565 16.3654C25.9421 16.3654 28.4435 13.864 28.4435 10.7784C28.4435 7.69278 25.9421 5.19141 22.8565 5.19141C19.7709 5.19141 17.2695 7.69278 17.2695 10.7784C17.2695 13.864 19.7709 16.3654 22.8565 16.3654Z" fill="#FFB6B6"/>
<path d="M27.0999 18.8269C26.6449 18.4468 26.3283 17.927 26.1991 17.3484C26.0958 18.0509 26.1228 18.7665 26.2787 19.4593C25.9762 19.6868 25.6827 19.9029 25.4052 20.0985C25.1951 19.5582 24.9069 19.0516 24.5499 18.5949C24.5158 19.3137 24.484 20.0348 24.4521 20.7536C24.0976 20.9938 23.7241 21.2045 23.3352 21.3837L23.5013 21.1858C24.6932 19.4297 21.6087 16.1973 22.8006 14.4435C23.135 13.9522 21.6246 10.0692 20.4736 9.89403C19.45 9.73935 19.4932 10.0351 18.5014 10.2512C18.3984 9.82162 18.2385 9.40775 18.026 9.02052C18.0825 9.45201 18.0695 9.88978 17.9873 10.3171C17.6347 10.3308 17.3573 10.1061 16.9819 10.0487C14.5866 9.68248 14.83 7.09156 15.4965 6.27037C16.1652 5.45147 18.3854 5.20579 19.409 4.93964C19.5023 4.84866 19.7138 4.90552 19.8071 4.81908C21.7688 3.02374 24.3925 2.72641 26.7536 3.52215C29.2715 4.37074 30.8414 6.01315 31.6471 8.54511L31.8782 10.5713C32.0855 11.2228 31.8247 14.2542 31.6471 14.9144C30.9567 17.4808 29.4864 16.1996 27.0999 18.8269Z" fill="#2F2E41"/>
<path d="M35.2462 45.2963L35.0263 28.1659C35.0148 27.4402 34.7185 26.748 34.2012 26.2389C33.6839 25.7297 32.9872 25.4443 32.2614 25.4443C31.8859 25.4443 31.5143 25.5208 31.1694 25.6691C30.8244 25.8174 30.5133 26.0344 30.2549 26.3068C29.9965 26.5793 29.7963 26.9015 29.6666 27.2538C29.5368 27.6062 29.4801 27.9813 29.5 28.3562L30.274 46.1435L30.2887 56.9716C29.8325 57.165 29.447 57.4942 29.1844 57.9144C28.9218 58.3346 28.795 58.8255 28.8211 59.3203C28.8472 59.8151 29.025 60.2899 29.3304 60.6801C29.6357 61.0704 30.0538 61.3571 30.5278 61.5015C31.0018 61.6459 31.5087 61.6408 31.9798 61.487C32.4508 61.3332 32.8631 61.0382 33.1606 60.6419C33.4581 60.2456 33.6264 59.7674 33.6426 59.2722C33.6588 58.7769 33.5222 58.2887 33.2513 57.8738L35.2462 45.2963Z" fill="#FFB6B6"/>
<path d="M64.0811 67.4597C64.0811 67.4597 63.741 73.5778 63.5847 77.0671H51.8735C51.6324 73.8917 51.5513 71.5587 51.5513 71.5587L50.9105 77.0671H39.0728L38.3389 66.8654L41.8854 58.0743C41.8854 58.0743 61.105 56.7413 62.8878 58.4322C64.6694 60.122 64.0811 67.4597 64.0811 67.4597Z" fill="#2F2E41"/>
<path d="M53.725 15.9932C57.258 15.9932 60.122 13.1292 60.122 9.59623C60.122 6.06326 57.258 3.19922 53.725 3.19922C50.192 3.19922 47.328 6.06326 47.328 9.59623C47.328 13.1292 50.192 15.9932 53.725 15.9932Z" fill="#FFB6B6"/>
<path d="M61.1814 7.5174C60.5243 7.81701 60.0986 9.98691 59.5821 9.48245C59.0657 8.97799 59.1002 8.32152 58.4039 8.13535C57.8416 7.98437 57.2365 8.15692 56.7237 8.42907C56.6321 8.47709 56.5433 8.5293 56.4568 8.58122C56.3997 8.54306 56.3428 8.50715 56.2818 8.47402C55.823 8.22852 55.2876 8.16829 54.7858 8.30575C55.1823 8.43857 55.5271 8.69268 55.7713 9.03214C55.5997 9.14717 55.4258 9.2625 55.2479 9.36468C53.7622 10.2221 51.6482 8.35774 50.0843 7.65736C51.0639 9.49554 50.5815 10.2568 49.731 12.1579L49.7016 12.2661C49.75 11.7897 48.2756 11.4346 48.3611 12.1053C48.4218 12.5815 48.8339 13.64 49.0647 14.0605C47.4205 12.1593 46.2969 9.83282 46.534 7.43284C46.5856 6.92868 46.5701 6.39674 46.8301 5.95915C47.0904 5.52383 47.6331 5.21834 48.1132 5.38435C48.0726 4.61897 48.2401 3.85687 48.5979 3.17908C48.9557 2.50128 49.4906 1.93312 50.1455 1.53501C50.8005 1.13689 51.5511 0.923692 52.3175 0.918082C53.0839 0.912473 53.8376 1.11466 54.4983 1.50315C55.1122 1.86339 55.6248 2.3729 56.1875 2.81238C56.7502 3.25187 57.3988 3.63495 58.1123 3.67123C58.565 3.69306 59.0575 3.58255 59.4464 3.81699C59.8969 4.08902 59.974 4.65856 60.0416 5.2066C59.6398 5.24621 59.259 5.40471 58.9477 5.66185C59.3634 5.61944 59.7819 5.70921 60.1437 5.91837C60.1506 5.92148 60.1571 5.92521 60.1633 5.92951C60.4015 6.83523 60.377 7.03602 61.1814 7.5174Z" fill="#2F2E41"/>
<path d="M39.1012 61.169C44.5488 54.7925 42.7087 46.6821 40.5466 38.4951L40.958 26.4004C40.9782 25.8071 41.1409 25.2273 41.4323 24.7101C41.7236 24.1929 42.1352 23.7535 42.6322 23.4288L48.1935 19.7956L50.358 16.666L56.3246 17.2627L59.6332 20.7617L63.2956 23.5576C64.2152 24.2597 64.9149 25.2099 65.3122 26.2965C65.7095 27.383 65.7879 28.5605 65.5381 29.6901L62.0334 45.5398C62.0334 45.5398 63.4992 53.7564 62.6048 54.6639C61.7104 55.5713 59.4057 54.6643 61.2333 55.683C63.4266 56.9055 65.4209 56.6799 64.3109 57.7899C63.201 58.8998 64.6057 60.4429 64.6057 60.4429L39.1012 61.169Z" fill="#6C63FF"/>
<path d="M41.4302 70.4364L42.3384 63.9661L38.7146 62.9316L37.9979 69.8066C37.698 70.0815 37.4807 70.4347 37.3705 70.8264C37.2604 71.2181 37.2616 71.6327 37.3742 72.0237C37.4867 72.4147 37.7061 72.7666 38.0077 73.0397C38.3093 73.3129 38.6811 73.4965 39.0813 73.5699C39.4815 73.6434 39.8942 73.6037 40.2731 73.4554C40.652 73.3071 40.9821 73.0561 41.2261 72.7306C41.4702 72.405 41.6186 72.0178 41.6546 71.6125C41.6907 71.2072 41.613 70.7999 41.4302 70.4364Z" fill="#FFB6B6"/>
<path d="M48.3293 20.9619C48.3293 20.9619 38.0145 24.3191 37.7685 26.7754C37.5226 29.2318 37.6042 30.7355 36.5155 40.5649L36.5729 67.0426C36.5729 67.0426 43.4883 68.5232 42.7791 66.9402C42.0699 65.3571 42.3174 64.6123 42.3174 64.6123C42.3174 64.6123 43.8001 64.0272 43.4289 62.1685C43.0578 60.3097 44.919 51.0983 44.919 51.0983L46.0938 34.5782L48.3293 20.9619Z" fill="#6C63FF"/>
<path d="M61.0478 70.0934L60.5645 63.5776L64.2481 62.7822L64.514 69.6893C64.7953 69.9833 64.989 70.3499 65.0733 70.748C65.1576 71.146 65.1293 71.5597 64.9914 71.9425C64.8535 72.3253 64.6116 72.6621 64.2928 72.9149C63.974 73.1678 63.591 73.3267 63.1869 73.3738C62.7827 73.4209 62.3735 73.3544 62.0051 73.1816C61.6367 73.0089 61.3238 72.7368 61.1015 72.396C60.8793 72.0552 60.7565 71.6591 60.747 71.2524C60.7375 70.8456 60.8417 70.4442 61.0478 70.0934Z" fill="#FFB6B6"/>
<path d="M57.3973 20.2734C57.3973 20.2734 67.4707 24.2976 67.5556 26.7648C67.6404 29.232 67.4607 30.7272 67.9046 40.6067L66.1166 67.0241C66.1166 67.0241 59.1192 68.0495 59.9303 66.5162C60.7415 64.9828 60.5432 64.2235 60.5432 64.2235C60.5432 64.2235 59.102 63.5427 59.5938 61.7122C60.0857 59.8817 58.8305 50.5683 58.8305 50.5683L58.7381 34.0067L57.3973 20.2734Z" fill="#6C63FF"/>
</g>
<defs>
<clipPath id="clip0_720_423">
<rect width="100" height="76.1341" fill="white" transform="translate(0 0.932617)"/>
</clipPath>
</defs>
</svg>
